M48
;GenerationSoftware,Autodesk,EAGLE,9.6.0*%
;CreationDate,2020-11-25T07:08:19Z*%
FMAT,2
ICI,OFF
METRIC,TZ,000.000
T6C0.300
T5C0.600
T4C1.016
T3C1.500
T2C1.778
T1C3.100
%
G90
M71
T1
X12700Y31750
X12700Y-31750
X-12700Y-31750
X-12700Y31750
T2
X-7874Y30480
X6858Y17018
X-6858Y17018
X7874Y30480
T3
X2540Y16256
X-2540Y16256
T4
X6350Y-30480
X6350Y-33020
X-1270Y-33020
X-6350Y-33020
X-6350Y-30480
X-3810Y-33020
X-3810Y-30480
X-1270Y-30480
X1270Y-33020
X1270Y-30480
X3810Y-33020
X3810Y-30480
T5
X12700Y-29550
X11150Y-30200
X14250Y-30200
X11150Y-33300
X14250Y-33300
X-10500Y-31750
X-12700Y-33950
X-12700Y-29550
X-14250Y-30200
X-11150Y-30200
X-14250Y-33300
X-11150Y-33300
X10500Y31750
X-14900Y31750
X-10500Y31750
X-12700Y29550
X-12700Y33950
X-14250Y33300
X-11150Y33300
X14900Y31750
X-11150Y30200
X12700Y29550
X12700Y33950
X11150Y33300
X14250Y33300
X-14900Y-31750
X11150Y30200
X14250Y30200
X10500Y-31750
X14900Y-31750
X12700Y-33950
X-14250Y30200
T6
X-10160Y23368
X-7620Y27178
X-2540Y27178
X-5080Y30988
X2540Y27178
X0Y30988
X5080Y30988
X7620Y27178
X-2540Y34798
X2540Y34798
X-7620Y34798
X7620Y34798
X10160Y23368
X12700Y27178
X-12700Y27178
X-12700Y11938
X-15240Y23368
X-10160Y15748
X7620Y19558
X12446Y19812
X10160Y15748
X12700Y11938
X1270Y14224
X5064Y1000
X15240Y15494
X-15240Y8128
X-15240Y508
X-15240Y-7112
X-15240Y-14732
X-15240Y-21844
X-12700Y-3302
X-12700Y-18034
X-13970Y-24638
X-8890Y-22352
X15240Y8128
X15240Y-22352
X9382Y-25638
X8620Y-30480
X-8906Y-30480
X-8906Y-33020
X-9906Y-14986
X14970Y-746
X-8906Y3064
X11176Y-14732
X-11446Y6080
X-11446Y7096
X13192Y5096
X14208Y5350
X14462Y6366
X9636Y5350
X-7890Y5096
X1457Y-23054
X2286Y-3810
X-12700Y762
X9382Y-23368
X3780Y1300
X3302Y-9906
X2540Y-13208
X1524Y-5080
X9144Y1524
X508Y-5080
X9144Y0
X-508Y-5080
X9144Y-1524
X-1524Y-5080
X9144Y-3048
X0Y1000
X1000Y1000
X9144Y10668
X7366Y6350
X-6858Y6350
X-9906Y13208
X-5334Y-1016
X-2032Y-15494
X1524Y-15494
X5080Y-15494
X-3175Y-12319
X3302Y-9144
X5080Y-10160
X13970Y-762
X7366Y-10414
X13970Y-5334
X10414Y-9652
X11938Y-3048
X9398Y-9652
X-12954Y-5334
X-8128Y-18288
X-11938Y-3810
X12700Y-9144
X13970Y3810
X11938Y1524
X14986Y-10414
X9144Y4572
X-3810Y-762
X-3302Y-8636
X-3810Y762
X9144Y3048
X-4064Y-9144
X-4572Y-2032
X3302Y-6868
X9070Y-4572
X-2540Y-10922
X3302Y-7625
X9144Y-6096
X-1778Y-11684
X3302Y-8383
X9144Y-7620
X1000Y0
X-1270Y-21844
X8128Y-21844
X-1000Y1000
X-1000Y0
X-1000Y-1000
X0Y-1000
X1000Y-1000
X10668Y1778
X10922Y-3048
X10922Y-7620
X14986Y1524
X14986Y-3048
X14986Y-7620
X-16Y0
X-524Y-9271
X492Y-8255
X492Y-9271
X-524Y-8255
X746Y10652
X-16Y10652
X-778Y10652
X15224Y4588
X-3064Y-25162
X3794Y-25162
X-11192Y5064
X7096Y-19812
X4064Y-254
X13192Y-22098
X9382Y-27940
X8620Y-33020
X-8906Y-27940
X-3826Y2270
X-5604Y3540
X-5604Y4556
X-5604Y5572
X-7890Y4048
X-7890Y3032
X-4334Y3540
X-8906Y4048
X3794Y2270
X3794Y3540
X5064Y3540
X5064Y2270
X13970Y24638
X-15240Y15748
X-1270Y14224
X0Y15748
X-5080Y23368
X0Y23368
X-2540Y19558
X2540Y19558
X5080Y23368
X-7620Y19558
X0Y-12192
M30