G04 EAGLE Gerber RS-274X export*
G75*
%MOMM*%
%FSLAX34Y34*%
%LPD*%
%INGBL*%
%IPPOS*%
%AMOC8*
5,1,8,0,0,1.08239X$1,22.5*%
G01*
%ADD10C,2.667000*%
%ADD11C,5.800000*%
%ADD12C,1.108000*%
%ADD13C,1.879600*%
%ADD14C,1.000000*%
%ADD15C,0.604800*%
%ADD16C,0.254000*%
%ADD17C,2.540000*%
%ADD18C,0.508000*%

G36*
X-74882Y-351772D02*
X-74882Y-351772D01*
X-74744Y-351759D01*
X-74725Y-351752D01*
X-74705Y-351749D01*
X-74576Y-351698D01*
X-74445Y-351651D01*
X-74428Y-351640D01*
X-74409Y-351632D01*
X-74297Y-351551D01*
X-74181Y-351473D01*
X-74168Y-351457D01*
X-74152Y-351446D01*
X-74063Y-351338D01*
X-73971Y-351234D01*
X-73962Y-351216D01*
X-73949Y-351201D01*
X-73890Y-351075D01*
X-73826Y-350951D01*
X-73822Y-350931D01*
X-73813Y-350913D01*
X-73787Y-350776D01*
X-73757Y-350641D01*
X-73757Y-350620D01*
X-73754Y-350601D01*
X-73762Y-350462D01*
X-73766Y-350323D01*
X-73772Y-350303D01*
X-73773Y-350283D01*
X-73816Y-350151D01*
X-73855Y-350017D01*
X-73865Y-350000D01*
X-73871Y-349981D01*
X-73946Y-349863D01*
X-74016Y-349743D01*
X-74035Y-349722D01*
X-74041Y-349712D01*
X-74056Y-349698D01*
X-74123Y-349623D01*
X-75606Y-348139D01*
X-83047Y-340698D01*
X-83821Y-338831D01*
X-83821Y-296169D01*
X-83047Y-294302D01*
X-76572Y-287827D01*
X-76512Y-287749D01*
X-76444Y-287677D01*
X-76415Y-287624D01*
X-76378Y-287576D01*
X-76338Y-287485D01*
X-76290Y-287398D01*
X-76275Y-287340D01*
X-76251Y-287284D01*
X-76236Y-287186D01*
X-76211Y-287090D01*
X-76205Y-286990D01*
X-76201Y-286970D01*
X-76203Y-286958D01*
X-76201Y-286930D01*
X-76201Y-188050D01*
X-76216Y-187926D01*
X-76223Y-187819D01*
X-76229Y-187802D01*
X-76231Y-187774D01*
X-76238Y-187755D01*
X-76241Y-187735D01*
X-76292Y-187606D01*
X-76297Y-187589D01*
X-76321Y-187517D01*
X-76327Y-187507D01*
X-76339Y-187474D01*
X-76350Y-187458D01*
X-76358Y-187439D01*
X-76439Y-187327D01*
X-76472Y-187278D01*
X-76491Y-187248D01*
X-76495Y-187244D01*
X-76517Y-187211D01*
X-76533Y-187198D01*
X-76544Y-187182D01*
X-76652Y-187093D01*
X-76721Y-187031D01*
X-76723Y-187030D01*
X-76756Y-187001D01*
X-76774Y-186992D01*
X-76789Y-186979D01*
X-76915Y-186920D01*
X-77039Y-186856D01*
X-77059Y-186852D01*
X-77077Y-186843D01*
X-77214Y-186817D01*
X-77349Y-186787D01*
X-77370Y-186787D01*
X-77389Y-186784D01*
X-77456Y-186788D01*
X-77470Y-186787D01*
X-77476Y-186787D01*
X-77509Y-186791D01*
X-77528Y-186792D01*
X-77667Y-186796D01*
X-77687Y-186802D01*
X-77707Y-186803D01*
X-77771Y-186824D01*
X-77791Y-186827D01*
X-77845Y-186848D01*
X-77973Y-186885D01*
X-77990Y-186895D01*
X-78009Y-186901D01*
X-78058Y-186932D01*
X-78087Y-186944D01*
X-78150Y-186989D01*
X-78247Y-187046D01*
X-78268Y-187065D01*
X-78278Y-187071D01*
X-78292Y-187086D01*
X-78332Y-187122D01*
X-78344Y-187130D01*
X-78350Y-187137D01*
X-78368Y-187153D01*
X-78402Y-187187D01*
X-80269Y-187961D01*
X-82291Y-187961D01*
X-84158Y-187187D01*
X-85587Y-185758D01*
X-86361Y-183891D01*
X-86361Y-104230D01*
X-86373Y-104132D01*
X-86376Y-104033D01*
X-86393Y-103975D01*
X-86401Y-103915D01*
X-86437Y-103823D01*
X-86465Y-103728D01*
X-86495Y-103675D01*
X-86518Y-103619D01*
X-86576Y-103539D01*
X-86626Y-103454D01*
X-86692Y-103378D01*
X-86704Y-103362D01*
X-86714Y-103354D01*
X-86732Y-103333D01*
X-133847Y-56218D01*
X-134621Y-54351D01*
X-134621Y-52329D01*
X-133847Y-50462D01*
X-132418Y-49033D01*
X-130551Y-48259D01*
X-128529Y-48259D01*
X-126662Y-49033D01*
X-78367Y-97327D01*
X-78258Y-97413D01*
X-78151Y-97501D01*
X-78132Y-97510D01*
X-78116Y-97522D01*
X-77988Y-97578D01*
X-77863Y-97637D01*
X-77843Y-97640D01*
X-77824Y-97649D01*
X-77686Y-97670D01*
X-77550Y-97696D01*
X-77530Y-97695D01*
X-77510Y-97698D01*
X-77371Y-97685D01*
X-77233Y-97677D01*
X-77214Y-97671D01*
X-77194Y-97669D01*
X-77062Y-97621D01*
X-76931Y-97579D01*
X-76913Y-97568D01*
X-76894Y-97561D01*
X-76779Y-97483D01*
X-76662Y-97409D01*
X-76648Y-97394D01*
X-76631Y-97382D01*
X-76539Y-97278D01*
X-76444Y-97177D01*
X-76434Y-97159D01*
X-76421Y-97144D01*
X-76357Y-97020D01*
X-76290Y-96898D01*
X-76285Y-96879D01*
X-76276Y-96861D01*
X-76246Y-96725D01*
X-76211Y-96590D01*
X-76209Y-96562D01*
X-76206Y-96550D01*
X-76207Y-96530D01*
X-76201Y-96430D01*
X-76201Y-88990D01*
X-76213Y-88892D01*
X-76216Y-88793D01*
X-76233Y-88735D01*
X-76241Y-88675D01*
X-76277Y-88583D01*
X-76305Y-88488D01*
X-76335Y-88435D01*
X-76358Y-88379D01*
X-76416Y-88299D01*
X-76466Y-88214D01*
X-76532Y-88138D01*
X-76544Y-88122D01*
X-76554Y-88114D01*
X-76572Y-88093D01*
X-123687Y-40978D01*
X-124461Y-39111D01*
X-124461Y-37089D01*
X-123687Y-35222D01*
X-122258Y-33793D01*
X-120391Y-33019D01*
X-118369Y-33019D01*
X-116502Y-33793D01*
X-69477Y-80817D01*
X-69368Y-80903D01*
X-69261Y-80991D01*
X-69242Y-81000D01*
X-69226Y-81012D01*
X-69098Y-81068D01*
X-68973Y-81127D01*
X-68953Y-81130D01*
X-68934Y-81139D01*
X-68796Y-81160D01*
X-68660Y-81186D01*
X-68640Y-81185D01*
X-68620Y-81188D01*
X-68481Y-81175D01*
X-68343Y-81167D01*
X-68324Y-81161D01*
X-68304Y-81159D01*
X-68172Y-81111D01*
X-68041Y-81069D01*
X-68023Y-81058D01*
X-68004Y-81051D01*
X-67889Y-80973D01*
X-67772Y-80899D01*
X-67758Y-80884D01*
X-67741Y-80872D01*
X-67649Y-80768D01*
X-67554Y-80667D01*
X-67544Y-80649D01*
X-67531Y-80634D01*
X-67467Y-80510D01*
X-67400Y-80388D01*
X-67395Y-80369D01*
X-67386Y-80351D01*
X-67356Y-80215D01*
X-67321Y-80080D01*
X-67319Y-80052D01*
X-67316Y-80040D01*
X-67317Y-80020D01*
X-67311Y-79920D01*
X-67311Y-72082D01*
X-64707Y-69478D01*
X-29147Y-33917D01*
X-29061Y-33808D01*
X-28973Y-33701D01*
X-28964Y-33682D01*
X-28952Y-33666D01*
X-28896Y-33538D01*
X-28837Y-33413D01*
X-28833Y-33393D01*
X-28825Y-33374D01*
X-28803Y-33236D01*
X-28777Y-33100D01*
X-28779Y-33080D01*
X-28776Y-33060D01*
X-28789Y-32921D01*
X-28797Y-32783D01*
X-28803Y-32764D01*
X-28805Y-32744D01*
X-28853Y-32612D01*
X-28895Y-32481D01*
X-28906Y-32463D01*
X-28913Y-32444D01*
X-28991Y-32329D01*
X-29065Y-32212D01*
X-29080Y-32198D01*
X-29092Y-32181D01*
X-29196Y-32089D01*
X-29297Y-31994D01*
X-29315Y-31984D01*
X-29330Y-31971D01*
X-29454Y-31908D01*
X-29576Y-31840D01*
X-29595Y-31835D01*
X-29613Y-31826D01*
X-29749Y-31796D01*
X-29883Y-31761D01*
X-29912Y-31759D01*
X-29923Y-31756D01*
X-29944Y-31757D01*
X-30044Y-31751D01*
X-93018Y-31751D01*
X-125784Y1015D01*
X-125795Y1023D01*
X-125804Y1034D01*
X-125920Y1120D01*
X-126035Y1209D01*
X-126048Y1215D01*
X-126059Y1224D01*
X-126205Y1293D01*
X-129928Y2802D01*
X-130553Y3055D01*
X-131261Y4730D01*
X-131783Y5963D01*
X-131642Y6312D01*
X-131641Y6316D01*
X-131638Y6320D01*
X-131600Y6468D01*
X-131560Y6620D01*
X-131560Y6624D01*
X-131559Y6628D01*
X-131549Y6789D01*
X-131549Y9504D01*
X-128884Y12169D01*
X-126169Y12169D01*
X-126165Y12169D01*
X-126160Y12169D01*
X-126007Y12189D01*
X-125853Y12209D01*
X-125849Y12210D01*
X-125845Y12211D01*
X-125692Y12262D01*
X-125343Y12403D01*
X-124110Y11882D01*
X-124110Y11881D01*
X-122435Y11173D01*
X-122182Y10548D01*
X-120673Y6825D01*
X-120666Y6812D01*
X-120662Y6798D01*
X-120589Y6673D01*
X-120518Y6547D01*
X-120508Y6537D01*
X-120501Y6525D01*
X-120395Y6404D01*
X-119636Y5645D01*
X-90233Y-23758D01*
X-90155Y-23818D01*
X-90083Y-23886D01*
X-90030Y-23915D01*
X-89982Y-23952D01*
X-89891Y-23992D01*
X-89804Y-24040D01*
X-89746Y-24055D01*
X-89690Y-24079D01*
X-89592Y-24094D01*
X-89496Y-24119D01*
X-89396Y-24125D01*
X-89376Y-24129D01*
X-89364Y-24127D01*
X-89336Y-24129D01*
X-51510Y-24129D01*
X-51466Y-24124D01*
X-51421Y-24126D01*
X-51308Y-24104D01*
X-51195Y-24089D01*
X-51153Y-24073D01*
X-51109Y-24064D01*
X-51005Y-24015D01*
X-50899Y-23972D01*
X-50863Y-23946D01*
X-50822Y-23927D01*
X-50734Y-23853D01*
X-50642Y-23786D01*
X-50613Y-23751D01*
X-50579Y-23722D01*
X-50512Y-23629D01*
X-50439Y-23541D01*
X-50420Y-23500D01*
X-50394Y-23464D01*
X-50352Y-23357D01*
X-50303Y-23253D01*
X-50295Y-23209D01*
X-50279Y-23167D01*
X-50265Y-23053D01*
X-50243Y-22941D01*
X-50246Y-22896D01*
X-50241Y-22851D01*
X-50256Y-22738D01*
X-50263Y-22623D01*
X-50277Y-22581D01*
X-50283Y-22536D01*
X-50334Y-22383D01*
X-50862Y-21080D01*
X-51460Y-19604D01*
X-50796Y-18037D01*
X-50243Y-16729D01*
X-50204Y-16590D01*
X-50161Y-16453D01*
X-50161Y-16438D01*
X-50157Y-16423D01*
X-50153Y-16278D01*
X-50146Y-16135D01*
X-50149Y-16121D01*
X-50149Y-16105D01*
X-50182Y-15964D01*
X-50211Y-15824D01*
X-50217Y-15810D01*
X-50221Y-15795D01*
X-50287Y-15668D01*
X-50350Y-15538D01*
X-50360Y-15527D01*
X-50367Y-15513D01*
X-50463Y-15406D01*
X-50557Y-15296D01*
X-50569Y-15288D01*
X-50579Y-15276D01*
X-50699Y-15196D01*
X-50817Y-15113D01*
X-50831Y-15108D01*
X-50844Y-15099D01*
X-50979Y-15052D01*
X-51114Y-15001D01*
X-51129Y-14999D01*
X-51144Y-14994D01*
X-51287Y-14981D01*
X-51430Y-14965D01*
X-51445Y-14967D01*
X-51461Y-14966D01*
X-51602Y-14990D01*
X-51745Y-15010D01*
X-51765Y-15017D01*
X-51774Y-15018D01*
X-51791Y-15025D01*
X-51897Y-15062D01*
X-52329Y-15241D01*
X-54351Y-15241D01*
X-56218Y-14467D01*
X-71279Y594D01*
X-72887Y2202D01*
X-73661Y4069D01*
X-73661Y60870D01*
X-73673Y60968D01*
X-73676Y61067D01*
X-73693Y61125D01*
X-73701Y61185D01*
X-73737Y61277D01*
X-73765Y61372D01*
X-73795Y61425D01*
X-73818Y61481D01*
X-73876Y61561D01*
X-73926Y61646D01*
X-73992Y61722D01*
X-74004Y61738D01*
X-74014Y61746D01*
X-74032Y61767D01*
X-103367Y91102D01*
X-104141Y92969D01*
X-104141Y133091D01*
X-103367Y134958D01*
X-101938Y136387D01*
X-100071Y137161D01*
X-98049Y137161D01*
X-96182Y136387D01*
X-94753Y134958D01*
X-93979Y133091D01*
X-93979Y96610D01*
X-93967Y96512D01*
X-93964Y96413D01*
X-93947Y96355D01*
X-93939Y96295D01*
X-93903Y96203D01*
X-93875Y96108D01*
X-93845Y96055D01*
X-93822Y95999D01*
X-93764Y95919D01*
X-93714Y95834D01*
X-93648Y95758D01*
X-93636Y95742D01*
X-93626Y95734D01*
X-93608Y95713D01*
X-69477Y71583D01*
X-69383Y71510D01*
X-69294Y71431D01*
X-69258Y71413D01*
X-69226Y71388D01*
X-69117Y71340D01*
X-69011Y71286D01*
X-68972Y71278D01*
X-68934Y71261D01*
X-68817Y71243D01*
X-68701Y71217D01*
X-68660Y71218D01*
X-68620Y71212D01*
X-68502Y71223D01*
X-68383Y71226D01*
X-68344Y71238D01*
X-68304Y71241D01*
X-68191Y71282D01*
X-68077Y71315D01*
X-68042Y71335D01*
X-68004Y71349D01*
X-67906Y71416D01*
X-67803Y71476D01*
X-67758Y71516D01*
X-67741Y71528D01*
X-67728Y71543D01*
X-67682Y71583D01*
X-46058Y93207D01*
X-44191Y93981D01*
X71030Y93981D01*
X71128Y93993D01*
X71227Y93996D01*
X71285Y94013D01*
X71345Y94021D01*
X71437Y94057D01*
X71532Y94085D01*
X71585Y94115D01*
X71641Y94138D01*
X71721Y94196D01*
X71806Y94246D01*
X71882Y94312D01*
X71898Y94324D01*
X71906Y94334D01*
X71927Y94352D01*
X88562Y110987D01*
X90429Y111761D01*
X92451Y111761D01*
X94318Y110987D01*
X95747Y109558D01*
X96521Y107691D01*
X96521Y105669D01*
X95747Y103802D01*
X79112Y87167D01*
X79052Y87089D01*
X78984Y87017D01*
X78955Y86964D01*
X78918Y86916D01*
X78878Y86825D01*
X78830Y86738D01*
X78815Y86680D01*
X78791Y86624D01*
X78776Y86526D01*
X78751Y86430D01*
X78745Y86330D01*
X78741Y86310D01*
X78743Y86298D01*
X78741Y86270D01*
X78741Y62489D01*
X77967Y60622D01*
X76538Y59193D01*
X74671Y58419D01*
X72649Y58419D01*
X70782Y59193D01*
X69353Y60622D01*
X68579Y62489D01*
X68579Y82550D01*
X68564Y82668D01*
X68557Y82787D01*
X68544Y82825D01*
X68539Y82866D01*
X68496Y82976D01*
X68459Y83089D01*
X68437Y83124D01*
X68422Y83161D01*
X68353Y83257D01*
X68289Y83358D01*
X68259Y83386D01*
X68236Y83419D01*
X68144Y83495D01*
X68057Y83576D01*
X68022Y83596D01*
X67991Y83621D01*
X67883Y83672D01*
X67779Y83730D01*
X67739Y83740D01*
X67703Y83757D01*
X67586Y83779D01*
X67471Y83809D01*
X67411Y83813D01*
X67391Y83817D01*
X67370Y83815D01*
X67310Y83819D01*
X-40550Y83819D01*
X-40648Y83807D01*
X-40747Y83804D01*
X-40805Y83787D01*
X-40865Y83779D01*
X-40957Y83743D01*
X-41052Y83715D01*
X-41105Y83685D01*
X-41161Y83662D01*
X-41241Y83604D01*
X-41326Y83554D01*
X-41402Y83488D01*
X-41418Y83476D01*
X-41426Y83466D01*
X-41447Y83448D01*
X-63128Y61767D01*
X-63188Y61689D01*
X-63256Y61617D01*
X-63285Y61564D01*
X-63322Y61516D01*
X-63362Y61425D01*
X-63410Y61338D01*
X-63425Y61280D01*
X-63449Y61224D01*
X-63464Y61126D01*
X-63489Y61030D01*
X-63495Y60930D01*
X-63499Y60910D01*
X-63497Y60898D01*
X-63499Y60870D01*
X-63499Y7710D01*
X-63487Y7612D01*
X-63484Y7513D01*
X-63467Y7455D01*
X-63459Y7395D01*
X-63423Y7303D01*
X-63395Y7208D01*
X-63365Y7155D01*
X-63342Y7099D01*
X-63284Y7019D01*
X-63234Y6934D01*
X-63168Y6858D01*
X-63156Y6842D01*
X-63146Y6834D01*
X-63128Y6813D01*
X-51697Y-4617D01*
X-51588Y-4703D01*
X-51481Y-4791D01*
X-51462Y-4800D01*
X-51446Y-4812D01*
X-51318Y-4868D01*
X-51193Y-4927D01*
X-51173Y-4930D01*
X-51154Y-4939D01*
X-51016Y-4960D01*
X-50880Y-4986D01*
X-50860Y-4985D01*
X-50840Y-4988D01*
X-50701Y-4975D01*
X-50563Y-4967D01*
X-50544Y-4961D01*
X-50524Y-4959D01*
X-50392Y-4911D01*
X-50261Y-4869D01*
X-50243Y-4858D01*
X-50224Y-4851D01*
X-50109Y-4773D01*
X-49992Y-4699D01*
X-49978Y-4684D01*
X-49961Y-4672D01*
X-49869Y-4568D01*
X-49774Y-4467D01*
X-49764Y-4449D01*
X-49751Y-4434D01*
X-49687Y-4310D01*
X-49620Y-4188D01*
X-49615Y-4169D01*
X-49606Y-4151D01*
X-49576Y-4015D01*
X-49541Y-3880D01*
X-49539Y-3852D01*
X-49536Y-3840D01*
X-49537Y-3820D01*
X-49531Y-3720D01*
X-49531Y1578D01*
X-44705Y6404D01*
X-44697Y6415D01*
X-44686Y6424D01*
X-44600Y6540D01*
X-44511Y6655D01*
X-44505Y6668D01*
X-44496Y6679D01*
X-44427Y6825D01*
X-43198Y9856D01*
X-42665Y11173D01*
X-41322Y11741D01*
X-39757Y12403D01*
X-39408Y12262D01*
X-39403Y12261D01*
X-39400Y12258D01*
X-39252Y12220D01*
X-39100Y12180D01*
X-39096Y12180D01*
X-39092Y12179D01*
X-38931Y12169D01*
X-36216Y12169D01*
X-33551Y9504D01*
X-33551Y6789D01*
X-33551Y6785D01*
X-33551Y6780D01*
X-33531Y6626D01*
X-33511Y6473D01*
X-33510Y6469D01*
X-33509Y6465D01*
X-33458Y6312D01*
X-33317Y5963D01*
X-34547Y3055D01*
X-38895Y1293D01*
X-38908Y1286D01*
X-38922Y1282D01*
X-39046Y1209D01*
X-39173Y1138D01*
X-39183Y1128D01*
X-39195Y1121D01*
X-39316Y1015D01*
X-40075Y256D01*
X-40075Y255D01*
X-41235Y-905D01*
X-41320Y-1014D01*
X-41409Y-1121D01*
X-41418Y-1140D01*
X-41430Y-1156D01*
X-41486Y-1283D01*
X-41545Y-1409D01*
X-41549Y-1429D01*
X-41557Y-1448D01*
X-41579Y-1586D01*
X-41605Y-1722D01*
X-41603Y-1742D01*
X-41606Y-1762D01*
X-41593Y-1901D01*
X-41585Y-2039D01*
X-41579Y-2058D01*
X-41577Y-2078D01*
X-41529Y-2210D01*
X-41487Y-2341D01*
X-41476Y-2359D01*
X-41469Y-2378D01*
X-41391Y-2493D01*
X-41317Y-2610D01*
X-41302Y-2624D01*
X-41290Y-2641D01*
X-41186Y-2733D01*
X-41085Y-2828D01*
X-41067Y-2838D01*
X-41052Y-2851D01*
X-40928Y-2914D01*
X-40806Y-2982D01*
X-40787Y-2987D01*
X-40769Y-2996D01*
X-40633Y-3026D01*
X-40499Y-3061D01*
X-40470Y-3063D01*
X-40459Y-3066D01*
X-40438Y-3065D01*
X-40338Y-3071D01*
X-36216Y-3071D01*
X-34296Y-4991D01*
X-34292Y-4994D01*
X-34290Y-4997D01*
X-34168Y-5090D01*
X-34045Y-5186D01*
X-34041Y-5188D01*
X-34037Y-5191D01*
X-33893Y-5263D01*
X-33546Y-5410D01*
X-32360Y-8335D01*
X-33223Y-10373D01*
X-33223Y-10374D01*
X-33429Y-10861D01*
X-33438Y-10894D01*
X-33454Y-10925D01*
X-33481Y-11047D01*
X-33515Y-11167D01*
X-33516Y-11201D01*
X-33524Y-11235D01*
X-33520Y-11360D01*
X-33523Y-11485D01*
X-33515Y-11518D01*
X-33514Y-11553D01*
X-33479Y-11673D01*
X-33451Y-11795D01*
X-33435Y-11825D01*
X-33426Y-11858D01*
X-33362Y-11966D01*
X-33305Y-12077D01*
X-33282Y-12103D01*
X-33264Y-12132D01*
X-33158Y-12253D01*
X-31813Y-13598D01*
X-31735Y-13658D01*
X-31663Y-13726D01*
X-31610Y-13755D01*
X-31562Y-13792D01*
X-31471Y-13832D01*
X-31384Y-13880D01*
X-31326Y-13895D01*
X-31270Y-13919D01*
X-31172Y-13934D01*
X-31076Y-13959D01*
X-30976Y-13965D01*
X-30956Y-13969D01*
X-30944Y-13967D01*
X-30916Y-13969D01*
X56316Y-13969D01*
X56414Y-13957D01*
X56513Y-13954D01*
X56571Y-13937D01*
X56631Y-13929D01*
X56723Y-13893D01*
X56819Y-13865D01*
X56871Y-13835D01*
X56927Y-13812D01*
X57007Y-13754D01*
X57092Y-13704D01*
X57168Y-13638D01*
X57184Y-13626D01*
X57192Y-13616D01*
X57213Y-13598D01*
X61858Y-8953D01*
X61918Y-8875D01*
X61986Y-8803D01*
X62015Y-8750D01*
X62052Y-8702D01*
X62092Y-8611D01*
X62140Y-8524D01*
X62155Y-8466D01*
X62179Y-8410D01*
X62194Y-8312D01*
X62219Y-8216D01*
X62225Y-8116D01*
X62229Y-8096D01*
X62227Y-8084D01*
X62229Y-8056D01*
X62229Y21898D01*
X84076Y43745D01*
X84835Y44504D01*
X84843Y44515D01*
X84854Y44524D01*
X84941Y44640D01*
X85029Y44755D01*
X85035Y44768D01*
X85044Y44779D01*
X85113Y44925D01*
X86622Y48648D01*
X86875Y49273D01*
X88550Y49981D01*
X89783Y50503D01*
X90132Y50362D01*
X90136Y50361D01*
X90140Y50358D01*
X90289Y50320D01*
X90440Y50280D01*
X90444Y50280D01*
X90448Y50279D01*
X90609Y50269D01*
X93324Y50269D01*
X95989Y47604D01*
X95989Y44889D01*
X95989Y44885D01*
X95989Y44880D01*
X96009Y44727D01*
X96029Y44573D01*
X96030Y44569D01*
X96031Y44565D01*
X96082Y44412D01*
X96223Y44063D01*
X95701Y42830D01*
X94993Y41155D01*
X94368Y40902D01*
X90645Y39393D01*
X90632Y39386D01*
X90618Y39382D01*
X90493Y39309D01*
X90367Y39238D01*
X90357Y39228D01*
X90345Y39221D01*
X90224Y39115D01*
X89465Y38355D01*
X88474Y37365D01*
X88429Y37306D01*
X88375Y37254D01*
X88331Y37181D01*
X88279Y37114D01*
X88250Y37045D01*
X88211Y36981D01*
X88187Y36900D01*
X88153Y36822D01*
X88141Y36748D01*
X88120Y36677D01*
X88117Y36592D01*
X88103Y36508D01*
X88110Y36434D01*
X88107Y36359D01*
X88125Y36276D01*
X88133Y36191D01*
X88158Y36121D01*
X88174Y36048D01*
X88212Y35972D01*
X88241Y35892D01*
X88283Y35830D01*
X88316Y35763D01*
X88372Y35699D01*
X88419Y35629D01*
X88475Y35580D01*
X88524Y35523D01*
X88594Y35475D01*
X88658Y35419D01*
X88724Y35385D01*
X88786Y35342D01*
X88865Y35313D01*
X88941Y35274D01*
X89014Y35258D01*
X89084Y35232D01*
X89168Y35223D01*
X89251Y35204D01*
X89326Y35207D01*
X89400Y35199D01*
X89484Y35211D01*
X89569Y35214D01*
X89641Y35235D01*
X89715Y35246D01*
X89774Y35267D01*
X90132Y35122D01*
X90136Y35121D01*
X90140Y35118D01*
X90289Y35080D01*
X90440Y35040D01*
X90444Y35040D01*
X90448Y35039D01*
X90609Y35029D01*
X93324Y35029D01*
X95989Y32364D01*
X95989Y29649D01*
X95989Y29645D01*
X95989Y29640D01*
X96009Y29487D01*
X96029Y29333D01*
X96030Y29329D01*
X96031Y29325D01*
X96082Y29172D01*
X96223Y28823D01*
X95701Y27590D01*
X94993Y25915D01*
X94368Y25662D01*
X90645Y24153D01*
X90632Y24146D01*
X90618Y24142D01*
X90493Y24069D01*
X90367Y23998D01*
X90357Y23988D01*
X90345Y23981D01*
X90224Y23875D01*
X89465Y23115D01*
X88474Y22125D01*
X88429Y22066D01*
X88375Y22014D01*
X88331Y21941D01*
X88279Y21874D01*
X88250Y21805D01*
X88211Y21741D01*
X88187Y21660D01*
X88153Y21582D01*
X88141Y21508D01*
X88120Y21437D01*
X88117Y21352D01*
X88103Y21268D01*
X88110Y21194D01*
X88107Y21119D01*
X88125Y21036D01*
X88133Y20951D01*
X88158Y20881D01*
X88174Y20808D01*
X88212Y20732D01*
X88241Y20652D01*
X88283Y20590D01*
X88316Y20523D01*
X88372Y20459D01*
X88419Y20389D01*
X88475Y20340D01*
X88524Y20283D01*
X88594Y20235D01*
X88658Y20179D01*
X88724Y20145D01*
X88786Y20102D01*
X88865Y20073D01*
X88941Y20034D01*
X89014Y20018D01*
X89084Y19992D01*
X89168Y19983D01*
X89251Y19964D01*
X89326Y19967D01*
X89400Y19959D01*
X89484Y19971D01*
X89569Y19974D01*
X89641Y19995D01*
X89715Y20006D01*
X89774Y20027D01*
X90132Y19882D01*
X90136Y19881D01*
X90140Y19878D01*
X90290Y19840D01*
X90440Y19800D01*
X90444Y19800D01*
X90448Y19799D01*
X90609Y19789D01*
X93324Y19789D01*
X95989Y17124D01*
X95989Y14409D01*
X95989Y14405D01*
X95989Y14400D01*
X96009Y14246D01*
X96029Y14093D01*
X96030Y14089D01*
X96031Y14085D01*
X96082Y13932D01*
X96223Y13583D01*
X95701Y12350D01*
X94993Y10675D01*
X94368Y10422D01*
X90644Y8913D01*
X90632Y8906D01*
X90618Y8902D01*
X90493Y8829D01*
X90367Y8758D01*
X90357Y8748D01*
X90344Y8741D01*
X90224Y8634D01*
X89465Y7875D01*
X88474Y6885D01*
X88429Y6826D01*
X88375Y6774D01*
X88331Y6701D01*
X88279Y6634D01*
X88250Y6565D01*
X88211Y6501D01*
X88187Y6420D01*
X88153Y6342D01*
X88141Y6268D01*
X88120Y6197D01*
X88117Y6112D01*
X88103Y6028D01*
X88110Y5954D01*
X88107Y5879D01*
X88125Y5796D01*
X88133Y5711D01*
X88158Y5641D01*
X88174Y5568D01*
X88212Y5492D01*
X88241Y5412D01*
X88283Y5350D01*
X88316Y5283D01*
X88372Y5219D01*
X88419Y5149D01*
X88475Y5100D01*
X88524Y5043D01*
X88594Y4995D01*
X88658Y4939D01*
X88724Y4905D01*
X88786Y4862D01*
X88865Y4833D01*
X88941Y4794D01*
X89014Y4778D01*
X89084Y4752D01*
X89168Y4743D01*
X89251Y4724D01*
X89326Y4727D01*
X89400Y4719D01*
X89484Y4731D01*
X89569Y4734D01*
X89641Y4755D01*
X89715Y4766D01*
X89774Y4787D01*
X90132Y4642D01*
X90136Y4641D01*
X90140Y4638D01*
X90289Y4600D01*
X90440Y4560D01*
X90444Y4560D01*
X90448Y4559D01*
X90609Y4549D01*
X93324Y4549D01*
X95989Y1884D01*
X95989Y-831D01*
X95989Y-835D01*
X95989Y-840D01*
X96009Y-994D01*
X96029Y-1147D01*
X96030Y-1151D01*
X96031Y-1155D01*
X96082Y-1308D01*
X96223Y-1657D01*
X95561Y-3222D01*
X94993Y-4565D01*
X93676Y-5098D01*
X90645Y-6327D01*
X90632Y-6334D01*
X90619Y-6338D01*
X90494Y-6411D01*
X90367Y-6482D01*
X90357Y-6492D01*
X90345Y-6499D01*
X90224Y-6605D01*
X89465Y-7364D01*
X89465Y-7365D01*
X88474Y-8355D01*
X88429Y-8414D01*
X88375Y-8466D01*
X88331Y-8539D01*
X88279Y-8606D01*
X88250Y-8674D01*
X88211Y-8739D01*
X88187Y-8820D01*
X88153Y-8898D01*
X88141Y-8972D01*
X88120Y-9043D01*
X88117Y-9128D01*
X88103Y-9212D01*
X88110Y-9286D01*
X88107Y-9361D01*
X88125Y-9444D01*
X88133Y-9529D01*
X88158Y-9599D01*
X88174Y-9672D01*
X88212Y-9748D01*
X88241Y-9828D01*
X88283Y-9890D01*
X88316Y-9956D01*
X88372Y-10021D01*
X88419Y-10091D01*
X88475Y-10140D01*
X88524Y-10197D01*
X88594Y-10245D01*
X88658Y-10301D01*
X88724Y-10335D01*
X88786Y-10378D01*
X88865Y-10408D01*
X88941Y-10446D01*
X89014Y-10462D01*
X89084Y-10488D01*
X89168Y-10497D01*
X89251Y-10516D01*
X89326Y-10513D01*
X89400Y-10521D01*
X89484Y-10509D01*
X89569Y-10506D01*
X89641Y-10485D01*
X89715Y-10474D01*
X89775Y-10453D01*
X90132Y-10598D01*
X90137Y-10599D01*
X90140Y-10602D01*
X90290Y-10640D01*
X90440Y-10680D01*
X90444Y-10680D01*
X90448Y-10681D01*
X90609Y-10691D01*
X93324Y-10691D01*
X95989Y-13356D01*
X95989Y-16071D01*
X95989Y-16075D01*
X95989Y-16080D01*
X96009Y-16233D01*
X96029Y-16387D01*
X96030Y-16391D01*
X96031Y-16395D01*
X96082Y-16548D01*
X96223Y-16897D01*
X95561Y-18462D01*
X94993Y-19805D01*
X93676Y-20338D01*
X90645Y-21567D01*
X90632Y-21574D01*
X90619Y-21577D01*
X90494Y-21651D01*
X90367Y-21722D01*
X90357Y-21732D01*
X90345Y-21739D01*
X90224Y-21845D01*
X89442Y-22627D01*
X89396Y-22686D01*
X89343Y-22739D01*
X89299Y-22812D01*
X89247Y-22879D01*
X89217Y-22947D01*
X89179Y-23011D01*
X89154Y-23093D01*
X89120Y-23171D01*
X89109Y-23244D01*
X89087Y-23316D01*
X89084Y-23401D01*
X89071Y-23485D01*
X89078Y-23559D01*
X89075Y-23634D01*
X89092Y-23717D01*
X89100Y-23801D01*
X89126Y-23872D01*
X89141Y-23945D01*
X89179Y-24021D01*
X89208Y-24101D01*
X89250Y-24162D01*
X89283Y-24229D01*
X89339Y-24293D01*
X89387Y-24364D01*
X89443Y-24413D01*
X89491Y-24470D01*
X89561Y-24518D01*
X89625Y-24574D01*
X89691Y-24608D01*
X89753Y-24651D01*
X89833Y-24680D01*
X89908Y-24719D01*
X89981Y-24735D01*
X90051Y-24761D01*
X90136Y-24770D01*
X90219Y-24788D01*
X90293Y-24786D01*
X90367Y-24794D01*
X90451Y-24781D01*
X90536Y-24779D01*
X90608Y-24758D01*
X90682Y-24747D01*
X90714Y-24736D01*
X92191Y-25334D01*
X93650Y-25926D01*
X93797Y-26273D01*
X93800Y-26277D01*
X93801Y-26281D01*
X93879Y-26413D01*
X93957Y-26548D01*
X93960Y-26551D01*
X93962Y-26555D01*
X94069Y-26676D01*
X95989Y-28596D01*
X95989Y-32364D01*
X94069Y-34284D01*
X94066Y-34288D01*
X94063Y-34290D01*
X93970Y-34412D01*
X93874Y-34535D01*
X93872Y-34540D01*
X93869Y-34543D01*
X93797Y-34687D01*
X93650Y-35034D01*
X92200Y-35622D01*
X90724Y-36220D01*
X89157Y-35556D01*
X86414Y-34396D01*
X86381Y-34386D01*
X86351Y-34371D01*
X86229Y-34343D01*
X86108Y-34309D01*
X86074Y-34308D01*
X86040Y-34301D01*
X85915Y-34305D01*
X85790Y-34302D01*
X85757Y-34310D01*
X85723Y-34311D01*
X85603Y-34345D01*
X85481Y-34374D01*
X85450Y-34389D01*
X85417Y-34399D01*
X85309Y-34463D01*
X85198Y-34520D01*
X85173Y-34543D01*
X85143Y-34561D01*
X85022Y-34667D01*
X79947Y-39743D01*
X79861Y-39852D01*
X79773Y-39959D01*
X79764Y-39978D01*
X79752Y-39994D01*
X79696Y-40122D01*
X79637Y-40247D01*
X79633Y-40267D01*
X79625Y-40286D01*
X79603Y-40424D01*
X79577Y-40560D01*
X79579Y-40580D01*
X79576Y-40600D01*
X79589Y-40739D01*
X79597Y-40877D01*
X79603Y-40896D01*
X79605Y-40916D01*
X79653Y-41048D01*
X79695Y-41179D01*
X79706Y-41197D01*
X79713Y-41216D01*
X79791Y-41331D01*
X79865Y-41448D01*
X79880Y-41462D01*
X79892Y-41479D01*
X79996Y-41571D01*
X80097Y-41666D01*
X80115Y-41676D01*
X80130Y-41689D01*
X80254Y-41753D01*
X80376Y-41820D01*
X80395Y-41825D01*
X80413Y-41834D01*
X80549Y-41864D01*
X80683Y-41899D01*
X80712Y-41901D01*
X80723Y-41904D01*
X80744Y-41903D01*
X80844Y-41909D01*
X85171Y-41909D01*
X85185Y-41907D01*
X85199Y-41909D01*
X85343Y-41888D01*
X85487Y-41869D01*
X85500Y-41864D01*
X85514Y-41862D01*
X85666Y-41809D01*
X88391Y-40655D01*
X89986Y-39980D01*
X91453Y-40574D01*
X92912Y-41166D01*
X93059Y-41513D01*
X93062Y-41517D01*
X93063Y-41521D01*
X93141Y-41655D01*
X93219Y-41788D01*
X93222Y-41791D01*
X93224Y-41795D01*
X93331Y-41916D01*
X95251Y-43836D01*
X95251Y-47604D01*
X93331Y-49524D01*
X93328Y-49528D01*
X93325Y-49530D01*
X93232Y-49652D01*
X93136Y-49775D01*
X93134Y-49780D01*
X93131Y-49783D01*
X93059Y-49927D01*
X92912Y-50274D01*
X91462Y-50862D01*
X89986Y-51460D01*
X88419Y-50796D01*
X85666Y-49631D01*
X85652Y-49627D01*
X85640Y-49620D01*
X85500Y-49584D01*
X85360Y-49545D01*
X85346Y-49544D01*
X85332Y-49541D01*
X85171Y-49531D01*
X78304Y-49531D01*
X78206Y-49543D01*
X78107Y-49546D01*
X78049Y-49563D01*
X77989Y-49571D01*
X77897Y-49607D01*
X77801Y-49635D01*
X77749Y-49665D01*
X77693Y-49688D01*
X77613Y-49746D01*
X77528Y-49796D01*
X77452Y-49862D01*
X77436Y-49874D01*
X77428Y-49884D01*
X77407Y-49902D01*
X75238Y-52071D01*
X55444Y-52071D01*
X55346Y-52083D01*
X55247Y-52086D01*
X55189Y-52103D01*
X55129Y-52111D01*
X55037Y-52147D01*
X54941Y-52175D01*
X54889Y-52205D01*
X54833Y-52228D01*
X54753Y-52286D01*
X54668Y-52336D01*
X54592Y-52402D01*
X54576Y-52414D01*
X54568Y-52424D01*
X54547Y-52442D01*
X52007Y-54983D01*
X51921Y-55092D01*
X51833Y-55199D01*
X51824Y-55218D01*
X51812Y-55234D01*
X51756Y-55362D01*
X51697Y-55487D01*
X51693Y-55507D01*
X51685Y-55526D01*
X51663Y-55664D01*
X51637Y-55800D01*
X51639Y-55820D01*
X51636Y-55840D01*
X51649Y-55979D01*
X51657Y-56117D01*
X51663Y-56136D01*
X51665Y-56156D01*
X51713Y-56288D01*
X51755Y-56419D01*
X51766Y-56437D01*
X51773Y-56456D01*
X51851Y-56571D01*
X51925Y-56688D01*
X51940Y-56702D01*
X51952Y-56719D01*
X52056Y-56811D01*
X52157Y-56906D01*
X52175Y-56916D01*
X52190Y-56929D01*
X52314Y-56993D01*
X52436Y-57060D01*
X52455Y-57065D01*
X52473Y-57074D01*
X52609Y-57104D01*
X52743Y-57139D01*
X52772Y-57141D01*
X52783Y-57144D01*
X52804Y-57143D01*
X52904Y-57149D01*
X85909Y-57149D01*
X85923Y-57147D01*
X85937Y-57149D01*
X86081Y-57128D01*
X86225Y-57109D01*
X86238Y-57104D01*
X86252Y-57102D01*
X86404Y-57049D01*
X89129Y-55895D01*
X90724Y-55220D01*
X92191Y-55814D01*
X93650Y-56406D01*
X93797Y-56753D01*
X93800Y-56757D01*
X93801Y-56761D01*
X93879Y-56895D01*
X93957Y-57028D01*
X93960Y-57031D01*
X93962Y-57035D01*
X94069Y-57156D01*
X95989Y-59076D01*
X95989Y-62844D01*
X94069Y-64764D01*
X94066Y-64768D01*
X94063Y-64770D01*
X93970Y-64892D01*
X93874Y-65015D01*
X93872Y-65020D01*
X93869Y-65023D01*
X93797Y-65167D01*
X93650Y-65514D01*
X92200Y-66102D01*
X90724Y-66700D01*
X89157Y-66036D01*
X86404Y-64871D01*
X86390Y-64867D01*
X86378Y-64860D01*
X86238Y-64824D01*
X86098Y-64785D01*
X86084Y-64784D01*
X86070Y-64781D01*
X85909Y-64771D01*
X52904Y-64771D01*
X52806Y-64783D01*
X52707Y-64786D01*
X52649Y-64803D01*
X52589Y-64811D01*
X52497Y-64847D01*
X52401Y-64875D01*
X52349Y-64905D01*
X52293Y-64928D01*
X52213Y-64986D01*
X52128Y-65036D01*
X52052Y-65102D01*
X52036Y-65114D01*
X52028Y-65124D01*
X52007Y-65142D01*
X46927Y-70223D01*
X46841Y-70332D01*
X46753Y-70439D01*
X46744Y-70458D01*
X46732Y-70474D01*
X46676Y-70602D01*
X46617Y-70727D01*
X46613Y-70747D01*
X46605Y-70766D01*
X46583Y-70904D01*
X46557Y-71040D01*
X46559Y-71060D01*
X46556Y-71080D01*
X46569Y-71219D01*
X46577Y-71357D01*
X46583Y-71376D01*
X46585Y-71396D01*
X46633Y-71528D01*
X46675Y-71659D01*
X46686Y-71677D01*
X46693Y-71696D01*
X46771Y-71811D01*
X46845Y-71928D01*
X46860Y-71942D01*
X46872Y-71959D01*
X46976Y-72051D01*
X47077Y-72146D01*
X47095Y-72156D01*
X47110Y-72169D01*
X47234Y-72233D01*
X47356Y-72300D01*
X47375Y-72305D01*
X47393Y-72314D01*
X47529Y-72344D01*
X47663Y-72379D01*
X47692Y-72381D01*
X47703Y-72384D01*
X47724Y-72383D01*
X47824Y-72389D01*
X85909Y-72389D01*
X85923Y-72387D01*
X85937Y-72389D01*
X86081Y-72368D01*
X86225Y-72349D01*
X86238Y-72344D01*
X86252Y-72342D01*
X86404Y-72289D01*
X89129Y-71135D01*
X90724Y-70460D01*
X92191Y-71054D01*
X93650Y-71646D01*
X93797Y-71993D01*
X93800Y-71997D01*
X93801Y-72001D01*
X93879Y-72133D01*
X93957Y-72268D01*
X93960Y-72271D01*
X93962Y-72275D01*
X94069Y-72396D01*
X95989Y-74316D01*
X95989Y-78084D01*
X94069Y-80004D01*
X94066Y-80008D01*
X94063Y-80010D01*
X93970Y-80132D01*
X93874Y-80255D01*
X93872Y-80260D01*
X93869Y-80263D01*
X93797Y-80407D01*
X93650Y-80754D01*
X92200Y-81342D01*
X90724Y-81940D01*
X89157Y-81276D01*
X86404Y-80111D01*
X86390Y-80107D01*
X86378Y-80100D01*
X86238Y-80064D01*
X86098Y-80025D01*
X86084Y-80024D01*
X86070Y-80021D01*
X85909Y-80011D01*
X45284Y-80011D01*
X45186Y-80023D01*
X45087Y-80026D01*
X45029Y-80043D01*
X44969Y-80051D01*
X44877Y-80087D01*
X44781Y-80115D01*
X44729Y-80145D01*
X44673Y-80168D01*
X44593Y-80226D01*
X44508Y-80276D01*
X44432Y-80342D01*
X44416Y-80354D01*
X44408Y-80364D01*
X44387Y-80382D01*
X41369Y-83400D01*
X41312Y-83474D01*
X41247Y-83542D01*
X41215Y-83599D01*
X41174Y-83651D01*
X41170Y-83661D01*
X40635Y-84171D01*
X40538Y-84289D01*
X40439Y-84409D01*
X40437Y-84414D01*
X40434Y-84417D01*
X40369Y-84558D01*
X40303Y-84697D01*
X40302Y-84702D01*
X40300Y-84706D01*
X40272Y-84860D01*
X40243Y-85010D01*
X40244Y-85014D01*
X40243Y-85019D01*
X40254Y-85173D01*
X40263Y-85327D01*
X40265Y-85331D01*
X40265Y-85336D01*
X40314Y-85483D01*
X40361Y-85629D01*
X40364Y-85633D01*
X40365Y-85638D01*
X40448Y-85767D01*
X40531Y-85898D01*
X40535Y-85901D01*
X40537Y-85905D01*
X40650Y-86010D01*
X40763Y-86116D01*
X40767Y-86118D01*
X40771Y-86122D01*
X40908Y-86196D01*
X41041Y-86270D01*
X41046Y-86271D01*
X41050Y-86273D01*
X41202Y-86311D01*
X41349Y-86349D01*
X41356Y-86349D01*
X41359Y-86350D01*
X41367Y-86350D01*
X41510Y-86359D01*
X41651Y-86359D01*
X43518Y-87133D01*
X55107Y-98722D01*
X55881Y-100589D01*
X55881Y-102611D01*
X55107Y-104478D01*
X53678Y-105907D01*
X51811Y-106681D01*
X49789Y-106681D01*
X47922Y-105907D01*
X40993Y-98978D01*
X40958Y-98951D01*
X40928Y-98918D01*
X40833Y-98854D01*
X40742Y-98783D01*
X40701Y-98766D01*
X40663Y-98741D01*
X40555Y-98703D01*
X40450Y-98657D01*
X40406Y-98650D01*
X40363Y-98635D01*
X40249Y-98625D01*
X40136Y-98607D01*
X40091Y-98611D01*
X40047Y-98608D01*
X39934Y-98626D01*
X39819Y-98637D01*
X39777Y-98652D01*
X39733Y-98660D01*
X39628Y-98706D01*
X39520Y-98745D01*
X39483Y-98770D01*
X39442Y-98788D01*
X39352Y-98859D01*
X39257Y-98923D01*
X39227Y-98957D01*
X39192Y-98984D01*
X39122Y-99076D01*
X39046Y-99162D01*
X39026Y-99202D01*
X38999Y-99237D01*
X38927Y-99381D01*
X38124Y-101277D01*
X36931Y-104096D01*
X36927Y-104110D01*
X36920Y-104122D01*
X36884Y-104262D01*
X36845Y-104402D01*
X36844Y-104416D01*
X36841Y-104430D01*
X36831Y-104591D01*
X36831Y-108258D01*
X34662Y-110427D01*
X34602Y-110505D01*
X34534Y-110577D01*
X34505Y-110630D01*
X34468Y-110678D01*
X34428Y-110769D01*
X34380Y-110856D01*
X34365Y-110914D01*
X34341Y-110970D01*
X34326Y-111068D01*
X34301Y-111164D01*
X34295Y-111264D01*
X34291Y-111284D01*
X34293Y-111296D01*
X34291Y-111324D01*
X34291Y-128578D01*
X32005Y-130864D01*
X31997Y-130875D01*
X31986Y-130884D01*
X31900Y-131000D01*
X31811Y-131115D01*
X31805Y-131128D01*
X31796Y-131139D01*
X31727Y-131285D01*
X30255Y-134915D01*
X29965Y-135633D01*
X27980Y-136473D01*
X27057Y-136863D01*
X26708Y-136722D01*
X26703Y-136721D01*
X26700Y-136718D01*
X26551Y-136680D01*
X26400Y-136640D01*
X26396Y-136640D01*
X26392Y-136639D01*
X26231Y-136629D01*
X23516Y-136629D01*
X20851Y-133964D01*
X20851Y-131249D01*
X20851Y-131245D01*
X20851Y-131240D01*
X20831Y-131088D01*
X20811Y-130933D01*
X20810Y-130929D01*
X20809Y-130925D01*
X20758Y-130772D01*
X20617Y-130423D01*
X21847Y-127515D01*
X25877Y-125883D01*
X25907Y-125866D01*
X25939Y-125855D01*
X26045Y-125788D01*
X26154Y-125727D01*
X26179Y-125703D01*
X26208Y-125685D01*
X26294Y-125594D01*
X26384Y-125508D01*
X26402Y-125478D01*
X26426Y-125453D01*
X26486Y-125344D01*
X26553Y-125238D01*
X26563Y-125205D01*
X26580Y-125175D01*
X26611Y-125054D01*
X26649Y-124935D01*
X26650Y-124900D01*
X26659Y-124867D01*
X26669Y-124706D01*
X26669Y-118944D01*
X26652Y-118807D01*
X26639Y-118668D01*
X26632Y-118649D01*
X26629Y-118629D01*
X26578Y-118500D01*
X26531Y-118369D01*
X26520Y-118352D01*
X26512Y-118333D01*
X26431Y-118221D01*
X26353Y-118105D01*
X26337Y-118092D01*
X26326Y-118076D01*
X26218Y-117987D01*
X26114Y-117895D01*
X26096Y-117886D01*
X26081Y-117873D01*
X25955Y-117814D01*
X25831Y-117750D01*
X25811Y-117746D01*
X25793Y-117737D01*
X25657Y-117711D01*
X25521Y-117681D01*
X25500Y-117681D01*
X25481Y-117677D01*
X25342Y-117686D01*
X25203Y-117690D01*
X25183Y-117696D01*
X25163Y-117697D01*
X25031Y-117740D01*
X24897Y-117779D01*
X24880Y-117789D01*
X24861Y-117795D01*
X24743Y-117870D01*
X24623Y-117940D01*
X24602Y-117959D01*
X24592Y-117965D01*
X24578Y-117980D01*
X24503Y-118047D01*
X16818Y-125731D01*
X5531Y-125731D01*
X5517Y-125733D01*
X5503Y-125731D01*
X5359Y-125752D01*
X5215Y-125771D01*
X5202Y-125776D01*
X5188Y-125778D01*
X5036Y-125831D01*
X2217Y-127024D01*
X715Y-127660D01*
X-1408Y-126799D01*
X-2210Y-126474D01*
X-2357Y-126127D01*
X-2360Y-126123D01*
X-2361Y-126119D01*
X-2439Y-125987D01*
X-2517Y-125852D01*
X-2520Y-125849D01*
X-2522Y-125845D01*
X-2629Y-125724D01*
X-4549Y-123804D01*
X-4549Y-121920D01*
X-4564Y-121802D01*
X-4571Y-121683D01*
X-4584Y-121645D01*
X-4589Y-121604D01*
X-4632Y-121494D01*
X-4669Y-121381D01*
X-4691Y-121346D01*
X-4706Y-121309D01*
X-4775Y-121213D01*
X-4839Y-121112D01*
X-4869Y-121084D01*
X-4892Y-121051D01*
X-4984Y-120975D01*
X-5071Y-120894D01*
X-5106Y-120874D01*
X-5137Y-120849D01*
X-5245Y-120798D01*
X-5349Y-120740D01*
X-5389Y-120730D01*
X-5425Y-120713D01*
X-5542Y-120691D01*
X-5657Y-120661D01*
X-5717Y-120657D01*
X-5737Y-120653D01*
X-5758Y-120655D01*
X-5818Y-120651D01*
X-12249Y-120651D01*
X-12263Y-120653D01*
X-12277Y-120651D01*
X-12421Y-120672D01*
X-12565Y-120691D01*
X-12578Y-120696D01*
X-12592Y-120698D01*
X-12744Y-120751D01*
X-15497Y-121916D01*
X-17064Y-122580D01*
X-18540Y-121982D01*
X-19990Y-121394D01*
X-20137Y-121047D01*
X-20140Y-121043D01*
X-20141Y-121039D01*
X-20219Y-120907D01*
X-20297Y-120772D01*
X-20300Y-120769D01*
X-20302Y-120765D01*
X-20409Y-120644D01*
X-22329Y-118724D01*
X-22329Y-115878D01*
X-22336Y-115824D01*
X-22333Y-115769D01*
X-22355Y-115667D01*
X-22369Y-115563D01*
X-22389Y-115512D01*
X-22400Y-115459D01*
X-22447Y-115365D01*
X-22486Y-115267D01*
X-22518Y-115223D01*
X-22542Y-115174D01*
X-22611Y-115095D01*
X-22672Y-115010D01*
X-22715Y-114975D01*
X-22750Y-114934D01*
X-22837Y-114874D01*
X-22917Y-114807D01*
X-22967Y-114784D01*
X-23012Y-114752D01*
X-23110Y-114716D01*
X-23205Y-114671D01*
X-23259Y-114661D01*
X-23310Y-114642D01*
X-23414Y-114631D01*
X-23517Y-114612D01*
X-23572Y-114615D01*
X-23626Y-114609D01*
X-23730Y-114625D01*
X-23835Y-114631D01*
X-23887Y-114648D01*
X-23941Y-114656D01*
X-24093Y-114709D01*
X-24684Y-114960D01*
X-26160Y-114362D01*
X-27610Y-113774D01*
X-27757Y-113427D01*
X-27760Y-113423D01*
X-27761Y-113419D01*
X-27839Y-113287D01*
X-27917Y-113152D01*
X-27920Y-113149D01*
X-27922Y-113145D01*
X-28029Y-113024D01*
X-29949Y-111104D01*
X-29949Y-107336D01*
X-28029Y-105416D01*
X-28026Y-105412D01*
X-28023Y-105410D01*
X-27930Y-105288D01*
X-27834Y-105165D01*
X-27832Y-105161D01*
X-27829Y-105157D01*
X-27757Y-105013D01*
X-27610Y-104666D01*
X-26151Y-104074D01*
X-24684Y-103480D01*
X-23090Y-104155D01*
X-23089Y-104155D01*
X-20364Y-105309D01*
X-20350Y-105313D01*
X-20338Y-105320D01*
X-20198Y-105356D01*
X-20058Y-105395D01*
X-20044Y-105396D01*
X-20030Y-105399D01*
X-19869Y-105409D01*
X8056Y-105409D01*
X8154Y-105397D01*
X8253Y-105394D01*
X8311Y-105377D01*
X8371Y-105369D01*
X8463Y-105333D01*
X8559Y-105305D01*
X8611Y-105275D01*
X8667Y-105252D01*
X8747Y-105194D01*
X8832Y-105144D01*
X8908Y-105078D01*
X8924Y-105066D01*
X8932Y-105056D01*
X8953Y-105038D01*
X11058Y-102933D01*
X11118Y-102855D01*
X11186Y-102783D01*
X11215Y-102730D01*
X11252Y-102682D01*
X11292Y-102591D01*
X11340Y-102504D01*
X11355Y-102446D01*
X11379Y-102390D01*
X11394Y-102292D01*
X11419Y-102196D01*
X11425Y-102096D01*
X11429Y-102076D01*
X11427Y-102064D01*
X11429Y-102036D01*
X11429Y-82242D01*
X19113Y-74557D01*
X19199Y-74448D01*
X19287Y-74341D01*
X19296Y-74322D01*
X19308Y-74306D01*
X19364Y-74178D01*
X19423Y-74053D01*
X19427Y-74033D01*
X19435Y-74014D01*
X19457Y-73876D01*
X19483Y-73740D01*
X19481Y-73720D01*
X19484Y-73700D01*
X19471Y-73561D01*
X19463Y-73423D01*
X19457Y-73404D01*
X19455Y-73384D01*
X19407Y-73252D01*
X19365Y-73121D01*
X19354Y-73103D01*
X19347Y-73084D01*
X19269Y-72969D01*
X19195Y-72852D01*
X19180Y-72838D01*
X19168Y-72821D01*
X19064Y-72729D01*
X18963Y-72634D01*
X18945Y-72624D01*
X18930Y-72611D01*
X18806Y-72547D01*
X18684Y-72480D01*
X18665Y-72475D01*
X18647Y-72466D01*
X18511Y-72436D01*
X18377Y-72401D01*
X18348Y-72399D01*
X18337Y-72396D01*
X18316Y-72397D01*
X18216Y-72391D01*
X962Y-72391D01*
X-1642Y-69787D01*
X-13265Y-58164D01*
X-14024Y-57405D01*
X-14035Y-57397D01*
X-14044Y-57386D01*
X-14160Y-57299D01*
X-14275Y-57211D01*
X-14288Y-57205D01*
X-14299Y-57196D01*
X-14445Y-57127D01*
X-14763Y-56997D01*
X-14850Y-56975D01*
X-14933Y-56942D01*
X-15003Y-56934D01*
X-15071Y-56916D01*
X-15160Y-56915D01*
X-15249Y-56905D01*
X-15318Y-56914D01*
X-15389Y-56913D01*
X-15475Y-56935D01*
X-15564Y-56947D01*
X-15683Y-56986D01*
X-15697Y-56990D01*
X-15703Y-56993D01*
X-15717Y-56997D01*
X-16035Y-57127D01*
X-16048Y-57134D01*
X-16062Y-57138D01*
X-16187Y-57212D01*
X-16313Y-57282D01*
X-16323Y-57292D01*
X-16335Y-57299D01*
X-16456Y-57405D01*
X-17215Y-58164D01*
X-43775Y-84725D01*
X-43861Y-84834D01*
X-43949Y-84941D01*
X-43958Y-84960D01*
X-43970Y-84976D01*
X-44026Y-85104D01*
X-44085Y-85229D01*
X-44089Y-85249D01*
X-44097Y-85268D01*
X-44119Y-85406D01*
X-44145Y-85542D01*
X-44143Y-85562D01*
X-44146Y-85582D01*
X-44133Y-85721D01*
X-44125Y-85859D01*
X-44119Y-85878D01*
X-44117Y-85898D01*
X-44069Y-86030D01*
X-44027Y-86161D01*
X-44016Y-86179D01*
X-44009Y-86198D01*
X-43931Y-86313D01*
X-43857Y-86430D01*
X-43842Y-86444D01*
X-43830Y-86461D01*
X-43726Y-86553D01*
X-43625Y-86648D01*
X-43607Y-86658D01*
X-43592Y-86671D01*
X-43468Y-86735D01*
X-43346Y-86802D01*
X-43327Y-86807D01*
X-43309Y-86816D01*
X-43173Y-86846D01*
X-43039Y-86881D01*
X-43010Y-86883D01*
X-42999Y-86886D01*
X-42978Y-86885D01*
X-42878Y-86891D01*
X-39540Y-86891D01*
X-39506Y-86887D01*
X-39472Y-86889D01*
X-39349Y-86867D01*
X-39225Y-86851D01*
X-39193Y-86839D01*
X-39159Y-86833D01*
X-39045Y-86780D01*
X-38929Y-86734D01*
X-38901Y-86714D01*
X-38870Y-86700D01*
X-38773Y-86621D01*
X-38672Y-86548D01*
X-38650Y-86521D01*
X-38623Y-86499D01*
X-38549Y-86399D01*
X-38469Y-86303D01*
X-38454Y-86271D01*
X-38434Y-86244D01*
X-38364Y-86099D01*
X-37899Y-84952D01*
X-37574Y-84150D01*
X-37227Y-84003D01*
X-37223Y-84000D01*
X-37219Y-83999D01*
X-37088Y-83922D01*
X-36952Y-83843D01*
X-36949Y-83840D01*
X-36945Y-83838D01*
X-36824Y-83731D01*
X-34904Y-81811D01*
X-31136Y-81811D01*
X-29216Y-83731D01*
X-29213Y-83734D01*
X-29210Y-83737D01*
X-29087Y-83831D01*
X-28965Y-83926D01*
X-28961Y-83928D01*
X-28957Y-83931D01*
X-28813Y-84003D01*
X-28466Y-84150D01*
X-27280Y-87075D01*
X-28143Y-89113D01*
X-28143Y-89114D01*
X-29109Y-91396D01*
X-29113Y-91410D01*
X-29120Y-91422D01*
X-29156Y-91562D01*
X-29195Y-91702D01*
X-29196Y-91716D01*
X-29199Y-91730D01*
X-29209Y-91891D01*
X-29209Y-100638D01*
X-33918Y-105347D01*
X-33978Y-105425D01*
X-34046Y-105497D01*
X-34075Y-105550D01*
X-34112Y-105598D01*
X-34152Y-105689D01*
X-34200Y-105776D01*
X-34215Y-105834D01*
X-34239Y-105890D01*
X-34254Y-105988D01*
X-34279Y-106084D01*
X-34285Y-106184D01*
X-34289Y-106204D01*
X-34287Y-106216D01*
X-34289Y-106244D01*
X-34289Y-116843D01*
X-34283Y-116893D01*
X-34285Y-116944D01*
X-34263Y-117051D01*
X-34260Y-117072D01*
X-34260Y-117077D01*
X-34260Y-117079D01*
X-34249Y-117158D01*
X-34231Y-117206D01*
X-34220Y-117255D01*
X-34172Y-117353D01*
X-34162Y-117378D01*
X-34162Y-117379D01*
X-34162Y-117380D01*
X-34132Y-117454D01*
X-34103Y-117495D01*
X-34080Y-117541D01*
X-34009Y-117623D01*
X-33994Y-117644D01*
X-33992Y-117648D01*
X-33991Y-117649D01*
X-33946Y-117711D01*
X-33906Y-117744D01*
X-33873Y-117782D01*
X-33784Y-117845D01*
X-33771Y-117856D01*
X-33760Y-117866D01*
X-33756Y-117868D01*
X-33701Y-117914D01*
X-33655Y-117936D01*
X-33613Y-117965D01*
X-33511Y-118004D01*
X-33510Y-118004D01*
X-33482Y-118020D01*
X-33471Y-118022D01*
X-33413Y-118050D01*
X-33363Y-118059D01*
X-33315Y-118077D01*
X-33216Y-118088D01*
X-33174Y-118099D01*
X-33146Y-118101D01*
X-33101Y-118110D01*
X-33054Y-118107D01*
X-33039Y-118108D01*
X-32999Y-118112D01*
X-32980Y-118109D01*
X-30739Y-118109D01*
X-28872Y-118883D01*
X-27443Y-120312D01*
X-27340Y-120560D01*
X-27335Y-120568D01*
X-27333Y-120577D01*
X-27257Y-120706D01*
X-27182Y-120836D01*
X-27176Y-120843D01*
X-27171Y-120851D01*
X-27065Y-120972D01*
X-21093Y-126944D01*
X-20319Y-128811D01*
X-20319Y-147230D01*
X-20307Y-147328D01*
X-20304Y-147427D01*
X-20287Y-147485D01*
X-20279Y-147545D01*
X-20243Y-147637D01*
X-20215Y-147732D01*
X-20185Y-147785D01*
X-20162Y-147841D01*
X-20104Y-147921D01*
X-20054Y-148006D01*
X-19988Y-148082D01*
X-19976Y-148098D01*
X-19966Y-148106D01*
X-19948Y-148127D01*
X-18587Y-149488D01*
X-18509Y-149548D01*
X-18437Y-149616D01*
X-18384Y-149645D01*
X-18336Y-149682D01*
X-18245Y-149722D01*
X-18158Y-149770D01*
X-18100Y-149785D01*
X-18044Y-149809D01*
X-17946Y-149824D01*
X-17850Y-149849D01*
X-17750Y-149855D01*
X-17730Y-149859D01*
X-17718Y-149857D01*
X-17690Y-149859D01*
X51811Y-149859D01*
X53678Y-150633D01*
X55107Y-152062D01*
X55881Y-153929D01*
X55881Y-155951D01*
X55107Y-157818D01*
X53678Y-159247D01*
X51811Y-160021D01*
X-21331Y-160021D01*
X-23198Y-159247D01*
X-29707Y-152738D01*
X-30481Y-150871D01*
X-30481Y-132452D01*
X-30493Y-132354D01*
X-30496Y-132255D01*
X-30513Y-132197D01*
X-30521Y-132137D01*
X-30557Y-132045D01*
X-30585Y-131950D01*
X-30615Y-131897D01*
X-30638Y-131841D01*
X-30696Y-131761D01*
X-30746Y-131676D01*
X-30812Y-131600D01*
X-30824Y-131584D01*
X-30834Y-131576D01*
X-30852Y-131555D01*
X-32123Y-130285D01*
X-32232Y-130200D01*
X-32339Y-130111D01*
X-32358Y-130102D01*
X-32374Y-130090D01*
X-32501Y-130035D01*
X-32627Y-129975D01*
X-32647Y-129972D01*
X-32666Y-129963D01*
X-32804Y-129942D01*
X-32940Y-129916D01*
X-32960Y-129917D01*
X-32980Y-129914D01*
X-33119Y-129927D01*
X-33257Y-129935D01*
X-33276Y-129941D01*
X-33296Y-129943D01*
X-33428Y-129991D01*
X-33559Y-130033D01*
X-33577Y-130044D01*
X-33596Y-130051D01*
X-33711Y-130129D01*
X-33828Y-130203D01*
X-33842Y-130218D01*
X-33859Y-130230D01*
X-33951Y-130334D01*
X-34046Y-130435D01*
X-34056Y-130453D01*
X-34069Y-130468D01*
X-34133Y-130592D01*
X-34200Y-130714D01*
X-34205Y-130733D01*
X-34214Y-130751D01*
X-34244Y-130887D01*
X-34279Y-131022D01*
X-34281Y-131050D01*
X-34284Y-131062D01*
X-34283Y-131082D01*
X-34289Y-131182D01*
X-34289Y-218876D01*
X-34277Y-218974D01*
X-34274Y-219073D01*
X-34257Y-219131D01*
X-34249Y-219191D01*
X-34213Y-219283D01*
X-34185Y-219379D01*
X-34155Y-219431D01*
X-34132Y-219487D01*
X-34074Y-219567D01*
X-34024Y-219652D01*
X-33958Y-219728D01*
X-33946Y-219744D01*
X-33936Y-219752D01*
X-33918Y-219773D01*
X-11493Y-242198D01*
X-11415Y-242258D01*
X-11343Y-242326D01*
X-11290Y-242355D01*
X-11242Y-242392D01*
X-11151Y-242432D01*
X-11064Y-242480D01*
X-11006Y-242495D01*
X-10950Y-242519D01*
X-10852Y-242534D01*
X-10756Y-242559D01*
X-10656Y-242565D01*
X-10636Y-242569D01*
X-10624Y-242567D01*
X-10596Y-242569D01*
X6658Y-242569D01*
X9262Y-245173D01*
X58351Y-294262D01*
X58375Y-294280D01*
X58394Y-294303D01*
X58500Y-294377D01*
X58602Y-294457D01*
X58630Y-294469D01*
X58654Y-294486D01*
X58775Y-294532D01*
X58894Y-294583D01*
X58923Y-294588D01*
X58951Y-294598D01*
X59080Y-294613D01*
X59208Y-294633D01*
X59238Y-294630D01*
X59267Y-294634D01*
X59396Y-294615D01*
X59525Y-294603D01*
X59553Y-294593D01*
X59582Y-294589D01*
X59734Y-294537D01*
X61327Y-293877D01*
X65673Y-293877D01*
X69687Y-295540D01*
X72760Y-298613D01*
X74423Y-302627D01*
X74423Y-306973D01*
X72760Y-310987D01*
X69687Y-314060D01*
X65673Y-315723D01*
X61327Y-315723D01*
X57313Y-314060D01*
X54240Y-310987D01*
X52577Y-306973D01*
X52577Y-302627D01*
X53237Y-301034D01*
X53245Y-301006D01*
X53258Y-300980D01*
X53287Y-300853D01*
X53321Y-300728D01*
X53322Y-300698D01*
X53328Y-300669D01*
X53324Y-300540D01*
X53326Y-300410D01*
X53319Y-300381D01*
X53318Y-300351D01*
X53282Y-300227D01*
X53252Y-300100D01*
X53238Y-300074D01*
X53230Y-300046D01*
X53164Y-299934D01*
X53103Y-299819D01*
X53083Y-299797D01*
X53068Y-299772D01*
X52962Y-299651D01*
X3873Y-250562D01*
X3795Y-250502D01*
X3723Y-250434D01*
X3670Y-250405D01*
X3622Y-250368D01*
X3531Y-250328D01*
X3444Y-250280D01*
X3386Y-250265D01*
X3330Y-250241D01*
X3232Y-250226D01*
X3136Y-250201D01*
X3036Y-250195D01*
X3016Y-250191D01*
X3004Y-250193D01*
X2976Y-250191D01*
X-8056Y-250191D01*
X-8193Y-250208D01*
X-8332Y-250221D01*
X-8351Y-250228D01*
X-8371Y-250231D01*
X-8500Y-250282D01*
X-8631Y-250329D01*
X-8648Y-250340D01*
X-8667Y-250348D01*
X-8779Y-250429D01*
X-8895Y-250507D01*
X-8908Y-250523D01*
X-8924Y-250534D01*
X-9013Y-250642D01*
X-9105Y-250746D01*
X-9114Y-250764D01*
X-9127Y-250779D01*
X-9186Y-250905D01*
X-9250Y-251029D01*
X-9254Y-251049D01*
X-9263Y-251067D01*
X-9289Y-251203D01*
X-9319Y-251339D01*
X-9319Y-251360D01*
X-9323Y-251379D01*
X-9314Y-251518D01*
X-9310Y-251657D01*
X-9304Y-251677D01*
X-9303Y-251697D01*
X-9260Y-251829D01*
X-9221Y-251963D01*
X-9211Y-251980D01*
X-9205Y-251999D01*
X-9130Y-252117D01*
X-9060Y-252237D01*
X-9041Y-252258D01*
X-9035Y-252268D01*
X-9020Y-252282D01*
X-8953Y-252357D01*
X32951Y-294262D01*
X32975Y-294280D01*
X32994Y-294303D01*
X33100Y-294377D01*
X33202Y-294457D01*
X33230Y-294469D01*
X33254Y-294486D01*
X33375Y-294532D01*
X33494Y-294583D01*
X33523Y-294588D01*
X33551Y-294598D01*
X33680Y-294613D01*
X33808Y-294633D01*
X33838Y-294630D01*
X33867Y-294634D01*
X33996Y-294615D01*
X34125Y-294603D01*
X34153Y-294593D01*
X34182Y-294589D01*
X34334Y-294537D01*
X35927Y-293877D01*
X40273Y-293877D01*
X44287Y-295540D01*
X47360Y-298613D01*
X49023Y-302627D01*
X49023Y-306973D01*
X47360Y-310987D01*
X44287Y-314060D01*
X40273Y-315723D01*
X35927Y-315723D01*
X31913Y-314060D01*
X28840Y-310987D01*
X27177Y-306973D01*
X27177Y-302627D01*
X27837Y-301034D01*
X27845Y-301006D01*
X27858Y-300980D01*
X27887Y-300853D01*
X27921Y-300728D01*
X27922Y-300698D01*
X27928Y-300669D01*
X27924Y-300540D01*
X27926Y-300410D01*
X27919Y-300381D01*
X27918Y-300351D01*
X27882Y-300227D01*
X27852Y-300100D01*
X27838Y-300074D01*
X27830Y-300046D01*
X27764Y-299934D01*
X27703Y-299819D01*
X27683Y-299797D01*
X27668Y-299772D01*
X27562Y-299651D01*
X-42283Y-229807D01*
X-42392Y-229721D01*
X-42499Y-229633D01*
X-42518Y-229624D01*
X-42534Y-229612D01*
X-42662Y-229556D01*
X-42787Y-229497D01*
X-42807Y-229493D01*
X-42826Y-229485D01*
X-42964Y-229463D01*
X-43100Y-229437D01*
X-43120Y-229439D01*
X-43140Y-229436D01*
X-43279Y-229449D01*
X-43417Y-229457D01*
X-43436Y-229463D01*
X-43456Y-229465D01*
X-43588Y-229513D01*
X-43719Y-229555D01*
X-43737Y-229566D01*
X-43756Y-229573D01*
X-43871Y-229651D01*
X-43988Y-229725D01*
X-44002Y-229740D01*
X-44019Y-229752D01*
X-44111Y-229856D01*
X-44206Y-229957D01*
X-44216Y-229975D01*
X-44229Y-229990D01*
X-44293Y-230114D01*
X-44360Y-230236D01*
X-44365Y-230255D01*
X-44374Y-230273D01*
X-44404Y-230409D01*
X-44439Y-230543D01*
X-44441Y-230572D01*
X-44444Y-230583D01*
X-44443Y-230604D01*
X-44449Y-230704D01*
X-44449Y-241736D01*
X-44437Y-241834D01*
X-44434Y-241933D01*
X-44417Y-241991D01*
X-44409Y-242051D01*
X-44373Y-242143D01*
X-44345Y-242239D01*
X-44315Y-242291D01*
X-44292Y-242347D01*
X-44234Y-242427D01*
X-44184Y-242512D01*
X-44118Y-242588D01*
X-44106Y-242604D01*
X-44096Y-242612D01*
X-44078Y-242633D01*
X7551Y-294262D01*
X7575Y-294280D01*
X7594Y-294303D01*
X7700Y-294377D01*
X7802Y-294457D01*
X7830Y-294469D01*
X7854Y-294486D01*
X7975Y-294532D01*
X8094Y-294583D01*
X8123Y-294588D01*
X8151Y-294598D01*
X8280Y-294613D01*
X8408Y-294633D01*
X8438Y-294630D01*
X8467Y-294634D01*
X8596Y-294615D01*
X8725Y-294603D01*
X8753Y-294593D01*
X8782Y-294589D01*
X8934Y-294537D01*
X10527Y-293877D01*
X14873Y-293877D01*
X18887Y-295540D01*
X21960Y-298613D01*
X23623Y-302627D01*
X23623Y-306973D01*
X21960Y-310987D01*
X18887Y-314060D01*
X14873Y-315723D01*
X10527Y-315723D01*
X6513Y-314060D01*
X3440Y-310987D01*
X1777Y-306973D01*
X1777Y-302627D01*
X2437Y-301034D01*
X2445Y-301006D01*
X2458Y-300980D01*
X2487Y-300853D01*
X2521Y-300728D01*
X2522Y-300698D01*
X2528Y-300669D01*
X2524Y-300540D01*
X2526Y-300410D01*
X2519Y-300381D01*
X2518Y-300351D01*
X2482Y-300227D01*
X2452Y-300100D01*
X2438Y-300074D01*
X2430Y-300046D01*
X2364Y-299934D01*
X2303Y-299819D01*
X2283Y-299797D01*
X2268Y-299772D01*
X2162Y-299651D01*
X-47363Y-250127D01*
X-47472Y-250041D01*
X-47579Y-249953D01*
X-47598Y-249944D01*
X-47614Y-249932D01*
X-47742Y-249876D01*
X-47867Y-249817D01*
X-47887Y-249813D01*
X-47906Y-249805D01*
X-48044Y-249783D01*
X-48180Y-249757D01*
X-48200Y-249759D01*
X-48220Y-249756D01*
X-48359Y-249769D01*
X-48497Y-249777D01*
X-48516Y-249783D01*
X-48536Y-249785D01*
X-48668Y-249833D01*
X-48799Y-249875D01*
X-48817Y-249886D01*
X-48836Y-249893D01*
X-48951Y-249971D01*
X-49068Y-250045D01*
X-49082Y-250060D01*
X-49099Y-250072D01*
X-49191Y-250176D01*
X-49286Y-250277D01*
X-49296Y-250295D01*
X-49309Y-250310D01*
X-49373Y-250434D01*
X-49440Y-250556D01*
X-49445Y-250575D01*
X-49454Y-250593D01*
X-49484Y-250729D01*
X-49519Y-250863D01*
X-49521Y-250892D01*
X-49524Y-250903D01*
X-49523Y-250924D01*
X-49529Y-251024D01*
X-49529Y-262056D01*
X-49517Y-262154D01*
X-49514Y-262253D01*
X-49497Y-262311D01*
X-49489Y-262371D01*
X-49453Y-262463D01*
X-49425Y-262559D01*
X-49395Y-262611D01*
X-49372Y-262667D01*
X-49314Y-262747D01*
X-49264Y-262832D01*
X-49198Y-262908D01*
X-49186Y-262924D01*
X-49176Y-262932D01*
X-49158Y-262953D01*
X-17849Y-294262D01*
X-17825Y-294280D01*
X-17806Y-294303D01*
X-17700Y-294377D01*
X-17598Y-294457D01*
X-17570Y-294469D01*
X-17546Y-294486D01*
X-17425Y-294532D01*
X-17306Y-294583D01*
X-17277Y-294588D01*
X-17249Y-294598D01*
X-17120Y-294613D01*
X-16992Y-294633D01*
X-16962Y-294630D01*
X-16933Y-294634D01*
X-16804Y-294615D01*
X-16675Y-294603D01*
X-16647Y-294593D01*
X-16618Y-294589D01*
X-16466Y-294537D01*
X-14873Y-293877D01*
X-10527Y-293877D01*
X-6513Y-295540D01*
X-3440Y-298613D01*
X-1777Y-302627D01*
X-1777Y-306973D01*
X-3440Y-310987D01*
X-6513Y-314060D01*
X-10527Y-315723D01*
X-14873Y-315723D01*
X-18887Y-314060D01*
X-21960Y-310987D01*
X-23623Y-306973D01*
X-23623Y-302627D01*
X-22963Y-301034D01*
X-22955Y-301006D01*
X-22942Y-300980D01*
X-22913Y-300853D01*
X-22879Y-300728D01*
X-22878Y-300698D01*
X-22872Y-300669D01*
X-22876Y-300540D01*
X-22874Y-300410D01*
X-22881Y-300381D01*
X-22882Y-300351D01*
X-22918Y-300227D01*
X-22948Y-300100D01*
X-22962Y-300074D01*
X-22970Y-300046D01*
X-23036Y-299934D01*
X-23097Y-299819D01*
X-23117Y-299797D01*
X-23132Y-299772D01*
X-23238Y-299651D01*
X-52443Y-270447D01*
X-52552Y-270361D01*
X-52659Y-270273D01*
X-52678Y-270264D01*
X-52694Y-270252D01*
X-52822Y-270196D01*
X-52947Y-270137D01*
X-52967Y-270133D01*
X-52986Y-270125D01*
X-53124Y-270103D01*
X-53260Y-270077D01*
X-53280Y-270079D01*
X-53300Y-270076D01*
X-53439Y-270089D01*
X-53577Y-270097D01*
X-53596Y-270103D01*
X-53616Y-270105D01*
X-53748Y-270153D01*
X-53879Y-270195D01*
X-53897Y-270206D01*
X-53916Y-270213D01*
X-54031Y-270291D01*
X-54148Y-270365D01*
X-54162Y-270380D01*
X-54179Y-270392D01*
X-54271Y-270496D01*
X-54366Y-270597D01*
X-54376Y-270615D01*
X-54389Y-270630D01*
X-54453Y-270754D01*
X-54520Y-270876D01*
X-54525Y-270895D01*
X-54534Y-270913D01*
X-54564Y-271049D01*
X-54599Y-271183D01*
X-54601Y-271212D01*
X-54604Y-271223D01*
X-54603Y-271244D01*
X-54609Y-271344D01*
X-54609Y-282376D01*
X-54597Y-282474D01*
X-54594Y-282573D01*
X-54577Y-282631D01*
X-54569Y-282691D01*
X-54533Y-282783D01*
X-54505Y-282879D01*
X-54475Y-282931D01*
X-54452Y-282987D01*
X-54394Y-283067D01*
X-54344Y-283152D01*
X-54278Y-283228D01*
X-54266Y-283244D01*
X-54256Y-283252D01*
X-54238Y-283273D01*
X-43249Y-294262D01*
X-43225Y-294280D01*
X-43206Y-294303D01*
X-43100Y-294377D01*
X-42998Y-294457D01*
X-42970Y-294469D01*
X-42946Y-294486D01*
X-42825Y-294532D01*
X-42706Y-294583D01*
X-42677Y-294588D01*
X-42649Y-294598D01*
X-42520Y-294613D01*
X-42392Y-294633D01*
X-42362Y-294630D01*
X-42333Y-294634D01*
X-42204Y-294615D01*
X-42075Y-294603D01*
X-42047Y-294593D01*
X-42018Y-294589D01*
X-41866Y-294537D01*
X-40273Y-293877D01*
X-35927Y-293877D01*
X-31913Y-295540D01*
X-28840Y-298613D01*
X-27177Y-302627D01*
X-27177Y-306973D01*
X-28840Y-310987D01*
X-31913Y-314060D01*
X-35927Y-315723D01*
X-40273Y-315723D01*
X-44287Y-314060D01*
X-47360Y-310987D01*
X-49023Y-306973D01*
X-49023Y-302627D01*
X-48363Y-301034D01*
X-48355Y-301006D01*
X-48342Y-300980D01*
X-48313Y-300853D01*
X-48279Y-300728D01*
X-48278Y-300698D01*
X-48272Y-300669D01*
X-48276Y-300540D01*
X-48274Y-300410D01*
X-48281Y-300381D01*
X-48282Y-300351D01*
X-48318Y-300227D01*
X-48348Y-300100D01*
X-48362Y-300074D01*
X-48370Y-300046D01*
X-48436Y-299934D01*
X-48497Y-299819D01*
X-48517Y-299797D01*
X-48532Y-299772D01*
X-48638Y-299651D01*
X-57523Y-290767D01*
X-57632Y-290681D01*
X-57739Y-290593D01*
X-57758Y-290584D01*
X-57774Y-290572D01*
X-57902Y-290516D01*
X-58027Y-290457D01*
X-58047Y-290453D01*
X-58066Y-290445D01*
X-58204Y-290423D01*
X-58340Y-290397D01*
X-58360Y-290399D01*
X-58380Y-290396D01*
X-58519Y-290409D01*
X-58657Y-290417D01*
X-58676Y-290423D01*
X-58696Y-290425D01*
X-58828Y-290473D01*
X-58959Y-290515D01*
X-58977Y-290526D01*
X-58996Y-290533D01*
X-59111Y-290611D01*
X-59228Y-290685D01*
X-59242Y-290700D01*
X-59259Y-290712D01*
X-59351Y-290816D01*
X-59446Y-290917D01*
X-59456Y-290935D01*
X-59469Y-290950D01*
X-59533Y-291074D01*
X-59600Y-291196D01*
X-59605Y-291215D01*
X-59614Y-291233D01*
X-59644Y-291369D01*
X-59679Y-291503D01*
X-59681Y-291532D01*
X-59684Y-291543D01*
X-59683Y-291564D01*
X-59689Y-291664D01*
X-59689Y-293708D01*
X-59686Y-293737D01*
X-59688Y-293766D01*
X-59666Y-293895D01*
X-59649Y-294023D01*
X-59639Y-294051D01*
X-59634Y-294080D01*
X-59580Y-294198D01*
X-59532Y-294319D01*
X-59515Y-294343D01*
X-59503Y-294370D01*
X-59422Y-294471D01*
X-59346Y-294576D01*
X-59323Y-294595D01*
X-59304Y-294618D01*
X-59201Y-294696D01*
X-59101Y-294779D01*
X-59074Y-294792D01*
X-59050Y-294809D01*
X-58906Y-294880D01*
X-57313Y-295540D01*
X-54240Y-298613D01*
X-52577Y-302627D01*
X-52577Y-306973D01*
X-54240Y-310987D01*
X-57313Y-314060D01*
X-61327Y-315723D01*
X-65673Y-315723D01*
X-69687Y-314060D01*
X-71493Y-312255D01*
X-71602Y-312169D01*
X-71709Y-312081D01*
X-71728Y-312072D01*
X-71744Y-312060D01*
X-71872Y-312004D01*
X-71997Y-311945D01*
X-72017Y-311941D01*
X-72036Y-311933D01*
X-72174Y-311911D01*
X-72310Y-311885D01*
X-72330Y-311887D01*
X-72350Y-311883D01*
X-72489Y-311896D01*
X-72627Y-311905D01*
X-72646Y-311911D01*
X-72666Y-311913D01*
X-72798Y-311960D01*
X-72929Y-312003D01*
X-72947Y-312014D01*
X-72966Y-312021D01*
X-73081Y-312099D01*
X-73198Y-312173D01*
X-73212Y-312188D01*
X-73229Y-312199D01*
X-73321Y-312304D01*
X-73416Y-312405D01*
X-73426Y-312423D01*
X-73439Y-312438D01*
X-73503Y-312562D01*
X-73570Y-312683D01*
X-73575Y-312703D01*
X-73584Y-312721D01*
X-73614Y-312857D01*
X-73649Y-312991D01*
X-73651Y-313019D01*
X-73654Y-313031D01*
X-73653Y-313052D01*
X-73659Y-313152D01*
X-73659Y-320411D01*
X-73642Y-320549D01*
X-73629Y-320688D01*
X-73622Y-320707D01*
X-73619Y-320727D01*
X-73568Y-320856D01*
X-73521Y-320987D01*
X-73510Y-321004D01*
X-73502Y-321022D01*
X-73421Y-321135D01*
X-73343Y-321250D01*
X-73327Y-321263D01*
X-73316Y-321280D01*
X-73208Y-321368D01*
X-73104Y-321460D01*
X-73086Y-321470D01*
X-73071Y-321483D01*
X-72945Y-321542D01*
X-72821Y-321605D01*
X-72801Y-321609D01*
X-72783Y-321618D01*
X-72647Y-321644D01*
X-72511Y-321675D01*
X-72490Y-321674D01*
X-72471Y-321678D01*
X-72332Y-321669D01*
X-72193Y-321665D01*
X-72173Y-321659D01*
X-72153Y-321658D01*
X-72021Y-321615D01*
X-71887Y-321577D01*
X-71870Y-321566D01*
X-71851Y-321560D01*
X-71733Y-321486D01*
X-71613Y-321415D01*
X-71592Y-321396D01*
X-71582Y-321390D01*
X-71568Y-321375D01*
X-71492Y-321309D01*
X-71278Y-321094D01*
X-69757Y-319989D01*
X-68083Y-319136D01*
X-66296Y-318555D01*
X-66039Y-318515D01*
X-66039Y-328930D01*
X-66024Y-329048D01*
X-66017Y-329167D01*
X-66004Y-329205D01*
X-65999Y-329245D01*
X-65956Y-329356D01*
X-65919Y-329469D01*
X-65897Y-329503D01*
X-65882Y-329541D01*
X-65812Y-329637D01*
X-65749Y-329738D01*
X-65719Y-329766D01*
X-65695Y-329798D01*
X-65604Y-329874D01*
X-65517Y-329956D01*
X-65482Y-329975D01*
X-65451Y-330001D01*
X-65343Y-330052D01*
X-65239Y-330109D01*
X-65199Y-330120D01*
X-65163Y-330137D01*
X-65046Y-330159D01*
X-64931Y-330189D01*
X-64870Y-330193D01*
X-64850Y-330197D01*
X-64830Y-330195D01*
X-64770Y-330199D01*
X-63499Y-330199D01*
X-63499Y-331470D01*
X-63484Y-331588D01*
X-63477Y-331707D01*
X-63464Y-331745D01*
X-63459Y-331785D01*
X-63415Y-331896D01*
X-63379Y-332009D01*
X-63357Y-332044D01*
X-63342Y-332081D01*
X-63272Y-332177D01*
X-63209Y-332278D01*
X-63179Y-332306D01*
X-63155Y-332339D01*
X-63064Y-332414D01*
X-62977Y-332496D01*
X-62942Y-332516D01*
X-62910Y-332541D01*
X-62803Y-332592D01*
X-62698Y-332650D01*
X-62659Y-332660D01*
X-62623Y-332677D01*
X-62506Y-332699D01*
X-62391Y-332729D01*
X-62330Y-332733D01*
X-62310Y-332737D01*
X-62290Y-332735D01*
X-62230Y-332739D01*
X-51815Y-332739D01*
X-51855Y-332996D01*
X-52436Y-334783D01*
X-53289Y-336457D01*
X-54394Y-337978D01*
X-54609Y-338192D01*
X-54694Y-338302D01*
X-54783Y-338409D01*
X-54791Y-338428D01*
X-54804Y-338444D01*
X-54859Y-338572D01*
X-54918Y-338697D01*
X-54922Y-338717D01*
X-54930Y-338736D01*
X-54952Y-338873D01*
X-54978Y-339010D01*
X-54977Y-339030D01*
X-54980Y-339050D01*
X-54967Y-339188D01*
X-54958Y-339327D01*
X-54952Y-339346D01*
X-54950Y-339366D01*
X-54903Y-339497D01*
X-54860Y-339629D01*
X-54849Y-339647D01*
X-54842Y-339666D01*
X-54764Y-339781D01*
X-54690Y-339898D01*
X-54675Y-339912D01*
X-54664Y-339929D01*
X-54560Y-340021D01*
X-54458Y-340116D01*
X-54441Y-340126D01*
X-54425Y-340139D01*
X-54301Y-340203D01*
X-54180Y-340270D01*
X-54160Y-340275D01*
X-54142Y-340284D01*
X-54006Y-340314D01*
X-53872Y-340349D01*
X-53844Y-340351D01*
X-53832Y-340354D01*
X-53811Y-340353D01*
X-53711Y-340359D01*
X-46452Y-340359D01*
X-46315Y-340342D01*
X-46176Y-340329D01*
X-46157Y-340322D01*
X-46136Y-340319D01*
X-46008Y-340268D01*
X-45876Y-340221D01*
X-45860Y-340210D01*
X-45841Y-340202D01*
X-45728Y-340121D01*
X-45613Y-340043D01*
X-45600Y-340027D01*
X-45583Y-340016D01*
X-45495Y-339908D01*
X-45403Y-339804D01*
X-45394Y-339786D01*
X-45381Y-339771D01*
X-45321Y-339645D01*
X-45258Y-339521D01*
X-45254Y-339501D01*
X-45245Y-339483D01*
X-45219Y-339346D01*
X-45189Y-339211D01*
X-45189Y-339190D01*
X-45185Y-339171D01*
X-45194Y-339032D01*
X-45198Y-338893D01*
X-45204Y-338873D01*
X-45205Y-338853D01*
X-45248Y-338721D01*
X-45287Y-338587D01*
X-45297Y-338570D01*
X-45303Y-338551D01*
X-45378Y-338433D01*
X-45448Y-338313D01*
X-45467Y-338292D01*
X-45473Y-338282D01*
X-45488Y-338268D01*
X-45555Y-338193D01*
X-47360Y-336387D01*
X-49023Y-332373D01*
X-49023Y-328027D01*
X-47360Y-324013D01*
X-44287Y-320940D01*
X-40273Y-319277D01*
X-35927Y-319277D01*
X-31913Y-320940D01*
X-28840Y-324013D01*
X-27177Y-328027D01*
X-27177Y-332373D01*
X-28355Y-335217D01*
X-28374Y-335284D01*
X-28401Y-335348D01*
X-28416Y-335437D01*
X-28439Y-335524D01*
X-28440Y-335593D01*
X-28451Y-335662D01*
X-28443Y-335752D01*
X-28444Y-335841D01*
X-28428Y-335909D01*
X-28422Y-335979D01*
X-28391Y-336063D01*
X-28370Y-336151D01*
X-28338Y-336213D01*
X-28314Y-336278D01*
X-28263Y-336352D01*
X-28221Y-336432D01*
X-28175Y-336483D01*
X-28135Y-336541D01*
X-28068Y-336601D01*
X-28008Y-336667D01*
X-27949Y-336706D01*
X-27897Y-336752D01*
X-27817Y-336793D01*
X-27742Y-336842D01*
X-27676Y-336865D01*
X-27614Y-336896D01*
X-27526Y-336916D01*
X-27441Y-336945D01*
X-27371Y-336951D01*
X-27303Y-336966D01*
X-27214Y-336963D01*
X-27124Y-336970D01*
X-27055Y-336958D01*
X-26985Y-336956D01*
X-26899Y-336931D01*
X-26811Y-336916D01*
X-26747Y-336887D01*
X-26680Y-336868D01*
X-26603Y-336822D01*
X-26521Y-336785D01*
X-26466Y-336742D01*
X-26406Y-336706D01*
X-26285Y-336600D01*
X-23764Y-334079D01*
X-23746Y-334055D01*
X-23724Y-334036D01*
X-23649Y-333930D01*
X-23569Y-333828D01*
X-23557Y-333800D01*
X-23540Y-333776D01*
X-23494Y-333655D01*
X-23443Y-333536D01*
X-23438Y-333507D01*
X-23428Y-333479D01*
X-23413Y-333350D01*
X-23393Y-333222D01*
X-23396Y-333192D01*
X-23392Y-333163D01*
X-23411Y-333034D01*
X-23423Y-332905D01*
X-23433Y-332877D01*
X-23437Y-332848D01*
X-23489Y-332696D01*
X-23623Y-332373D01*
X-23623Y-328027D01*
X-21960Y-324013D01*
X-18887Y-320940D01*
X-14873Y-319277D01*
X-10527Y-319277D01*
X-6513Y-320940D01*
X-3440Y-324013D01*
X-1777Y-328027D01*
X-1777Y-332373D01*
X-3440Y-336387D01*
X-6513Y-339460D01*
X-10527Y-341123D01*
X-14873Y-341123D01*
X-15196Y-340989D01*
X-15224Y-340981D01*
X-15250Y-340968D01*
X-15377Y-340939D01*
X-15502Y-340905D01*
X-15532Y-340905D01*
X-15561Y-340898D01*
X-15690Y-340902D01*
X-15820Y-340900D01*
X-15849Y-340907D01*
X-15879Y-340908D01*
X-16003Y-340944D01*
X-16130Y-340974D01*
X-16156Y-340988D01*
X-16184Y-340996D01*
X-16296Y-341062D01*
X-16411Y-341123D01*
X-16433Y-341143D01*
X-16458Y-341158D01*
X-16579Y-341264D01*
X-23454Y-348139D01*
X-24937Y-349623D01*
X-25022Y-349732D01*
X-25111Y-349839D01*
X-25120Y-349858D01*
X-25132Y-349874D01*
X-25187Y-350001D01*
X-25247Y-350127D01*
X-25250Y-350147D01*
X-25259Y-350166D01*
X-25280Y-350304D01*
X-25306Y-350440D01*
X-25305Y-350460D01*
X-25308Y-350480D01*
X-25295Y-350619D01*
X-25287Y-350757D01*
X-25281Y-350776D01*
X-25279Y-350796D01*
X-25231Y-350928D01*
X-25189Y-351059D01*
X-25178Y-351077D01*
X-25171Y-351096D01*
X-25093Y-351211D01*
X-25019Y-351328D01*
X-25004Y-351342D01*
X-24992Y-351359D01*
X-24888Y-351451D01*
X-24787Y-351546D01*
X-24769Y-351556D01*
X-24754Y-351569D01*
X-24630Y-351633D01*
X-24508Y-351700D01*
X-24489Y-351705D01*
X-24471Y-351714D01*
X-24335Y-351744D01*
X-24200Y-351779D01*
X-24172Y-351781D01*
X-24160Y-351784D01*
X-24140Y-351783D01*
X-24040Y-351789D01*
X86206Y-351789D01*
X86304Y-351777D01*
X86403Y-351774D01*
X86461Y-351757D01*
X86521Y-351749D01*
X86614Y-351713D01*
X86709Y-351685D01*
X86761Y-351655D01*
X86817Y-351632D01*
X86897Y-351574D01*
X86983Y-351524D01*
X87058Y-351458D01*
X87074Y-351446D01*
X87082Y-351436D01*
X87103Y-351418D01*
X94243Y-344278D01*
X94303Y-344200D01*
X94371Y-344128D01*
X94400Y-344075D01*
X94437Y-344027D01*
X94477Y-343936D01*
X94525Y-343850D01*
X94540Y-343791D01*
X94564Y-343735D01*
X94579Y-343637D01*
X94604Y-343542D01*
X94610Y-343442D01*
X94614Y-343421D01*
X94612Y-343409D01*
X94614Y-343381D01*
X94614Y-319481D01*
X94608Y-319427D01*
X94610Y-319373D01*
X94588Y-319270D01*
X94581Y-319215D01*
X94611Y-318793D01*
X94610Y-318771D01*
X94614Y-318702D01*
X94614Y-318292D01*
X94619Y-318280D01*
X94628Y-318227D01*
X94645Y-318175D01*
X94667Y-318016D01*
X94894Y-314839D01*
X94893Y-314830D01*
X94895Y-314822D01*
X94885Y-314671D01*
X94877Y-314521D01*
X94874Y-314513D01*
X94873Y-314504D01*
X94870Y-314494D01*
X94923Y-314249D01*
X94924Y-314239D01*
X94927Y-314230D01*
X94949Y-314070D01*
X94968Y-313799D01*
X95037Y-313668D01*
X95039Y-313659D01*
X95043Y-313652D01*
X95087Y-313497D01*
X95780Y-310309D01*
X95781Y-310301D01*
X95784Y-310293D01*
X95795Y-310142D01*
X95808Y-309993D01*
X95807Y-309984D01*
X95808Y-309976D01*
X95806Y-309965D01*
X95893Y-309730D01*
X95895Y-309721D01*
X95900Y-309712D01*
X95944Y-309557D01*
X96002Y-309292D01*
X96088Y-309171D01*
X96091Y-309163D01*
X96096Y-309156D01*
X96162Y-309009D01*
X97302Y-305952D01*
X97304Y-305944D01*
X97308Y-305937D01*
X97340Y-305790D01*
X97375Y-305643D01*
X97375Y-305634D01*
X97377Y-305626D01*
X97376Y-305615D01*
X97496Y-305396D01*
X97500Y-305386D01*
X97505Y-305378D01*
X97571Y-305231D01*
X97666Y-304976D01*
X97769Y-304869D01*
X97773Y-304862D01*
X97779Y-304856D01*
X97865Y-304719D01*
X99428Y-301856D01*
X99431Y-301849D01*
X99436Y-301842D01*
X99489Y-301701D01*
X99545Y-301560D01*
X99546Y-301552D01*
X99549Y-301544D01*
X99550Y-301533D01*
X99700Y-301333D01*
X99705Y-301324D01*
X99712Y-301316D01*
X99798Y-301180D01*
X99928Y-300942D01*
X100045Y-300851D01*
X100050Y-300844D01*
X100057Y-300839D01*
X100161Y-300716D01*
X102116Y-298105D01*
X102120Y-298097D01*
X102126Y-298091D01*
X102199Y-297959D01*
X102273Y-297828D01*
X102275Y-297820D01*
X102280Y-297813D01*
X102282Y-297802D01*
X102459Y-297625D01*
X102465Y-297617D01*
X102473Y-297611D01*
X102578Y-297488D01*
X102740Y-297271D01*
X102870Y-297197D01*
X102876Y-297191D01*
X102883Y-297187D01*
X103004Y-297080D01*
X105310Y-294774D01*
X105316Y-294767D01*
X105322Y-294762D01*
X105412Y-294643D01*
X105505Y-294522D01*
X105509Y-294515D01*
X105514Y-294508D01*
X105518Y-294497D01*
X105718Y-294348D01*
X105725Y-294341D01*
X105734Y-294335D01*
X105855Y-294229D01*
X106047Y-294037D01*
X106185Y-293982D01*
X106192Y-293977D01*
X106200Y-293974D01*
X106335Y-293886D01*
X108946Y-291931D01*
X108952Y-291925D01*
X108960Y-291921D01*
X109066Y-291815D01*
X109175Y-291710D01*
X109179Y-291703D01*
X109185Y-291697D01*
X109191Y-291687D01*
X109410Y-291568D01*
X109419Y-291562D01*
X109428Y-291558D01*
X109563Y-291470D01*
X109780Y-291307D01*
X109925Y-291273D01*
X109932Y-291268D01*
X109941Y-291266D01*
X110087Y-291198D01*
X112949Y-289635D01*
X112956Y-289630D01*
X112964Y-289627D01*
X113084Y-289538D01*
X113207Y-289449D01*
X113213Y-289442D01*
X113219Y-289437D01*
X113227Y-289428D01*
X113461Y-289341D01*
X113470Y-289336D01*
X113480Y-289334D01*
X113626Y-289266D01*
X113864Y-289136D01*
X114012Y-289122D01*
X114020Y-289119D01*
X114028Y-289119D01*
X114182Y-289072D01*
X117239Y-287932D01*
X117246Y-287928D01*
X117255Y-287926D01*
X117388Y-287854D01*
X117520Y-287784D01*
X117527Y-287779D01*
X117534Y-287775D01*
X117543Y-287767D01*
X117787Y-287714D01*
X117796Y-287710D01*
X117806Y-287709D01*
X117960Y-287663D01*
X118215Y-287568D01*
X118363Y-287576D01*
X118372Y-287574D01*
X118380Y-287574D01*
X118539Y-287550D01*
X121727Y-286857D01*
X121735Y-286854D01*
X121743Y-286853D01*
X121884Y-286801D01*
X122027Y-286751D01*
X122034Y-286746D01*
X122042Y-286743D01*
X122051Y-286737D01*
X122300Y-286719D01*
X122310Y-286717D01*
X122320Y-286717D01*
X122479Y-286693D01*
X122745Y-286635D01*
X122891Y-286664D01*
X122899Y-286664D01*
X122908Y-286665D01*
X123069Y-286664D01*
X126246Y-286437D01*
X126299Y-286426D01*
X126353Y-286424D01*
X126454Y-286395D01*
X126508Y-286384D01*
X126932Y-286384D01*
X126953Y-286382D01*
X127022Y-286381D01*
X127432Y-286352D01*
X127444Y-286356D01*
X127498Y-286361D01*
X127550Y-286374D01*
X127711Y-286384D01*
X151611Y-286384D01*
X151709Y-286372D01*
X151808Y-286369D01*
X151866Y-286352D01*
X151926Y-286344D01*
X152019Y-286308D01*
X152114Y-286280D01*
X152166Y-286250D01*
X152222Y-286227D01*
X152302Y-286169D01*
X152388Y-286119D01*
X152463Y-286053D01*
X152479Y-286041D01*
X152487Y-286031D01*
X152508Y-286013D01*
X160918Y-277603D01*
X160978Y-277525D01*
X161046Y-277453D01*
X161075Y-277400D01*
X161112Y-277352D01*
X161152Y-277261D01*
X161200Y-277175D01*
X161215Y-277116D01*
X161239Y-277060D01*
X161254Y-276962D01*
X161279Y-276867D01*
X161285Y-276767D01*
X161289Y-276746D01*
X161287Y-276734D01*
X161289Y-276706D01*
X161289Y-101164D01*
X161272Y-101027D01*
X161259Y-100888D01*
X161252Y-100869D01*
X161249Y-100849D01*
X161198Y-100720D01*
X161151Y-100589D01*
X161140Y-100572D01*
X161132Y-100553D01*
X161051Y-100440D01*
X160973Y-100325D01*
X160957Y-100312D01*
X160946Y-100296D01*
X160838Y-100207D01*
X160734Y-100115D01*
X160716Y-100106D01*
X160701Y-100093D01*
X160575Y-100034D01*
X160451Y-99970D01*
X160431Y-99966D01*
X160413Y-99957D01*
X160276Y-99931D01*
X160141Y-99901D01*
X160120Y-99901D01*
X160101Y-99897D01*
X159962Y-99906D01*
X159823Y-99910D01*
X159803Y-99916D01*
X159783Y-99917D01*
X159651Y-99960D01*
X159517Y-99999D01*
X159500Y-100009D01*
X159481Y-100015D01*
X159363Y-100090D01*
X159243Y-100160D01*
X159222Y-100179D01*
X159212Y-100185D01*
X159198Y-100200D01*
X159123Y-100267D01*
X157224Y-102165D01*
X156465Y-102924D01*
X156457Y-102935D01*
X156446Y-102944D01*
X156359Y-103061D01*
X156271Y-103175D01*
X156265Y-103188D01*
X156256Y-103199D01*
X156187Y-103345D01*
X154958Y-106376D01*
X154425Y-107693D01*
X153082Y-108261D01*
X151517Y-108923D01*
X151168Y-108782D01*
X151163Y-108781D01*
X151160Y-108778D01*
X151011Y-108740D01*
X150860Y-108700D01*
X150856Y-108700D01*
X150852Y-108699D01*
X150691Y-108689D01*
X147976Y-108689D01*
X145311Y-106024D01*
X145311Y-103309D01*
X145311Y-103305D01*
X145311Y-103300D01*
X145291Y-103148D01*
X145271Y-102993D01*
X145270Y-102989D01*
X145269Y-102985D01*
X145218Y-102832D01*
X145077Y-102483D01*
X146307Y-99575D01*
X150655Y-97813D01*
X150668Y-97806D01*
X150682Y-97802D01*
X150806Y-97729D01*
X150933Y-97658D01*
X150943Y-97648D01*
X150955Y-97641D01*
X151076Y-97535D01*
X151835Y-96776D01*
X155838Y-92773D01*
X155898Y-92695D01*
X155966Y-92623D01*
X155995Y-92570D01*
X156032Y-92522D01*
X156072Y-92431D01*
X156120Y-92344D01*
X156135Y-92286D01*
X156159Y-92230D01*
X156174Y-92132D01*
X156199Y-92036D01*
X156205Y-91936D01*
X156209Y-91916D01*
X156207Y-91904D01*
X156209Y-91876D01*
X156209Y13136D01*
X156197Y13234D01*
X156194Y13333D01*
X156177Y13391D01*
X156169Y13451D01*
X156133Y13543D01*
X156105Y13639D01*
X156075Y13691D01*
X156052Y13747D01*
X155994Y13827D01*
X155944Y13912D01*
X155878Y13988D01*
X155866Y14004D01*
X155856Y14012D01*
X155838Y14033D01*
X151193Y18678D01*
X151115Y18738D01*
X151043Y18806D01*
X150990Y18835D01*
X150942Y18872D01*
X150851Y18912D01*
X150764Y18960D01*
X150706Y18975D01*
X150650Y18999D01*
X150552Y19014D01*
X150456Y19039D01*
X150356Y19045D01*
X150336Y19049D01*
X150324Y19047D01*
X150296Y19049D01*
X129104Y19049D01*
X129006Y19037D01*
X128907Y19034D01*
X128849Y19017D01*
X128789Y19009D01*
X128697Y18973D01*
X128601Y18945D01*
X128549Y18915D01*
X128493Y18892D01*
X128413Y18834D01*
X128328Y18784D01*
X128252Y18718D01*
X128236Y18706D01*
X128228Y18696D01*
X128207Y18678D01*
X125985Y16456D01*
X125977Y16445D01*
X125966Y16436D01*
X125880Y16320D01*
X125791Y16205D01*
X125785Y16192D01*
X125776Y16181D01*
X125707Y16035D01*
X125328Y15100D01*
X123945Y11687D01*
X121616Y10702D01*
X121578Y10679D01*
X121536Y10664D01*
X121441Y10600D01*
X121341Y10542D01*
X121310Y10511D01*
X121272Y10486D01*
X121196Y10400D01*
X121115Y10319D01*
X121092Y10281D01*
X121062Y10247D01*
X121010Y10145D01*
X120951Y10047D01*
X120938Y10004D01*
X120917Y9964D01*
X120892Y9852D01*
X120859Y9742D01*
X120858Y9697D01*
X120848Y9654D01*
X120851Y9539D01*
X120847Y9424D01*
X120856Y9381D01*
X120857Y9336D01*
X120889Y9225D01*
X120913Y9113D01*
X120933Y9073D01*
X120946Y9030D01*
X121004Y8931D01*
X121055Y8829D01*
X121085Y8795D01*
X121107Y8756D01*
X121214Y8635D01*
X130811Y-962D01*
X130811Y-53776D01*
X130828Y-53913D01*
X130841Y-54052D01*
X130848Y-54071D01*
X130851Y-54091D01*
X130902Y-54220D01*
X130949Y-54351D01*
X130960Y-54368D01*
X130968Y-54387D01*
X131049Y-54499D01*
X131127Y-54615D01*
X131143Y-54628D01*
X131154Y-54644D01*
X131262Y-54733D01*
X131366Y-54825D01*
X131384Y-54834D01*
X131399Y-54847D01*
X131525Y-54906D01*
X131649Y-54970D01*
X131669Y-54974D01*
X131687Y-54983D01*
X131823Y-55009D01*
X131959Y-55039D01*
X131980Y-55039D01*
X131999Y-55043D01*
X132138Y-55034D01*
X132277Y-55030D01*
X132297Y-55024D01*
X132317Y-55023D01*
X132449Y-54980D01*
X132583Y-54941D01*
X132600Y-54931D01*
X132619Y-54925D01*
X132737Y-54850D01*
X132857Y-54780D01*
X132878Y-54761D01*
X132888Y-54755D01*
X132902Y-54740D01*
X132977Y-54673D01*
X133095Y-54556D01*
X133103Y-54545D01*
X133114Y-54536D01*
X133200Y-54420D01*
X133289Y-54305D01*
X133295Y-54292D01*
X133304Y-54281D01*
X133373Y-54135D01*
X135135Y-49787D01*
X137463Y-48802D01*
X137502Y-48779D01*
X137544Y-48764D01*
X137639Y-48700D01*
X137739Y-48642D01*
X137771Y-48611D01*
X137808Y-48586D01*
X137883Y-48500D01*
X137965Y-48419D01*
X137988Y-48381D01*
X138018Y-48347D01*
X138070Y-48245D01*
X138129Y-48147D01*
X138142Y-48104D01*
X138163Y-48064D01*
X138188Y-47952D01*
X138221Y-47842D01*
X138222Y-47797D01*
X138232Y-47754D01*
X138229Y-47639D01*
X138233Y-47524D01*
X138224Y-47481D01*
X138223Y-47436D01*
X138191Y-47325D01*
X138167Y-47213D01*
X138147Y-47173D01*
X138134Y-47130D01*
X138076Y-47031D01*
X138025Y-46929D01*
X137995Y-46895D01*
X137973Y-46856D01*
X137866Y-46735D01*
X135889Y-44758D01*
X135889Y-13151D01*
X135887Y-13137D01*
X135889Y-13123D01*
X135868Y-12980D01*
X135849Y-12835D01*
X135844Y-12822D01*
X135842Y-12808D01*
X135789Y-12656D01*
X134823Y-10374D01*
X134823Y-10373D01*
X133960Y-8335D01*
X135146Y-5410D01*
X135493Y-5263D01*
X135497Y-5260D01*
X135501Y-5259D01*
X135632Y-5182D01*
X135768Y-5103D01*
X135771Y-5100D01*
X135775Y-5098D01*
X135896Y-4991D01*
X137816Y-3071D01*
X141584Y-3071D01*
X143504Y-4991D01*
X143508Y-4994D01*
X143510Y-4997D01*
X143631Y-5090D01*
X143755Y-5186D01*
X143759Y-5188D01*
X143763Y-5191D01*
X143907Y-5263D01*
X144254Y-5410D01*
X144579Y-6212D01*
X145440Y-8335D01*
X144804Y-9837D01*
X143611Y-12656D01*
X143607Y-12670D01*
X143600Y-12682D01*
X143564Y-12822D01*
X143525Y-12962D01*
X143524Y-12976D01*
X143521Y-12990D01*
X143511Y-13151D01*
X143511Y-41076D01*
X143523Y-41174D01*
X143526Y-41273D01*
X143543Y-41331D01*
X143551Y-41391D01*
X143587Y-41483D01*
X143615Y-41579D01*
X143645Y-41631D01*
X143668Y-41687D01*
X143726Y-41767D01*
X143776Y-41852D01*
X143842Y-41928D01*
X143854Y-41944D01*
X143864Y-41952D01*
X143882Y-41973D01*
X148527Y-46618D01*
X151131Y-49222D01*
X151131Y-57458D01*
X143882Y-64707D01*
X143822Y-64785D01*
X143754Y-64857D01*
X143725Y-64910D01*
X143688Y-64958D01*
X143648Y-65049D01*
X143600Y-65136D01*
X143585Y-65194D01*
X143561Y-65250D01*
X143546Y-65348D01*
X143521Y-65444D01*
X143515Y-65544D01*
X143511Y-65564D01*
X143513Y-65576D01*
X143511Y-65604D01*
X143511Y-98098D01*
X140907Y-100702D01*
X136262Y-105347D01*
X133658Y-107951D01*
X79191Y-107951D01*
X79177Y-107953D01*
X79163Y-107951D01*
X79019Y-107972D01*
X78875Y-107991D01*
X78862Y-107996D01*
X78848Y-107998D01*
X78696Y-108051D01*
X75877Y-109244D01*
X74375Y-109880D01*
X72252Y-109019D01*
X71450Y-108694D01*
X71303Y-108347D01*
X71300Y-108343D01*
X71299Y-108339D01*
X71220Y-108205D01*
X71143Y-108072D01*
X71140Y-108069D01*
X71138Y-108065D01*
X71031Y-107944D01*
X69111Y-106024D01*
X69111Y-102256D01*
X71031Y-100336D01*
X71034Y-100332D01*
X71037Y-100330D01*
X71131Y-100207D01*
X71226Y-100085D01*
X71228Y-100081D01*
X71231Y-100077D01*
X71303Y-99933D01*
X71450Y-99586D01*
X74375Y-98400D01*
X76413Y-99263D01*
X76414Y-99263D01*
X78696Y-100229D01*
X78710Y-100233D01*
X78722Y-100240D01*
X78862Y-100276D01*
X79002Y-100315D01*
X79016Y-100316D01*
X79030Y-100319D01*
X79191Y-100329D01*
X88292Y-100329D01*
X88430Y-100312D01*
X88569Y-100299D01*
X88588Y-100292D01*
X88608Y-100289D01*
X88737Y-100238D01*
X88868Y-100191D01*
X88885Y-100180D01*
X88903Y-100172D01*
X89016Y-100091D01*
X89131Y-100013D01*
X89144Y-99997D01*
X89161Y-99986D01*
X89250Y-99878D01*
X89342Y-99774D01*
X89351Y-99756D01*
X89364Y-99741D01*
X89422Y-99616D01*
X89486Y-99491D01*
X89491Y-99471D01*
X89499Y-99453D01*
X89525Y-99317D01*
X89556Y-99181D01*
X89555Y-99160D01*
X89559Y-99141D01*
X89550Y-99002D01*
X89546Y-98863D01*
X89540Y-98843D01*
X89539Y-98823D01*
X89496Y-98691D01*
X89458Y-98557D01*
X89447Y-98540D01*
X89441Y-98521D01*
X89431Y-98505D01*
X89431Y-95689D01*
X89431Y-95685D01*
X89431Y-95680D01*
X89411Y-95528D01*
X89391Y-95373D01*
X89390Y-95369D01*
X89389Y-95365D01*
X89338Y-95212D01*
X89197Y-94863D01*
X90427Y-91955D01*
X94775Y-90193D01*
X94788Y-90186D01*
X94802Y-90182D01*
X94926Y-90109D01*
X95053Y-90038D01*
X95063Y-90028D01*
X95075Y-90021D01*
X95196Y-89915D01*
X95955Y-89156D01*
X98752Y-86359D01*
X116744Y-86359D01*
X116842Y-86347D01*
X116941Y-86344D01*
X116999Y-86327D01*
X117059Y-86319D01*
X117151Y-86283D01*
X117247Y-86255D01*
X117299Y-86225D01*
X117355Y-86202D01*
X117435Y-86144D01*
X117520Y-86094D01*
X117596Y-86028D01*
X117612Y-86016D01*
X117620Y-86006D01*
X117641Y-85988D01*
X117738Y-85891D01*
X117798Y-85813D01*
X117866Y-85741D01*
X117895Y-85688D01*
X117932Y-85640D01*
X117972Y-85549D01*
X118020Y-85462D01*
X118035Y-85404D01*
X118059Y-85348D01*
X118074Y-85250D01*
X118099Y-85154D01*
X118105Y-85054D01*
X118109Y-85034D01*
X118107Y-85022D01*
X118109Y-84994D01*
X118109Y-42744D01*
X118097Y-42646D01*
X118094Y-42547D01*
X118077Y-42489D01*
X118069Y-42429D01*
X118033Y-42337D01*
X118005Y-42241D01*
X117975Y-42189D01*
X117952Y-42133D01*
X117894Y-42053D01*
X117844Y-41968D01*
X117778Y-41892D01*
X117766Y-41876D01*
X117756Y-41868D01*
X117738Y-41847D01*
X115569Y-39678D01*
X115569Y-36011D01*
X115567Y-35997D01*
X115569Y-35983D01*
X115548Y-35839D01*
X115529Y-35695D01*
X115524Y-35682D01*
X115522Y-35668D01*
X115469Y-35516D01*
X114503Y-33234D01*
X114503Y-33233D01*
X113640Y-31195D01*
X114826Y-28270D01*
X115173Y-28123D01*
X115177Y-28120D01*
X115181Y-28119D01*
X115312Y-28042D01*
X115448Y-27963D01*
X115451Y-27960D01*
X115455Y-27958D01*
X115576Y-27851D01*
X117496Y-25931D01*
X121382Y-25931D01*
X121402Y-25940D01*
X121527Y-25999D01*
X121547Y-26003D01*
X121566Y-26011D01*
X121703Y-26033D01*
X121840Y-26059D01*
X121860Y-26058D01*
X121880Y-26061D01*
X122018Y-26048D01*
X122157Y-26039D01*
X122176Y-26033D01*
X122196Y-26031D01*
X122328Y-25984D01*
X122459Y-25941D01*
X122476Y-25930D01*
X122496Y-25923D01*
X122611Y-25845D01*
X122728Y-25771D01*
X122742Y-25756D01*
X122759Y-25745D01*
X122851Y-25641D01*
X122946Y-25539D01*
X122956Y-25522D01*
X122969Y-25506D01*
X123032Y-25383D01*
X123100Y-25261D01*
X123105Y-25241D01*
X123114Y-25223D01*
X123144Y-25087D01*
X123179Y-24953D01*
X123181Y-24925D01*
X123184Y-24913D01*
X123183Y-24892D01*
X123189Y-24792D01*
X123189Y-4644D01*
X123177Y-4546D01*
X123174Y-4447D01*
X123157Y-4389D01*
X123149Y-4329D01*
X123113Y-4237D01*
X123085Y-4141D01*
X123055Y-4089D01*
X123032Y-4033D01*
X122974Y-3953D01*
X122924Y-3868D01*
X122858Y-3792D01*
X122846Y-3776D01*
X122836Y-3768D01*
X122818Y-3747D01*
X111823Y7248D01*
X109219Y9852D01*
X109219Y23168D01*
X125358Y39307D01*
X127962Y41911D01*
X134169Y41911D01*
X134183Y41913D01*
X134197Y41911D01*
X134341Y41932D01*
X134485Y41951D01*
X134498Y41956D01*
X134512Y41958D01*
X134664Y42011D01*
X137417Y43176D01*
X138984Y43840D01*
X140460Y43242D01*
X141910Y42654D01*
X142057Y42307D01*
X142060Y42303D01*
X142061Y42299D01*
X142139Y42167D01*
X142217Y42032D01*
X142220Y42029D01*
X142222Y42025D01*
X142329Y41904D01*
X144249Y39984D01*
X144249Y36216D01*
X142329Y34296D01*
X142326Y34292D01*
X142323Y34290D01*
X142229Y34167D01*
X142134Y34045D01*
X142132Y34041D01*
X142129Y34037D01*
X142057Y33893D01*
X141910Y33546D01*
X140451Y32954D01*
X138984Y32360D01*
X137390Y33035D01*
X137389Y33035D01*
X134664Y34189D01*
X134650Y34193D01*
X134638Y34200D01*
X134498Y34236D01*
X134358Y34275D01*
X134344Y34276D01*
X134330Y34279D01*
X134169Y34289D01*
X131644Y34289D01*
X131546Y34277D01*
X131447Y34274D01*
X131389Y34257D01*
X131329Y34249D01*
X131237Y34213D01*
X131141Y34185D01*
X131089Y34155D01*
X131033Y34132D01*
X130953Y34074D01*
X130868Y34024D01*
X130792Y33958D01*
X130776Y33946D01*
X130768Y33936D01*
X130747Y33918D01*
X125667Y28837D01*
X125581Y28728D01*
X125493Y28621D01*
X125484Y28602D01*
X125472Y28586D01*
X125416Y28458D01*
X125357Y28333D01*
X125353Y28313D01*
X125345Y28294D01*
X125323Y28156D01*
X125297Y28020D01*
X125299Y28000D01*
X125296Y27980D01*
X125309Y27841D01*
X125317Y27703D01*
X125323Y27684D01*
X125325Y27664D01*
X125373Y27532D01*
X125415Y27401D01*
X125426Y27383D01*
X125433Y27364D01*
X125511Y27249D01*
X125585Y27132D01*
X125600Y27118D01*
X125612Y27101D01*
X125716Y27009D01*
X125817Y26914D01*
X125835Y26904D01*
X125850Y26891D01*
X125974Y26827D01*
X126096Y26760D01*
X126115Y26755D01*
X126133Y26746D01*
X126269Y26716D01*
X126403Y26681D01*
X126432Y26679D01*
X126443Y26676D01*
X126464Y26677D01*
X126564Y26671D01*
X153978Y26671D01*
X156582Y24067D01*
X159123Y21527D01*
X159232Y21441D01*
X159339Y21353D01*
X159358Y21344D01*
X159374Y21332D01*
X159502Y21276D01*
X159627Y21217D01*
X159647Y21213D01*
X159666Y21205D01*
X159804Y21183D01*
X159940Y21157D01*
X159960Y21159D01*
X159980Y21156D01*
X160119Y21169D01*
X160257Y21177D01*
X160276Y21183D01*
X160296Y21185D01*
X160428Y21233D01*
X160559Y21275D01*
X160577Y21286D01*
X160596Y21293D01*
X160711Y21371D01*
X160828Y21445D01*
X160842Y21460D01*
X160859Y21472D01*
X160951Y21576D01*
X161046Y21677D01*
X161056Y21695D01*
X161069Y21710D01*
X161133Y21834D01*
X161200Y21956D01*
X161205Y21975D01*
X161214Y21993D01*
X161244Y22129D01*
X161279Y22263D01*
X161281Y22292D01*
X161284Y22303D01*
X161283Y22324D01*
X161289Y22424D01*
X161289Y274166D01*
X161277Y274264D01*
X161274Y274363D01*
X161257Y274421D01*
X161249Y274481D01*
X161213Y274574D01*
X161185Y274669D01*
X161155Y274721D01*
X161132Y274777D01*
X161074Y274857D01*
X161024Y274943D01*
X160958Y275018D01*
X160946Y275034D01*
X160936Y275042D01*
X160918Y275063D01*
X152508Y283473D01*
X152430Y283533D01*
X152358Y283601D01*
X152305Y283630D01*
X152257Y283667D01*
X152166Y283707D01*
X152080Y283755D01*
X152021Y283770D01*
X151965Y283794D01*
X151867Y283809D01*
X151772Y283834D01*
X151672Y283840D01*
X151651Y283844D01*
X151639Y283842D01*
X151611Y283844D01*
X127711Y283844D01*
X127657Y283838D01*
X127603Y283840D01*
X127500Y283818D01*
X127445Y283811D01*
X127023Y283841D01*
X127001Y283840D01*
X126932Y283844D01*
X126522Y283844D01*
X126510Y283849D01*
X126457Y283858D01*
X126405Y283875D01*
X126246Y283897D01*
X123069Y284124D01*
X123060Y284123D01*
X123052Y284125D01*
X122901Y284115D01*
X122751Y284107D01*
X122743Y284104D01*
X122734Y284103D01*
X122724Y284100D01*
X122479Y284153D01*
X122469Y284154D01*
X122460Y284157D01*
X122300Y284179D01*
X122029Y284198D01*
X121898Y284267D01*
X121889Y284269D01*
X121882Y284273D01*
X121727Y284317D01*
X118539Y285010D01*
X118531Y285011D01*
X118523Y285014D01*
X118372Y285025D01*
X118223Y285038D01*
X118214Y285037D01*
X118206Y285038D01*
X118195Y285036D01*
X117960Y285123D01*
X117951Y285125D01*
X117942Y285130D01*
X117787Y285174D01*
X117522Y285232D01*
X117401Y285318D01*
X117393Y285321D01*
X117386Y285326D01*
X117239Y285392D01*
X114182Y286532D01*
X114174Y286534D01*
X114167Y286538D01*
X114020Y286570D01*
X113873Y286605D01*
X113864Y286605D01*
X113856Y286607D01*
X113845Y286606D01*
X113626Y286726D01*
X113616Y286730D01*
X113608Y286735D01*
X113461Y286801D01*
X113206Y286896D01*
X113099Y286999D01*
X113092Y287003D01*
X113086Y287009D01*
X112949Y287095D01*
X110086Y288658D01*
X110079Y288661D01*
X110072Y288666D01*
X109931Y288719D01*
X109790Y288775D01*
X109782Y288776D01*
X109774Y288779D01*
X109763Y288780D01*
X109563Y288930D01*
X109556Y288934D01*
X109550Y288939D01*
X109548Y288940D01*
X109546Y288942D01*
X109410Y289028D01*
X109172Y289158D01*
X109081Y289275D01*
X109074Y289280D01*
X109069Y289287D01*
X108946Y289391D01*
X106335Y291346D01*
X106327Y291350D01*
X106321Y291356D01*
X106189Y291429D01*
X106058Y291503D01*
X106050Y291505D01*
X106043Y291510D01*
X106032Y291512D01*
X105855Y291689D01*
X105847Y291695D01*
X105841Y291703D01*
X105718Y291808D01*
X105501Y291970D01*
X105427Y292100D01*
X105421Y292106D01*
X105417Y292113D01*
X105310Y292234D01*
X103004Y294540D01*
X102997Y294546D01*
X102992Y294552D01*
X102873Y294642D01*
X102752Y294735D01*
X102745Y294739D01*
X102738Y294744D01*
X102727Y294748D01*
X102578Y294948D01*
X102571Y294955D01*
X102565Y294964D01*
X102459Y295085D01*
X102267Y295277D01*
X102212Y295415D01*
X102207Y295422D01*
X102204Y295430D01*
X102116Y295565D01*
X100161Y298176D01*
X100155Y298182D01*
X100151Y298190D01*
X100045Y298296D01*
X99940Y298405D01*
X99933Y298409D01*
X99927Y298415D01*
X99917Y298421D01*
X99798Y298640D01*
X99792Y298649D01*
X99788Y298658D01*
X99700Y298793D01*
X99537Y299010D01*
X99502Y299155D01*
X99498Y299162D01*
X99496Y299171D01*
X99428Y299316D01*
X97865Y302179D01*
X97860Y302186D01*
X97857Y302194D01*
X97767Y302315D01*
X97679Y302437D01*
X97672Y302443D01*
X97667Y302449D01*
X97658Y302457D01*
X97571Y302691D01*
X97566Y302700D01*
X97564Y302710D01*
X97496Y302856D01*
X97366Y303094D01*
X97352Y303242D01*
X97349Y303250D01*
X97349Y303258D01*
X97302Y303412D01*
X96162Y306469D01*
X96158Y306476D01*
X96156Y306484D01*
X96084Y306617D01*
X96014Y306750D01*
X96009Y306757D01*
X96005Y306764D01*
X95903Y306874D01*
X95801Y306987D01*
X95794Y306991D01*
X95789Y306997D01*
X95659Y307093D01*
X95555Y307160D01*
X95552Y307161D01*
X95550Y307163D01*
X95409Y307230D01*
X95268Y307297D01*
X95265Y307297D01*
X95262Y307299D01*
X95110Y307328D01*
X94956Y307358D01*
X94953Y307358D01*
X94949Y307359D01*
X94796Y307349D01*
X94639Y307340D01*
X94635Y307339D01*
X94632Y307339D01*
X94485Y307291D01*
X94336Y307244D01*
X94333Y307242D01*
X94330Y307241D01*
X94198Y307158D01*
X94066Y307075D01*
X94064Y307072D01*
X94061Y307071D01*
X93953Y306956D01*
X93847Y306844D01*
X93845Y306842D01*
X93843Y306839D01*
X93767Y306701D01*
X93692Y306567D01*
X93691Y306564D01*
X93689Y306561D01*
X93650Y306409D01*
X93611Y306259D01*
X93611Y306256D01*
X93610Y306253D01*
X93600Y306092D01*
X93600Y301844D01*
X91337Y296383D01*
X87157Y292203D01*
X81696Y289940D01*
X75784Y289940D01*
X70323Y292203D01*
X66143Y296383D01*
X63880Y301844D01*
X63880Y307756D01*
X66143Y313217D01*
X70323Y317397D01*
X75784Y319660D01*
X81696Y319660D01*
X87157Y317397D01*
X91337Y313217D01*
X92770Y309758D01*
X92793Y309718D01*
X92809Y309674D01*
X92872Y309580D01*
X92928Y309482D01*
X92960Y309449D01*
X92986Y309410D01*
X93070Y309335D01*
X93149Y309254D01*
X93189Y309229D01*
X93223Y309199D01*
X93324Y309147D01*
X93420Y309087D01*
X93464Y309074D01*
X93506Y309053D01*
X93616Y309027D01*
X93724Y308994D01*
X93770Y308992D01*
X93816Y308981D01*
X93929Y308984D01*
X94042Y308979D01*
X94087Y308988D01*
X94134Y308989D01*
X94242Y309020D01*
X94353Y309043D01*
X94395Y309063D01*
X94439Y309076D01*
X94537Y309133D01*
X94639Y309183D01*
X94674Y309213D01*
X94714Y309236D01*
X94795Y309316D01*
X94881Y309389D01*
X94908Y309427D01*
X94941Y309460D01*
X94999Y309556D01*
X95064Y309649D01*
X95080Y309693D01*
X95104Y309732D01*
X95137Y309841D01*
X95177Y309947D01*
X95182Y309993D01*
X95195Y310037D01*
X95199Y310150D01*
X95212Y310263D01*
X95205Y310309D01*
X95207Y310355D01*
X95183Y310514D01*
X95087Y310957D01*
X95084Y310965D01*
X95083Y310973D01*
X95031Y311115D01*
X94981Y311257D01*
X94976Y311264D01*
X94973Y311272D01*
X94967Y311281D01*
X94949Y311530D01*
X94947Y311540D01*
X94947Y311550D01*
X94923Y311709D01*
X94865Y311975D01*
X94894Y312121D01*
X94894Y312129D01*
X94895Y312138D01*
X94894Y312299D01*
X94667Y315476D01*
X94656Y315529D01*
X94654Y315583D01*
X94625Y315684D01*
X94614Y315738D01*
X94614Y316162D01*
X94612Y316183D01*
X94611Y316252D01*
X94582Y316662D01*
X94586Y316674D01*
X94591Y316728D01*
X94604Y316780D01*
X94614Y316941D01*
X94614Y340841D01*
X94602Y340939D01*
X94599Y341038D01*
X94582Y341096D01*
X94574Y341156D01*
X94538Y341249D01*
X94510Y341344D01*
X94480Y341396D01*
X94457Y341452D01*
X94399Y341532D01*
X94349Y341618D01*
X94283Y341693D01*
X94271Y341709D01*
X94261Y341717D01*
X94243Y341738D01*
X84563Y351418D01*
X84485Y351478D01*
X84413Y351546D01*
X84360Y351575D01*
X84312Y351612D01*
X84221Y351652D01*
X84135Y351700D01*
X84076Y351715D01*
X84020Y351739D01*
X83922Y351754D01*
X83827Y351779D01*
X83727Y351785D01*
X83706Y351789D01*
X83694Y351787D01*
X83666Y351789D01*
X-83666Y351789D01*
X-83764Y351777D01*
X-83863Y351774D01*
X-83921Y351757D01*
X-83981Y351749D01*
X-84074Y351713D01*
X-84169Y351685D01*
X-84221Y351655D01*
X-84277Y351632D01*
X-84357Y351574D01*
X-84443Y351524D01*
X-84518Y351458D01*
X-84534Y351446D01*
X-84542Y351436D01*
X-84563Y351418D01*
X-94243Y341738D01*
X-94303Y341660D01*
X-94371Y341588D01*
X-94400Y341535D01*
X-94437Y341487D01*
X-94477Y341396D01*
X-94525Y341310D01*
X-94540Y341251D01*
X-94564Y341195D01*
X-94579Y341097D01*
X-94604Y341002D01*
X-94610Y340902D01*
X-94614Y340881D01*
X-94612Y340869D01*
X-94614Y340841D01*
X-94614Y316941D01*
X-94608Y316887D01*
X-94610Y316833D01*
X-94588Y316730D01*
X-94581Y316675D01*
X-94611Y316253D01*
X-94610Y316231D01*
X-94614Y316162D01*
X-94614Y315752D01*
X-94619Y315740D01*
X-94628Y315687D01*
X-94645Y315635D01*
X-94667Y315476D01*
X-94894Y312299D01*
X-94893Y312290D01*
X-94895Y312282D01*
X-94885Y312131D01*
X-94877Y311981D01*
X-94874Y311973D01*
X-94873Y311964D01*
X-94870Y311954D01*
X-94923Y311709D01*
X-94924Y311699D01*
X-94927Y311690D01*
X-94949Y311530D01*
X-94968Y311259D01*
X-95037Y311128D01*
X-95039Y311119D01*
X-95043Y311112D01*
X-95087Y310957D01*
X-95183Y310514D01*
X-95187Y310468D01*
X-95199Y310423D01*
X-95201Y310310D01*
X-95211Y310197D01*
X-95204Y310152D01*
X-95204Y310105D01*
X-95178Y309995D01*
X-95160Y309883D01*
X-95141Y309841D01*
X-95130Y309796D01*
X-95077Y309696D01*
X-95032Y309592D01*
X-95003Y309556D01*
X-94982Y309515D01*
X-94906Y309431D01*
X-94836Y309342D01*
X-94799Y309314D01*
X-94768Y309279D01*
X-94673Y309217D01*
X-94583Y309148D01*
X-94541Y309130D01*
X-94502Y309105D01*
X-94395Y309068D01*
X-94291Y309023D01*
X-94245Y309016D01*
X-94201Y309001D01*
X-94088Y308992D01*
X-93976Y308975D01*
X-93930Y308980D01*
X-93884Y308976D01*
X-93773Y308996D01*
X-93660Y309007D01*
X-93616Y309023D01*
X-93571Y309031D01*
X-93468Y309077D01*
X-93361Y309116D01*
X-93323Y309142D01*
X-93281Y309161D01*
X-93193Y309232D01*
X-93099Y309296D01*
X-93069Y309331D01*
X-93032Y309360D01*
X-92964Y309450D01*
X-92890Y309535D01*
X-92869Y309577D01*
X-92841Y309614D01*
X-92770Y309758D01*
X-91337Y313217D01*
X-87157Y317397D01*
X-81696Y319660D01*
X-75784Y319660D01*
X-70323Y317397D01*
X-66143Y313217D01*
X-63880Y307756D01*
X-63880Y301844D01*
X-66143Y296383D01*
X-70323Y292203D01*
X-75784Y289940D01*
X-81696Y289940D01*
X-87157Y292203D01*
X-91337Y296383D01*
X-93600Y301844D01*
X-93600Y306092D01*
X-93600Y306095D01*
X-93600Y306098D01*
X-93620Y306251D01*
X-93640Y306407D01*
X-93641Y306410D01*
X-93641Y306414D01*
X-93699Y306558D01*
X-93757Y306703D01*
X-93759Y306706D01*
X-93760Y306709D01*
X-93852Y306835D01*
X-93943Y306960D01*
X-93946Y306963D01*
X-93948Y306965D01*
X-94068Y307064D01*
X-94188Y307163D01*
X-94191Y307165D01*
X-94194Y307167D01*
X-94336Y307233D01*
X-94476Y307299D01*
X-94479Y307299D01*
X-94482Y307301D01*
X-94639Y307330D01*
X-94788Y307359D01*
X-94792Y307358D01*
X-94795Y307359D01*
X-94952Y307348D01*
X-95106Y307339D01*
X-95109Y307338D01*
X-95112Y307338D01*
X-95262Y307288D01*
X-95408Y307241D01*
X-95411Y307239D01*
X-95414Y307238D01*
X-95555Y307160D01*
X-95659Y307093D01*
X-95665Y307088D01*
X-95673Y307084D01*
X-95787Y306986D01*
X-95903Y306889D01*
X-95908Y306882D01*
X-95914Y306877D01*
X-96000Y306753D01*
X-96088Y306631D01*
X-96091Y306623D01*
X-96096Y306616D01*
X-96162Y306469D01*
X-97302Y303412D01*
X-97304Y303404D01*
X-97308Y303397D01*
X-97340Y303249D01*
X-97375Y303103D01*
X-97375Y303094D01*
X-97377Y303086D01*
X-97376Y303075D01*
X-97496Y302855D01*
X-97500Y302846D01*
X-97505Y302838D01*
X-97571Y302691D01*
X-97666Y302436D01*
X-97769Y302329D01*
X-97773Y302322D01*
X-97779Y302316D01*
X-97865Y302179D01*
X-99428Y299316D01*
X-99431Y299309D01*
X-99436Y299302D01*
X-99489Y299161D01*
X-99545Y299020D01*
X-99546Y299012D01*
X-99549Y299004D01*
X-99550Y298993D01*
X-99700Y298793D01*
X-99705Y298784D01*
X-99712Y298776D01*
X-99798Y298640D01*
X-99928Y298402D01*
X-100045Y298311D01*
X-100050Y298304D01*
X-100057Y298299D01*
X-100161Y298176D01*
X-102116Y295565D01*
X-102120Y295557D01*
X-102126Y295551D01*
X-102199Y295419D01*
X-102273Y295288D01*
X-102275Y295280D01*
X-102280Y295273D01*
X-102282Y295262D01*
X-102459Y295085D01*
X-102465Y295077D01*
X-102473Y295071D01*
X-102578Y294948D01*
X-102740Y294731D01*
X-102870Y294657D01*
X-102876Y294651D01*
X-102883Y294647D01*
X-103004Y294540D01*
X-105310Y292234D01*
X-105315Y292227D01*
X-105322Y292222D01*
X-105412Y292102D01*
X-105505Y291982D01*
X-105509Y291975D01*
X-105514Y291968D01*
X-105518Y291957D01*
X-105718Y291808D01*
X-105725Y291801D01*
X-105734Y291795D01*
X-105855Y291689D01*
X-106047Y291497D01*
X-106185Y291442D01*
X-106192Y291437D01*
X-106200Y291434D01*
X-106335Y291346D01*
X-108946Y289391D01*
X-108952Y289385D01*
X-108960Y289381D01*
X-109066Y289275D01*
X-109175Y289170D01*
X-109179Y289163D01*
X-109185Y289157D01*
X-109191Y289147D01*
X-109410Y289028D01*
X-109413Y289026D01*
X-109414Y289025D01*
X-109420Y289021D01*
X-109428Y289018D01*
X-109563Y288930D01*
X-109780Y288767D01*
X-109925Y288732D01*
X-109932Y288728D01*
X-109941Y288726D01*
X-110086Y288658D01*
X-112949Y287095D01*
X-112956Y287090D01*
X-112964Y287087D01*
X-113085Y286997D01*
X-113207Y286909D01*
X-113213Y286902D01*
X-113219Y286897D01*
X-113227Y286888D01*
X-113461Y286801D01*
X-113470Y286796D01*
X-113480Y286794D01*
X-113626Y286726D01*
X-113864Y286596D01*
X-114012Y286582D01*
X-114020Y286579D01*
X-114028Y286579D01*
X-114182Y286532D01*
X-117239Y285392D01*
X-117246Y285388D01*
X-117255Y285386D01*
X-117388Y285314D01*
X-117520Y285244D01*
X-117527Y285239D01*
X-117534Y285235D01*
X-117543Y285227D01*
X-117787Y285174D01*
X-117796Y285170D01*
X-117806Y285169D01*
X-117960Y285123D01*
X-118215Y285028D01*
X-118363Y285036D01*
X-118372Y285034D01*
X-118380Y285034D01*
X-118539Y285010D01*
X-121727Y284317D01*
X-121735Y284314D01*
X-121743Y284313D01*
X-121884Y284261D01*
X-122027Y284211D01*
X-122034Y284206D01*
X-122042Y284203D01*
X-122051Y284197D01*
X-122300Y284179D01*
X-122310Y284177D01*
X-122320Y284177D01*
X-122479Y284153D01*
X-122745Y284095D01*
X-122891Y284124D01*
X-122899Y284124D01*
X-122908Y284125D01*
X-123069Y284124D01*
X-126246Y283897D01*
X-126299Y283886D01*
X-126353Y283884D01*
X-126454Y283855D01*
X-126508Y283844D01*
X-126932Y283844D01*
X-126953Y283842D01*
X-127022Y283841D01*
X-127432Y283812D01*
X-127444Y283816D01*
X-127498Y283821D01*
X-127550Y283834D01*
X-127711Y283844D01*
X-151611Y283844D01*
X-151709Y283832D01*
X-151808Y283829D01*
X-151866Y283812D01*
X-151926Y283804D01*
X-152019Y283768D01*
X-152114Y283740D01*
X-152166Y283710D01*
X-152222Y283687D01*
X-152302Y283629D01*
X-152388Y283579D01*
X-152463Y283513D01*
X-152480Y283501D01*
X-152487Y283491D01*
X-152508Y283473D01*
X-160918Y275063D01*
X-160978Y274985D01*
X-161046Y274913D01*
X-161075Y274860D01*
X-161112Y274812D01*
X-161152Y274721D01*
X-161200Y274635D01*
X-161215Y274576D01*
X-161239Y274520D01*
X-161254Y274422D01*
X-161279Y274327D01*
X-161285Y274227D01*
X-161289Y274206D01*
X-161287Y274194D01*
X-161289Y274166D01*
X-161289Y-276706D01*
X-161277Y-276804D01*
X-161274Y-276903D01*
X-161257Y-276961D01*
X-161249Y-277021D01*
X-161213Y-277114D01*
X-161185Y-277209D01*
X-161155Y-277261D01*
X-161132Y-277317D01*
X-161074Y-277397D01*
X-161024Y-277483D01*
X-160958Y-277558D01*
X-160946Y-277575D01*
X-160936Y-277582D01*
X-160918Y-277603D01*
X-152508Y-286013D01*
X-152430Y-286073D01*
X-152358Y-286141D01*
X-152305Y-286170D01*
X-152257Y-286207D01*
X-152166Y-286247D01*
X-152080Y-286295D01*
X-152021Y-286310D01*
X-151965Y-286334D01*
X-151867Y-286349D01*
X-151772Y-286374D01*
X-151672Y-286380D01*
X-151651Y-286384D01*
X-151639Y-286382D01*
X-151611Y-286384D01*
X-127711Y-286384D01*
X-127657Y-286378D01*
X-127603Y-286380D01*
X-127500Y-286358D01*
X-127445Y-286351D01*
X-127022Y-286381D01*
X-127001Y-286380D01*
X-126932Y-286384D01*
X-126521Y-286384D01*
X-126510Y-286389D01*
X-126457Y-286398D01*
X-126405Y-286415D01*
X-126246Y-286437D01*
X-123069Y-286664D01*
X-123060Y-286663D01*
X-123052Y-286665D01*
X-122903Y-286655D01*
X-122751Y-286647D01*
X-122743Y-286644D01*
X-122734Y-286643D01*
X-122724Y-286640D01*
X-122479Y-286693D01*
X-122469Y-286694D01*
X-122460Y-286697D01*
X-122300Y-286719D01*
X-122029Y-286738D01*
X-121898Y-286807D01*
X-121889Y-286809D01*
X-121882Y-286813D01*
X-121727Y-286857D01*
X-118539Y-287550D01*
X-118531Y-287551D01*
X-118523Y-287554D01*
X-118372Y-287565D01*
X-118223Y-287578D01*
X-118214Y-287577D01*
X-118206Y-287578D01*
X-118195Y-287576D01*
X-117960Y-287663D01*
X-117951Y-287665D01*
X-117942Y-287670D01*
X-117787Y-287714D01*
X-117522Y-287772D01*
X-117401Y-287858D01*
X-117393Y-287861D01*
X-117386Y-287866D01*
X-117239Y-287932D01*
X-114182Y-289072D01*
X-114174Y-289074D01*
X-114167Y-289078D01*
X-114020Y-289110D01*
X-113873Y-289145D01*
X-113864Y-289145D01*
X-113856Y-289147D01*
X-113845Y-289146D01*
X-113626Y-289266D01*
X-113616Y-289270D01*
X-113608Y-289275D01*
X-113461Y-289341D01*
X-113206Y-289436D01*
X-113099Y-289539D01*
X-113092Y-289543D01*
X-113086Y-289549D01*
X-112949Y-289635D01*
X-110086Y-291198D01*
X-110079Y-291201D01*
X-110072Y-291206D01*
X-109931Y-291259D01*
X-109790Y-291315D01*
X-109782Y-291316D01*
X-109774Y-291319D01*
X-109763Y-291320D01*
X-109563Y-291470D01*
X-109554Y-291475D01*
X-109546Y-291482D01*
X-109410Y-291568D01*
X-109172Y-291698D01*
X-109081Y-291815D01*
X-109074Y-291820D01*
X-109069Y-291827D01*
X-108946Y-291931D01*
X-106335Y-293886D01*
X-106327Y-293890D01*
X-106321Y-293896D01*
X-106189Y-293969D01*
X-106058Y-294043D01*
X-106050Y-294045D01*
X-106043Y-294050D01*
X-106032Y-294052D01*
X-105855Y-294229D01*
X-105847Y-294235D01*
X-105841Y-294243D01*
X-105718Y-294348D01*
X-105501Y-294510D01*
X-105427Y-294640D01*
X-105421Y-294646D01*
X-105417Y-294653D01*
X-105310Y-294774D01*
X-103004Y-297080D01*
X-102997Y-297085D01*
X-102992Y-297092D01*
X-102872Y-297182D01*
X-102752Y-297275D01*
X-102745Y-297279D01*
X-102738Y-297284D01*
X-102727Y-297288D01*
X-102578Y-297488D01*
X-102571Y-297495D01*
X-102565Y-297504D01*
X-102459Y-297625D01*
X-102267Y-297817D01*
X-102212Y-297955D01*
X-102207Y-297962D01*
X-102204Y-297970D01*
X-102116Y-298105D01*
X-100161Y-300716D01*
X-100155Y-300722D01*
X-100151Y-300730D01*
X-100045Y-300836D01*
X-99940Y-300945D01*
X-99933Y-300949D01*
X-99927Y-300955D01*
X-99917Y-300961D01*
X-99798Y-301180D01*
X-99792Y-301189D01*
X-99788Y-301198D01*
X-99700Y-301333D01*
X-99537Y-301550D01*
X-99502Y-301695D01*
X-99498Y-301702D01*
X-99496Y-301711D01*
X-99428Y-301856D01*
X-97865Y-304719D01*
X-97860Y-304726D01*
X-97857Y-304734D01*
X-97767Y-304855D01*
X-97679Y-304977D01*
X-97672Y-304983D01*
X-97667Y-304989D01*
X-97658Y-304997D01*
X-97571Y-305231D01*
X-97566Y-305240D01*
X-97564Y-305250D01*
X-97496Y-305396D01*
X-97366Y-305634D01*
X-97352Y-305782D01*
X-97349Y-305790D01*
X-97349Y-305798D01*
X-97302Y-305952D01*
X-96162Y-309009D01*
X-96158Y-309016D01*
X-96156Y-309025D01*
X-96084Y-309158D01*
X-96014Y-309290D01*
X-96009Y-309297D01*
X-96005Y-309304D01*
X-95997Y-309313D01*
X-95944Y-309557D01*
X-95940Y-309566D01*
X-95939Y-309576D01*
X-95893Y-309730D01*
X-95798Y-309985D01*
X-95806Y-310133D01*
X-95804Y-310142D01*
X-95804Y-310150D01*
X-95780Y-310309D01*
X-95087Y-313497D01*
X-95084Y-313505D01*
X-95083Y-313513D01*
X-95031Y-313654D01*
X-94981Y-313797D01*
X-94976Y-313804D01*
X-94973Y-313812D01*
X-94967Y-313821D01*
X-94949Y-314070D01*
X-94947Y-314080D01*
X-94947Y-314090D01*
X-94923Y-314249D01*
X-94865Y-314515D01*
X-94894Y-314661D01*
X-94894Y-314669D01*
X-94895Y-314678D01*
X-94894Y-314839D01*
X-94667Y-318016D01*
X-94656Y-318069D01*
X-94654Y-318123D01*
X-94625Y-318224D01*
X-94614Y-318278D01*
X-94614Y-318702D01*
X-94612Y-318723D01*
X-94611Y-318792D01*
X-94582Y-319202D01*
X-94586Y-319214D01*
X-94591Y-319268D01*
X-94604Y-319320D01*
X-94614Y-319481D01*
X-94614Y-343381D01*
X-94602Y-343479D01*
X-94599Y-343578D01*
X-94582Y-343636D01*
X-94574Y-343696D01*
X-94538Y-343789D01*
X-94510Y-343884D01*
X-94480Y-343936D01*
X-94457Y-343992D01*
X-94399Y-344072D01*
X-94349Y-344158D01*
X-94283Y-344233D01*
X-94271Y-344250D01*
X-94261Y-344257D01*
X-94243Y-344278D01*
X-87103Y-351418D01*
X-87025Y-351478D01*
X-86953Y-351546D01*
X-86900Y-351575D01*
X-86852Y-351612D01*
X-86761Y-351652D01*
X-86675Y-351700D01*
X-86616Y-351715D01*
X-86560Y-351739D01*
X-86462Y-351754D01*
X-86367Y-351779D01*
X-86267Y-351785D01*
X-86246Y-351789D01*
X-86234Y-351787D01*
X-86206Y-351789D01*
X-75020Y-351789D01*
X-74882Y-351772D01*
G37*
%LPC*%
G36*
X117244Y-270898D02*
X117244Y-270898D01*
X111214Y-265469D01*
X107914Y-258057D01*
X107914Y-249943D01*
X111214Y-242531D01*
X117244Y-237102D01*
X124960Y-234595D01*
X133030Y-235443D01*
X140056Y-239499D01*
X144825Y-246064D01*
X146512Y-254000D01*
X144825Y-261936D01*
X140056Y-268501D01*
X133030Y-272557D01*
X124960Y-273405D01*
X117244Y-270898D01*
G37*
%LPD*%
%LPC*%
G36*
X-136756Y186302D02*
X-136756Y186302D01*
X-142786Y191731D01*
X-146086Y199143D01*
X-146086Y207257D01*
X-142786Y214669D01*
X-136756Y220098D01*
X-129040Y222605D01*
X-120970Y221757D01*
X-113944Y217701D01*
X-109175Y211136D01*
X-107488Y203200D01*
X-109175Y195264D01*
X-113944Y188699D01*
X-120970Y184643D01*
X-129040Y183795D01*
X-136756Y186302D01*
G37*
%LPD*%
%LPC*%
G36*
X-13711Y-223521D02*
X-13711Y-223521D01*
X-15578Y-222747D01*
X-17007Y-221318D01*
X-17781Y-219451D01*
X-17781Y-217429D01*
X-17007Y-215562D01*
X-15578Y-214133D01*
X-13711Y-213359D01*
X82291Y-213359D01*
X84158Y-214133D01*
X85587Y-215562D01*
X86361Y-217429D01*
X86361Y-219451D01*
X85587Y-221318D01*
X84158Y-222747D01*
X82291Y-223521D01*
X-13711Y-223521D01*
G37*
%LPD*%
%LPC*%
G36*
X65624Y155320D02*
X65624Y155320D01*
X60163Y157583D01*
X55983Y161763D01*
X53720Y167224D01*
X53720Y173136D01*
X55983Y178597D01*
X60163Y182777D01*
X65624Y185040D01*
X71536Y185040D01*
X76997Y182777D01*
X81177Y178597D01*
X83440Y173136D01*
X83440Y167224D01*
X81177Y161763D01*
X76997Y157583D01*
X71536Y155320D01*
X65624Y155320D01*
G37*
%LPD*%
%LPC*%
G36*
X-71536Y155320D02*
X-71536Y155320D01*
X-76997Y157583D01*
X-81177Y161763D01*
X-83440Y167224D01*
X-83440Y173136D01*
X-81177Y178597D01*
X-76997Y182777D01*
X-71536Y185040D01*
X-65624Y185040D01*
X-60163Y182777D01*
X-55983Y178597D01*
X-53720Y173136D01*
X-53720Y167224D01*
X-55983Y161763D01*
X-60163Y157583D01*
X-65624Y155320D01*
X-71536Y155320D01*
G37*
%LPD*%
%LPC*%
G36*
X22570Y148335D02*
X22570Y148335D01*
X17342Y150501D01*
X13341Y154502D01*
X11175Y159730D01*
X11175Y165390D01*
X13341Y170618D01*
X17342Y174619D01*
X22570Y176785D01*
X28230Y176785D01*
X33458Y174619D01*
X37459Y170618D01*
X39625Y165390D01*
X39625Y159730D01*
X37459Y154502D01*
X33458Y150501D01*
X28230Y148335D01*
X22570Y148335D01*
G37*
%LPD*%
%LPC*%
G36*
X-28230Y148335D02*
X-28230Y148335D01*
X-33458Y150501D01*
X-37459Y154502D01*
X-39625Y159730D01*
X-39625Y165390D01*
X-37459Y170618D01*
X-33458Y174619D01*
X-28230Y176785D01*
X-22570Y176785D01*
X-17342Y174619D01*
X-13341Y170618D01*
X-11175Y165390D01*
X-11175Y159730D01*
X-13341Y154502D01*
X-17342Y150501D01*
X-22570Y148335D01*
X-28230Y148335D01*
G37*
%LPD*%
%LPC*%
G36*
X35927Y-341123D02*
X35927Y-341123D01*
X31913Y-339460D01*
X28840Y-336387D01*
X27177Y-332373D01*
X27177Y-328027D01*
X28840Y-324013D01*
X31913Y-320940D01*
X35927Y-319277D01*
X40273Y-319277D01*
X44287Y-320940D01*
X47360Y-324013D01*
X49023Y-328027D01*
X49023Y-332373D01*
X47360Y-336387D01*
X44287Y-339460D01*
X40273Y-341123D01*
X35927Y-341123D01*
G37*
%LPD*%
%LPC*%
G36*
X10527Y-341123D02*
X10527Y-341123D01*
X6513Y-339460D01*
X3440Y-336387D01*
X1777Y-332373D01*
X1777Y-328027D01*
X3440Y-324013D01*
X6513Y-320940D01*
X10527Y-319277D01*
X14873Y-319277D01*
X18887Y-320940D01*
X21960Y-324013D01*
X23623Y-328027D01*
X23623Y-332373D01*
X21960Y-336387D01*
X18887Y-339460D01*
X14873Y-341123D01*
X10527Y-341123D01*
G37*
%LPD*%
%LPC*%
G36*
X61327Y-341123D02*
X61327Y-341123D01*
X57313Y-339460D01*
X54240Y-336387D01*
X52577Y-332373D01*
X52577Y-328027D01*
X54240Y-324013D01*
X57313Y-320940D01*
X61327Y-319277D01*
X65673Y-319277D01*
X69687Y-320940D01*
X72760Y-324013D01*
X74423Y-328027D01*
X74423Y-332373D01*
X72760Y-336387D01*
X69687Y-339460D01*
X65673Y-341123D01*
X61327Y-341123D01*
G37*
%LPD*%
%LPC*%
G36*
X38756Y-7089D02*
X38756Y-7089D01*
X36836Y-5169D01*
X36832Y-5166D01*
X36830Y-5163D01*
X36708Y-5070D01*
X36585Y-4974D01*
X36581Y-4972D01*
X36577Y-4969D01*
X36433Y-4897D01*
X36086Y-4750D01*
X35494Y-3291D01*
X34900Y-1824D01*
X35575Y-229D01*
X36729Y2496D01*
X36733Y2510D01*
X36740Y2522D01*
X36776Y2662D01*
X36815Y2802D01*
X36816Y2816D01*
X36819Y2830D01*
X36829Y2991D01*
X36829Y6453D01*
X36813Y6580D01*
X36803Y6708D01*
X36793Y6738D01*
X36789Y6768D01*
X36742Y6887D01*
X36701Y7009D01*
X36684Y7035D01*
X36672Y7064D01*
X36597Y7168D01*
X36527Y7275D01*
X36504Y7296D01*
X36486Y7321D01*
X36386Y7403D01*
X36292Y7490D01*
X36254Y7513D01*
X36241Y7524D01*
X36221Y7533D01*
X36154Y7574D01*
X33799Y8823D01*
X32872Y11840D01*
X33103Y12276D01*
X33128Y12342D01*
X33162Y12402D01*
X33184Y12490D01*
X33216Y12574D01*
X33224Y12643D01*
X33241Y12710D01*
X33251Y12871D01*
X33251Y14884D01*
X35916Y17549D01*
X39619Y17549D01*
X39717Y17561D01*
X39816Y17564D01*
X39914Y17586D01*
X39935Y17589D01*
X39937Y17589D01*
X41269Y16856D01*
X42704Y16068D01*
X43273Y14109D01*
X43670Y12742D01*
X43701Y12669D01*
X43723Y12593D01*
X43764Y12524D01*
X43796Y12450D01*
X43844Y12387D01*
X43885Y12319D01*
X43990Y12199D01*
X43991Y12199D01*
X43991Y12198D01*
X44451Y11738D01*
X44451Y10272D01*
X44464Y10164D01*
X44469Y10056D01*
X44488Y9978D01*
X44491Y9956D01*
X44497Y9941D01*
X44507Y9899D01*
X44756Y9086D01*
X44608Y8816D01*
X44579Y8743D01*
X44540Y8673D01*
X44520Y8595D01*
X44491Y8521D01*
X44481Y8442D01*
X44461Y8365D01*
X44451Y8206D01*
X44451Y8205D01*
X44451Y2991D01*
X44453Y2977D01*
X44451Y2963D01*
X44472Y2819D01*
X44491Y2675D01*
X44496Y2662D01*
X44498Y2648D01*
X44551Y2496D01*
X45716Y-257D01*
X46380Y-1824D01*
X45782Y-3300D01*
X45194Y-4750D01*
X44847Y-4897D01*
X44843Y-4900D01*
X44839Y-4901D01*
X44707Y-4979D01*
X44572Y-5057D01*
X44569Y-5060D01*
X44565Y-5062D01*
X44444Y-5169D01*
X42524Y-7089D01*
X38756Y-7089D01*
G37*
%LPD*%
%LPC*%
G36*
X-60961Y-327661D02*
X-60961Y-327661D01*
X-60961Y-318515D01*
X-60704Y-318555D01*
X-58917Y-319136D01*
X-57243Y-319989D01*
X-55722Y-321094D01*
X-54394Y-322422D01*
X-53289Y-323943D01*
X-52436Y-325617D01*
X-51855Y-327404D01*
X-51815Y-327661D01*
X-60961Y-327661D01*
G37*
%LPD*%
D10*
X68580Y170180D03*
X-68580Y170180D03*
X-78740Y304800D03*
X78740Y304800D03*
D11*
X127000Y317500D03*
D12*
X105000Y317500D03*
X149000Y317500D03*
X127000Y295500D03*
X127000Y339500D03*
X111500Y333000D03*
X142500Y333000D03*
X111500Y302000D03*
X142500Y302000D03*
D11*
X127000Y-317500D03*
D12*
X105000Y-317500D03*
X149000Y-317500D03*
X127000Y-339500D03*
X127000Y-295500D03*
X111500Y-302000D03*
X142500Y-302000D03*
X111500Y-333000D03*
X142500Y-333000D03*
D11*
X-127000Y-317500D03*
D12*
X-149000Y-317500D03*
X-105000Y-317500D03*
X-127000Y-339500D03*
X-127000Y-295500D03*
X-142500Y-302000D03*
X-111500Y-302000D03*
X-142500Y-333000D03*
X-111500Y-333000D03*
D11*
X-127000Y317500D03*
D12*
X-149000Y317500D03*
X-105000Y317500D03*
X-127000Y295500D03*
X-127000Y339500D03*
X-142500Y333000D03*
X-111500Y333000D03*
X-142500Y302000D03*
X-111500Y302000D03*
D13*
X-63500Y-330200D03*
X-63500Y-304800D03*
X-38100Y-330200D03*
X-38100Y-304800D03*
X-12700Y-330200D03*
X-12700Y-304800D03*
X12700Y-330200D03*
X12700Y-304800D03*
X38100Y-330200D03*
X38100Y-304800D03*
X63500Y-330200D03*
X63500Y-304800D03*
D14*
X127000Y-254000D03*
X-127000Y203200D03*
D15*
X0Y10000D03*
X10000Y10000D03*
X10000Y0D03*
X-10000Y10000D03*
X-10000Y0D03*
X-10000Y-10000D03*
X0Y-10000D03*
X10000Y-10000D03*
X106680Y17780D03*
X109220Y-30480D03*
X109220Y-76200D03*
X149860Y15240D03*
X149860Y-30480D03*
X149860Y-76200D03*
X-160Y0D03*
X-5240Y-92710D03*
X4920Y-82550D03*
X4920Y-92710D03*
X-5240Y-82550D03*
X7460Y106520D03*
X-160Y106520D03*
X-7780Y106520D03*
X152240Y45880D03*
X-30640Y-251620D03*
X37940Y-251620D03*
X-111920Y50640D03*
X70960Y-198120D03*
X93820Y-233680D03*
X131920Y-220980D03*
X93820Y-279400D03*
X86200Y-330200D03*
X-89060Y-279400D03*
X-38260Y22700D03*
X-56040Y35400D03*
X-56040Y45560D03*
X-56040Y55720D03*
X-78900Y40480D03*
X-78900Y30320D03*
X-43340Y35400D03*
X-89060Y40480D03*
X37940Y22700D03*
X37940Y35400D03*
X50640Y35400D03*
X50640Y22700D03*
X139700Y246380D03*
X-152400Y157480D03*
X-12700Y142240D03*
X0Y157480D03*
X-50800Y233680D03*
X0Y233680D03*
X-25400Y195580D03*
X25400Y195580D03*
X50800Y233680D03*
X-76200Y195580D03*
X-101600Y233680D03*
X-76200Y271780D03*
X-25400Y271780D03*
X-50800Y309880D03*
X25400Y271780D03*
X0Y309880D03*
X50800Y309880D03*
X76200Y271780D03*
X-25400Y347980D03*
X25400Y347980D03*
X-76200Y347980D03*
X76200Y347980D03*
X101600Y233680D03*
X127000Y271780D03*
X-127000Y271780D03*
X-127000Y119380D03*
X-152400Y233680D03*
X-101600Y157480D03*
X76200Y195580D03*
X124460Y198120D03*
X101600Y157480D03*
X127000Y119380D03*
X12700Y142240D03*
X50640Y10000D03*
X152400Y154940D03*
X-152400Y81280D03*
X-152400Y5080D03*
X-152400Y-71120D03*
X-152400Y-147320D03*
X-152400Y-218440D03*
X-127000Y-33020D03*
X-127000Y-180340D03*
X-139700Y-246380D03*
X-88900Y-223520D03*
X152400Y81280D03*
X152400Y-223520D03*
X93820Y-256380D03*
X86200Y-304800D03*
X-89060Y-304800D03*
X-89060Y-330200D03*
X-99060Y-149860D03*
X149700Y-7460D03*
X-89060Y30640D03*
X111760Y-147320D03*
X-114460Y60800D03*
X-114460Y70960D03*
X131920Y50960D03*
X142080Y53500D03*
X144620Y63660D03*
X96360Y53500D03*
X-78900Y50960D03*
X14572Y-230538D03*
X22860Y-38100D03*
D16*
X-91440Y-27940D02*
X-123818Y4438D01*
X-127000Y7620D01*
X18360Y-38100D02*
X22860Y-38100D01*
X18360Y-38100D02*
X12700Y-38100D01*
X2540Y-27940D01*
X-91440Y-27940D01*
D15*
X-127000Y7620D03*
D16*
X18360Y-38100D02*
X22176Y-39715D01*
X22860Y-38100D01*
X22176Y-36485D02*
X18360Y-38100D01*
X22176Y-36485D02*
X22860Y-38100D01*
X-123818Y4438D02*
X-125374Y8279D01*
X-127000Y7620D01*
X-127659Y5994D02*
X-123818Y4438D01*
X-127659Y5994D02*
X-127000Y7620D01*
D15*
X40640Y-2540D03*
D16*
X40640Y10160D02*
X37800Y13000D01*
X40640Y10160D02*
X40640Y9509D01*
D15*
X37800Y13000D03*
D16*
X40640Y9509D02*
X40640Y1960D01*
X40640Y-2540D01*
D15*
X33020Y-99060D03*
D16*
X33020Y-103560D01*
X33020Y-106680D01*
X30480Y-109220D01*
X30480Y-127000D02*
X28582Y-128898D01*
X25400Y-132080D01*
X30480Y-127000D02*
X30480Y-109220D01*
D15*
X25400Y-132080D03*
D16*
X39025Y-1856D02*
X40640Y1960D01*
X39025Y-1856D02*
X40640Y-2540D01*
X42255Y-1856D02*
X40640Y1960D01*
X42255Y-1856D02*
X40640Y-2540D01*
X40640Y9509D02*
X39484Y13489D01*
X37800Y13000D01*
X36979Y11450D02*
X40640Y9509D01*
X36979Y11450D02*
X37800Y13000D01*
X34635Y-99744D02*
X33020Y-103560D01*
X34635Y-99744D02*
X33020Y-99060D01*
X31405Y-99744D02*
X33020Y-103560D01*
X31405Y-99744D02*
X33020Y-99060D01*
X28582Y-128898D02*
X24741Y-130454D01*
X25400Y-132080D01*
X27026Y-132739D02*
X28582Y-128898D01*
X27026Y-132739D02*
X25400Y-132080D01*
D15*
X15240Y-50800D03*
D16*
X25400Y-45720D02*
X43180Y-27940D01*
X25400Y-45720D02*
X20320Y-45720D01*
X18422Y-47618D02*
X15240Y-50800D01*
X18422Y-47618D02*
X20320Y-45720D01*
X76200Y0D02*
X88258Y12058D01*
D15*
X91440Y15240D03*
D16*
X88258Y12058D01*
X63500Y-27940D02*
X43180Y-27940D01*
X63500Y-27940D02*
X76200Y-15240D01*
X76200Y0D01*
X12058Y-47618D02*
X-2540Y-33020D01*
X12058Y-47618D02*
X15240Y-50800D01*
X-2540Y-33020D02*
X-22860Y-33020D01*
X-63500Y-73660D01*
X-63500Y-304800D01*
X14581Y-49174D02*
X18422Y-47618D01*
X14581Y-49174D02*
X15240Y-50800D01*
X16866Y-51459D02*
X18422Y-47618D01*
X16866Y-51459D02*
X15240Y-50800D01*
X13614Y-51459D02*
X12058Y-47618D01*
X13614Y-51459D02*
X15240Y-50800D01*
X15899Y-49174D02*
X12058Y-47618D01*
X15899Y-49174D02*
X15240Y-50800D01*
X88258Y12058D02*
X92099Y13614D01*
X91440Y15240D01*
X89814Y15899D02*
X88258Y12058D01*
X89814Y15899D02*
X91440Y15240D01*
D15*
X5080Y-50800D03*
D16*
X27940Y-50800D02*
X45720Y-33020D01*
X81280Y-10160D02*
X88258Y-3182D01*
D15*
X91440Y0D03*
D16*
X88258Y-3182D01*
X27940Y-50800D02*
X25400Y-50800D01*
X17780Y-58420D01*
X12700Y-58420D01*
X8262Y-53982D01*
X5080Y-50800D01*
X45720Y-33020D02*
X66040Y-33020D01*
X81280Y-17780D02*
X81280Y-10160D01*
X81280Y-17780D02*
X66040Y-33020D01*
X5080Y-50800D02*
X1898Y-47618D01*
X-7620Y-38100D01*
X-20320Y-38100D01*
X-58420Y-76200D01*
X-58420Y-284480D02*
X-38100Y-304800D01*
X-58420Y-284480D02*
X-58420Y-76200D01*
X6706Y-50141D02*
X8262Y-53982D01*
X6706Y-50141D02*
X5080Y-50800D01*
X4421Y-52426D02*
X8262Y-53982D01*
X4421Y-52426D02*
X5080Y-50800D01*
X3454Y-51459D02*
X1898Y-47618D01*
X3454Y-51459D02*
X5080Y-50800D01*
X5739Y-49174D02*
X1898Y-47618D01*
X5739Y-49174D02*
X5080Y-50800D01*
X88258Y-3182D02*
X92099Y-1626D01*
X91440Y0D01*
X89814Y659D02*
X88258Y-3182D01*
X89814Y659D02*
X91440Y0D01*
D15*
X-5080Y-50800D03*
X91440Y-15240D03*
D16*
X88258Y-18422D01*
X68580Y-38100D01*
X48260Y-38100D02*
X30480Y-55880D01*
X27940Y-55880D01*
X20320Y-63500D01*
X7620Y-63500D02*
X-1898Y-53982D01*
X-5080Y-50800D01*
X48260Y-38100D02*
X68580Y-38100D01*
X20320Y-63500D02*
X7620Y-63500D01*
X-5080Y-50800D02*
X-8262Y-47618D01*
X-12700Y-43180D01*
X-17780Y-43180D01*
X-53340Y-78740D01*
X-53340Y-264160D01*
X-12700Y-304800D01*
X-1898Y-53982D02*
X-3454Y-50141D01*
X-5080Y-50800D01*
X-5739Y-52426D02*
X-1898Y-53982D01*
X-5739Y-52426D02*
X-5080Y-50800D01*
X-6706Y-51459D02*
X-8262Y-47618D01*
X-6706Y-51459D02*
X-5080Y-50800D01*
X-4421Y-49174D02*
X-8262Y-47618D01*
X-4421Y-49174D02*
X-5080Y-50800D01*
X88258Y-18422D02*
X92099Y-16866D01*
X91440Y-15240D01*
X89814Y-14581D02*
X88258Y-18422D01*
X89814Y-14581D02*
X91440Y-15240D01*
D15*
X-15240Y-50800D03*
X91440Y-30480D03*
D16*
X50800Y-43180D02*
X33020Y-60960D01*
X-18422Y-53982D02*
X-48260Y-83820D01*
X-18422Y-53982D02*
X-15240Y-50800D01*
X50800Y-43180D02*
X71120Y-43180D01*
X83820Y-30480D01*
X86940Y-30480D01*
X91440Y-30480D01*
X-48260Y-243840D02*
X12700Y-304800D01*
X-48260Y-243840D02*
X-48260Y-83820D01*
X30480Y-60960D02*
X33020Y-60960D01*
X2540Y-68580D02*
X-12058Y-53982D01*
X-15240Y-50800D01*
X22860Y-68580D02*
X30480Y-60960D01*
X22860Y-68580D02*
X2540Y-68580D01*
X-14581Y-52426D02*
X-18422Y-53982D01*
X-14581Y-52426D02*
X-15240Y-50800D01*
X-16866Y-50141D02*
X-18422Y-53982D01*
X-16866Y-50141D02*
X-15240Y-50800D01*
X-13614Y-50141D02*
X-12058Y-53982D01*
X-13614Y-50141D02*
X-15240Y-50800D01*
X-15899Y-52426D02*
X-12058Y-53982D01*
X-15899Y-52426D02*
X-15240Y-50800D01*
X86940Y-30480D02*
X90756Y-32095D01*
X91440Y-30480D01*
X90756Y-28865D02*
X86940Y-30480D01*
X90756Y-28865D02*
X91440Y-30480D01*
D17*
X25400Y162560D03*
X-25400Y162560D03*
D15*
X91440Y106680D03*
D18*
X73660Y88900D01*
D15*
X73660Y63500D03*
X-68580Y63500D03*
X-99060Y132080D03*
D18*
X-99060Y93980D01*
X-68580Y63500D01*
D15*
X-53340Y-10160D03*
D18*
X-68580Y5080D01*
X-68580Y63500D01*
D15*
X-20320Y-154940D03*
X15240Y-154940D03*
X50800Y-154940D03*
D18*
X15240Y-154940D01*
X-20320Y-154940D01*
X-25400Y-149860D01*
X-25400Y-129822D01*
X-31750Y-123472D01*
X-31750Y-123190D01*
D15*
X-31750Y-123190D03*
X33020Y-91440D03*
X50800Y-101600D03*
D18*
X40640Y-91440D01*
X33020Y-91440D01*
X73660Y63500D02*
X73660Y88900D01*
X-43180Y88900D01*
X-68580Y63500D01*
D16*
X132080Y-104140D02*
X139700Y-96520D01*
X139700Y-12120D02*
X139700Y-7620D01*
X139700Y-12120D02*
X139700Y-43180D01*
X147320Y-50800D01*
D15*
X139700Y-7620D03*
D16*
X139700Y-63500D02*
X139700Y-96520D01*
X139700Y-63500D02*
X147320Y-55880D01*
X147320Y-50800D01*
X132080Y-104140D02*
X78160Y-104140D01*
X73660Y-104140D01*
D15*
X73660Y-104140D03*
D16*
X139700Y-12120D02*
X141315Y-8304D01*
X139700Y-7620D01*
X138085Y-8304D02*
X139700Y-12120D01*
X138085Y-8304D02*
X139700Y-7620D01*
X78160Y-104140D02*
X74344Y-102525D01*
X73660Y-104140D01*
X74344Y-105755D02*
X78160Y-104140D01*
X74344Y-105755D02*
X73660Y-104140D01*
D15*
X139700Y-53340D03*
D16*
X136518Y-56522D01*
X134620Y-58420D01*
X134620Y-93980D01*
X129540Y-99060D01*
D15*
X104140Y-96520D03*
D16*
X114300Y-99060D02*
X129540Y-99060D01*
X114300Y-99060D02*
X111760Y-96520D01*
X108640Y-96520D02*
X104140Y-96520D01*
X108640Y-96520D02*
X111760Y-96520D01*
X136518Y-56522D02*
X140359Y-54966D01*
X139700Y-53340D01*
X138074Y-52681D02*
X136518Y-56522D01*
X138074Y-52681D02*
X139700Y-53340D01*
X108640Y-96520D02*
X104824Y-94905D01*
X104140Y-96520D01*
X104824Y-98135D02*
X108640Y-96520D01*
X104824Y-98135D02*
X104140Y-96520D01*
X121920Y-40640D02*
X119380Y-38100D01*
X119380Y-34980D02*
X119380Y-30480D01*
X119380Y-34980D02*
X119380Y-38100D01*
X121920Y-40640D02*
X121920Y-87098D01*
D15*
X119380Y-30480D03*
D16*
X121920Y-87098D02*
X118848Y-90170D01*
X100330Y-90170D01*
X97162Y-93338D01*
D15*
X93980Y-96520D03*
D16*
X97162Y-93338D01*
X119380Y-34980D02*
X120995Y-31164D01*
X119380Y-30480D01*
X117765Y-31164D02*
X119380Y-34980D01*
X117765Y-31164D02*
X119380Y-30480D01*
X97162Y-93338D02*
X93321Y-94894D01*
X93980Y-96520D01*
X95606Y-97179D02*
X97162Y-93338D01*
X95606Y-97179D02*
X93980Y-96520D01*
D15*
X-129540Y-53340D03*
X-81280Y-182880D03*
D18*
X-81280Y-101600D01*
X-129540Y-53340D01*
X-78740Y-337820D02*
X-71120Y-345440D01*
X-78740Y-337820D02*
X-78740Y-297180D01*
X-71120Y-289560D01*
X-71120Y-86360D01*
X-119380Y-38100D01*
D15*
X-119380Y-38100D03*
D18*
X-12700Y-330200D02*
X-27940Y-345440D01*
X-71120Y-345440D01*
D15*
X127000Y-91440D03*
D16*
X129540Y38100D02*
X135200Y38100D01*
D15*
X139700Y38100D03*
D16*
X135200Y38100D01*
X127000Y-2540D02*
X127000Y-86940D01*
X127000Y-91440D01*
X127000Y-2540D02*
X113030Y11430D01*
X113030Y21590D01*
X129540Y38100D01*
X127000Y-86940D02*
X125385Y-90756D01*
X127000Y-91440D01*
X128615Y-90756D02*
X127000Y-86940D01*
X128615Y-90756D02*
X127000Y-91440D01*
X139016Y36485D02*
X135200Y38100D01*
X139016Y36485D02*
X139700Y38100D01*
X139016Y39715D02*
X135200Y38100D01*
X139016Y39715D02*
X139700Y38100D01*
D15*
X119380Y15240D03*
D16*
X152400Y22860D02*
X160020Y15240D01*
X152400Y22860D02*
X127000Y22860D01*
X122562Y18422D02*
X119380Y15240D01*
X122562Y18422D02*
X127000Y22860D01*
X160020Y15240D02*
X160020Y-93980D01*
X153042Y-100958D01*
D15*
X149860Y-104140D03*
D16*
X153042Y-100958D01*
X118721Y16866D02*
X122562Y18422D01*
X118721Y16866D02*
X119380Y15240D01*
X121006Y14581D02*
X122562Y18422D01*
X121006Y14581D02*
X119380Y15240D01*
X153042Y-100958D02*
X149201Y-102514D01*
X149860Y-104140D01*
X151486Y-104799D02*
X153042Y-100958D01*
X151486Y-104799D02*
X149860Y-104140D01*
D15*
X91440Y45720D03*
D16*
X88258Y42538D02*
X66040Y20320D01*
D15*
X-38100Y-7620D03*
D16*
X88258Y42538D02*
X91440Y45720D01*
X66040Y-10160D02*
X58420Y-17780D01*
X66040Y-10160D02*
X66040Y20320D01*
D15*
X-33020Y-86360D03*
D16*
X-38100Y-12120D02*
X-38100Y-7620D01*
X-38100Y-12120D02*
X-38100Y-12700D01*
X-33020Y-17780D01*
X58420Y-17780D01*
X-33020Y-86360D02*
X-33020Y-90860D01*
X-33020Y-99060D01*
X-38100Y-104140D01*
X-38100Y-220980D01*
X-12700Y-246380D01*
X5080Y-246380D02*
X63500Y-304800D01*
X5080Y-246380D02*
X-12700Y-246380D01*
X88258Y42538D02*
X92099Y44094D01*
X91440Y45720D01*
X89814Y46379D02*
X88258Y42538D01*
X89814Y46379D02*
X91440Y45720D01*
X-36485Y-8304D02*
X-38100Y-12120D01*
X-36485Y-8304D02*
X-38100Y-7620D01*
X-39715Y-8304D02*
X-38100Y-12120D01*
X-39715Y-8304D02*
X-38100Y-7620D01*
X-31405Y-87044D02*
X-33020Y-90860D01*
X-31405Y-87044D02*
X-33020Y-86360D01*
X-34635Y-87044D02*
X-33020Y-90860D01*
X-34635Y-87044D02*
X-33020Y-86360D01*
X-45720Y-20320D02*
X-45720Y-15820D01*
D15*
X-38100Y7620D03*
D16*
X-45720Y0D02*
X-45720Y-15820D01*
X-45720Y0D02*
X-41282Y4438D01*
X-38100Y7620D01*
X71120Y10160D02*
X88258Y27298D01*
D15*
X91440Y30480D03*
D16*
X88258Y27298D01*
X-43180Y-22860D02*
X-45720Y-20320D01*
X-42005Y-22860D02*
X60960Y-22860D01*
X-42005Y-22860D02*
X-43180Y-22860D01*
X60960Y-22860D02*
X71120Y-12700D01*
X71120Y10160D01*
D15*
X-40640Y-91440D03*
X-45720Y-20320D03*
D16*
X-43180Y-223520D02*
X38100Y-304800D01*
X-43180Y-223520D02*
X-43180Y-101600D01*
X-40640Y-95940D02*
X-40640Y-91440D01*
X-40640Y-95940D02*
X-40640Y-99060D01*
X-43180Y-101600D01*
X-41282Y4438D02*
X-37441Y5994D01*
X-38100Y7620D01*
X-39726Y8279D02*
X-41282Y4438D01*
X-39726Y8279D02*
X-38100Y7620D01*
X88258Y27298D02*
X92099Y28854D01*
X91440Y30480D01*
X89814Y31139D02*
X88258Y27298D01*
X89814Y31139D02*
X91440Y30480D01*
X-39025Y-92124D02*
X-40640Y-95940D01*
X-39025Y-92124D02*
X-40640Y-91440D01*
X-42255Y-92124D02*
X-40640Y-95940D01*
X-42255Y-92124D02*
X-40640Y-91440D01*
X-47335Y-19636D02*
X-45720Y-15820D01*
X-47335Y-19636D02*
X-45720Y-20320D01*
X-44105Y-19636D02*
X-45720Y-15820D01*
X-44105Y-19636D02*
X-45720Y-20320D01*
X-44244Y-19373D02*
X-42005Y-22860D01*
X-44244Y-19373D02*
X-45720Y-20320D01*
X-46067Y-22039D02*
X-42005Y-22860D01*
X-46067Y-22039D02*
X-45720Y-20320D01*
D15*
X33020Y-68683D03*
X90702Y-45720D03*
D16*
X86202Y-45720D01*
X76200Y-45720D01*
X73660Y-48260D01*
X53340Y-48260D01*
X33020Y-68580D02*
X33020Y-68683D01*
X33020Y-68580D02*
X36150Y-65450D01*
D15*
X-25400Y-109220D03*
D16*
X36150Y-65450D02*
X53340Y-48260D01*
X-20900Y-109220D02*
X-25400Y-109220D01*
X-20900Y-109220D02*
X10160Y-109220D01*
X15240Y-104140D01*
X15240Y-83820D01*
X28804Y-70256D01*
X30377Y-68683D01*
X33020Y-68683D01*
X32335Y-67068D02*
X36150Y-65450D01*
X32335Y-67068D02*
X33020Y-68683D01*
X34656Y-69315D02*
X36150Y-65450D01*
X34656Y-69315D02*
X33020Y-68683D01*
X32944Y-70435D02*
X28804Y-70256D01*
X32944Y-70435D02*
X33020Y-68683D01*
X31815Y-67409D02*
X28804Y-70256D01*
X31815Y-67409D02*
X33020Y-68683D01*
X86202Y-45720D02*
X90018Y-47335D01*
X90702Y-45720D01*
X90018Y-44105D02*
X86202Y-45720D01*
X90018Y-44105D02*
X90702Y-45720D01*
X-20900Y-109220D02*
X-24716Y-107605D01*
X-25400Y-109220D01*
X-24716Y-110835D02*
X-20900Y-109220D01*
X-24716Y-110835D02*
X-25400Y-109220D01*
D15*
X33020Y-76255D03*
X91440Y-60960D03*
D16*
X86940Y-60960D01*
X50800Y-60960D01*
X35505Y-76255D02*
X33020Y-76255D01*
X37192Y-74568D02*
X50800Y-60960D01*
D15*
X-17780Y-116840D03*
D16*
X35505Y-76255D02*
X37192Y-74568D01*
X33020Y-76255D02*
X30425Y-76255D01*
X28817Y-77863D01*
X20320Y-86360D01*
X20320Y-106680D01*
X12700Y-114300D01*
X-13280Y-116840D02*
X-17780Y-116840D01*
X-13280Y-116840D02*
X-5080Y-116840D01*
X-2540Y-114300D02*
X12700Y-114300D01*
X-2540Y-114300D02*
X-5080Y-116840D01*
X33048Y-74501D02*
X37192Y-74568D01*
X33048Y-74501D02*
X33020Y-76255D01*
X34259Y-77496D02*
X37192Y-74568D01*
X34259Y-77496D02*
X33020Y-76255D01*
X32959Y-78008D02*
X28817Y-77863D01*
X32959Y-78008D02*
X33020Y-76255D01*
X31804Y-74991D02*
X28817Y-77863D01*
X31804Y-74991D02*
X33020Y-76255D01*
X86940Y-60960D02*
X90756Y-62575D01*
X91440Y-60960D01*
X90756Y-59345D02*
X86940Y-60960D01*
X90756Y-59345D02*
X91440Y-60960D01*
X-13280Y-116840D02*
X-17096Y-115225D01*
X-17780Y-116840D01*
X-17096Y-118455D02*
X-13280Y-116840D01*
X-17096Y-118455D02*
X-17780Y-116840D01*
D15*
X33020Y-83827D03*
X91440Y-76200D03*
D16*
X37206Y-82174D02*
X35553Y-83827D01*
X37206Y-82174D02*
X43180Y-76200D01*
X86940Y-76200D02*
X91440Y-76200D01*
X86940Y-76200D02*
X43180Y-76200D01*
X35553Y-83827D02*
X33020Y-83827D01*
D15*
X0Y-121920D03*
D16*
X25400Y-88907D02*
X28832Y-85475D01*
X30480Y-83827D01*
X33020Y-83827D01*
X25400Y-88907D02*
X25400Y-111760D01*
X4500Y-121920D02*
X0Y-121920D01*
X4500Y-121920D02*
X15240Y-121920D01*
X25400Y-111760D01*
X33063Y-82074D02*
X37206Y-82174D01*
X33063Y-82074D02*
X33020Y-83827D01*
X34249Y-85078D02*
X37206Y-82174D01*
X34249Y-85078D02*
X33020Y-83827D01*
X32975Y-85580D02*
X28832Y-85475D01*
X32975Y-85580D02*
X33020Y-83827D01*
X31792Y-82574D02*
X28832Y-85475D01*
X31792Y-82574D02*
X33020Y-83827D01*
X86940Y-76200D02*
X90756Y-77815D01*
X91440Y-76200D01*
X90756Y-74585D02*
X86940Y-76200D01*
X90756Y-74585D02*
X91440Y-76200D01*
X4500Y-121920D02*
X684Y-120305D01*
X0Y-121920D01*
X684Y-123535D02*
X4500Y-121920D01*
X684Y-123535D02*
X0Y-121920D01*
D15*
X-12700Y-218440D03*
D18*
X81280Y-218440D01*
D15*
X81280Y-218440D03*
M02*
