G04 EAGLE Gerber RS-274X export*
G75*
%MOMM*%
%FSLAX34Y34*%
%LPD*%
%INGBO*%
%IPPOS*%
%AMOC8*
5,1,8,0,0,1.08239X$1,22.5*%
G01*
%ADD10C,0.152400*%
%ADD11C,0.101600*%
%ADD12C,0.203200*%
%ADD13C,0.127000*%

G36*
X-9975Y-63250D02*
X-9975Y-63250D01*
X-9919Y-63250D01*
X-9891Y-63235D01*
X-9859Y-63230D01*
X-9800Y-63190D01*
X-9765Y-63172D01*
X-9755Y-63160D01*
X-9739Y-63149D01*
X-5431Y-58841D01*
X-5414Y-58814D01*
X-5390Y-58793D01*
X-5369Y-58741D01*
X-5340Y-58694D01*
X-5337Y-58662D01*
X-5325Y-58632D01*
X-5329Y-58577D01*
X-5323Y-58521D01*
X-5335Y-58491D01*
X-5337Y-58459D01*
X-5371Y-58396D01*
X-5385Y-58359D01*
X-5396Y-58349D01*
X-5405Y-58332D01*
X-10372Y-52241D01*
X-9183Y-49931D01*
X-9176Y-49905D01*
X-9159Y-49873D01*
X-8367Y-47399D01*
X-548Y-46605D01*
X-517Y-46595D01*
X-485Y-46594D01*
X-436Y-46567D01*
X-384Y-46549D01*
X-361Y-46526D01*
X-333Y-46511D01*
X-301Y-46465D01*
X-262Y-46426D01*
X-252Y-46395D01*
X-233Y-46369D01*
X-220Y-46299D01*
X-207Y-46261D01*
X-209Y-46246D01*
X-206Y-46227D01*
X-206Y-40133D01*
X-213Y-40102D01*
X-211Y-40070D01*
X-233Y-40019D01*
X-245Y-39964D01*
X-266Y-39940D01*
X-278Y-39910D01*
X-320Y-39874D01*
X-355Y-39831D01*
X-385Y-39818D01*
X-409Y-39797D01*
X-478Y-39776D01*
X-514Y-39760D01*
X-529Y-39760D01*
X-548Y-39755D01*
X-8367Y-38961D01*
X-9159Y-36487D01*
X-9172Y-36464D01*
X-9183Y-36429D01*
X-10372Y-34119D01*
X-5405Y-28028D01*
X-5391Y-28000D01*
X-5370Y-27976D01*
X-5354Y-27923D01*
X-5329Y-27873D01*
X-5329Y-27841D01*
X-5320Y-27810D01*
X-5330Y-27755D01*
X-5330Y-27699D01*
X-5345Y-27671D01*
X-5350Y-27639D01*
X-5390Y-27580D01*
X-5408Y-27545D01*
X-5420Y-27535D01*
X-5431Y-27519D01*
X-9739Y-23211D01*
X-9766Y-23194D01*
X-9787Y-23170D01*
X-9839Y-23149D01*
X-9886Y-23120D01*
X-9918Y-23117D01*
X-9948Y-23105D01*
X-10003Y-23109D01*
X-10059Y-23103D01*
X-10089Y-23115D01*
X-10121Y-23117D01*
X-10184Y-23151D01*
X-10221Y-23165D01*
X-10231Y-23176D01*
X-10248Y-23185D01*
X-16339Y-28152D01*
X-18649Y-26963D01*
X-18675Y-26956D01*
X-18707Y-26939D01*
X-21181Y-26147D01*
X-21975Y-18328D01*
X-21983Y-18302D01*
X-21984Y-18290D01*
X-21986Y-18287D01*
X-21986Y-18265D01*
X-22013Y-18216D01*
X-22031Y-18164D01*
X-22054Y-18141D01*
X-22069Y-18113D01*
X-22115Y-18081D01*
X-22154Y-18042D01*
X-22185Y-18032D01*
X-22211Y-18013D01*
X-22281Y-18000D01*
X-22319Y-17987D01*
X-22334Y-17989D01*
X-22353Y-17986D01*
X-28447Y-17986D01*
X-28478Y-17993D01*
X-28510Y-17991D01*
X-28561Y-18013D01*
X-28616Y-18025D01*
X-28640Y-18046D01*
X-28670Y-18058D01*
X-28706Y-18100D01*
X-28749Y-18135D01*
X-28762Y-18165D01*
X-28783Y-18189D01*
X-28804Y-18258D01*
X-28820Y-18294D01*
X-28820Y-18309D01*
X-28822Y-18316D01*
X-28823Y-18318D01*
X-28823Y-18319D01*
X-28825Y-18328D01*
X-29619Y-26147D01*
X-32093Y-26939D01*
X-32116Y-26952D01*
X-32151Y-26963D01*
X-34461Y-28152D01*
X-40552Y-23185D01*
X-40580Y-23171D01*
X-40604Y-23150D01*
X-40657Y-23134D01*
X-40707Y-23109D01*
X-40739Y-23109D01*
X-40770Y-23100D01*
X-40825Y-23110D01*
X-40881Y-23110D01*
X-40909Y-23125D01*
X-40941Y-23130D01*
X-41000Y-23170D01*
X-41036Y-23188D01*
X-41045Y-23200D01*
X-41061Y-23211D01*
X-45369Y-27519D01*
X-45386Y-27546D01*
X-45410Y-27567D01*
X-45431Y-27619D01*
X-45460Y-27666D01*
X-45463Y-27698D01*
X-45475Y-27728D01*
X-45472Y-27783D01*
X-45477Y-27839D01*
X-45465Y-27869D01*
X-45463Y-27901D01*
X-45429Y-27964D01*
X-45415Y-28001D01*
X-45404Y-28011D01*
X-45395Y-28028D01*
X-40428Y-34119D01*
X-41617Y-36429D01*
X-41624Y-36455D01*
X-41641Y-36487D01*
X-42433Y-38961D01*
X-50252Y-39755D01*
X-50283Y-39765D01*
X-50315Y-39766D01*
X-50364Y-39793D01*
X-50416Y-39811D01*
X-50439Y-39834D01*
X-50467Y-39849D01*
X-50499Y-39895D01*
X-50538Y-39934D01*
X-50548Y-39965D01*
X-50567Y-39991D01*
X-50580Y-40061D01*
X-50593Y-40099D01*
X-50591Y-40114D01*
X-50594Y-40133D01*
X-50594Y-46227D01*
X-50587Y-46258D01*
X-50589Y-46290D01*
X-50567Y-46341D01*
X-50555Y-46396D01*
X-50534Y-46420D01*
X-50522Y-46450D01*
X-50480Y-46486D01*
X-50445Y-46529D01*
X-50415Y-46542D01*
X-50391Y-46563D01*
X-50322Y-46584D01*
X-50286Y-46600D01*
X-50271Y-46600D01*
X-50252Y-46605D01*
X-42433Y-47399D01*
X-41641Y-49873D01*
X-41628Y-49896D01*
X-41617Y-49931D01*
X-40428Y-52241D01*
X-45395Y-58332D01*
X-45409Y-58360D01*
X-45430Y-58384D01*
X-45446Y-58437D01*
X-45471Y-58487D01*
X-45471Y-58519D01*
X-45480Y-58550D01*
X-45470Y-58605D01*
X-45470Y-58661D01*
X-45455Y-58689D01*
X-45450Y-58721D01*
X-45410Y-58780D01*
X-45392Y-58816D01*
X-45380Y-58825D01*
X-45369Y-58841D01*
X-41061Y-63149D01*
X-41034Y-63166D01*
X-41013Y-63190D01*
X-40961Y-63211D01*
X-40914Y-63240D01*
X-40882Y-63243D01*
X-40852Y-63255D01*
X-40797Y-63252D01*
X-40741Y-63257D01*
X-40711Y-63245D01*
X-40679Y-63243D01*
X-40616Y-63209D01*
X-40579Y-63195D01*
X-40569Y-63184D01*
X-40552Y-63175D01*
X-34461Y-58208D01*
X-32152Y-59398D01*
X-32088Y-59414D01*
X-32025Y-59437D01*
X-32004Y-59435D01*
X-31984Y-59440D01*
X-31919Y-59426D01*
X-31853Y-59419D01*
X-31835Y-59408D01*
X-31815Y-59403D01*
X-31763Y-59362D01*
X-31707Y-59326D01*
X-31694Y-59307D01*
X-31679Y-59295D01*
X-31663Y-59261D01*
X-31627Y-59206D01*
X-28039Y-50544D01*
X-28034Y-50512D01*
X-28020Y-50484D01*
X-28020Y-50428D01*
X-28011Y-50373D01*
X-28020Y-50342D01*
X-28020Y-50311D01*
X-28045Y-50260D01*
X-28061Y-50207D01*
X-28083Y-50184D01*
X-28097Y-50155D01*
X-28153Y-50109D01*
X-28180Y-50081D01*
X-28194Y-50076D01*
X-28209Y-50064D01*
X-29586Y-49319D01*
X-30752Y-48335D01*
X-31692Y-47133D01*
X-32366Y-45765D01*
X-32747Y-44287D01*
X-32819Y-42763D01*
X-32577Y-41257D01*
X-32033Y-39831D01*
X-31209Y-38547D01*
X-30140Y-37458D01*
X-28872Y-36610D01*
X-27457Y-36040D01*
X-25955Y-35770D01*
X-24430Y-35813D01*
X-22946Y-36166D01*
X-21565Y-36816D01*
X-20346Y-37733D01*
X-19340Y-38880D01*
X-18589Y-40209D01*
X-18126Y-41662D01*
X-17969Y-43181D01*
X-18112Y-44630D01*
X-18535Y-46024D01*
X-19221Y-47308D01*
X-20145Y-48434D01*
X-21271Y-49358D01*
X-22589Y-50063D01*
X-22614Y-50084D01*
X-22643Y-50098D01*
X-22678Y-50141D01*
X-22719Y-50177D01*
X-22732Y-50207D01*
X-22752Y-50232D01*
X-22764Y-50286D01*
X-22785Y-50337D01*
X-22783Y-50370D01*
X-22790Y-50402D01*
X-22776Y-50471D01*
X-22773Y-50510D01*
X-22765Y-50524D01*
X-22761Y-50544D01*
X-19173Y-59206D01*
X-19134Y-59260D01*
X-19102Y-59317D01*
X-19085Y-59329D01*
X-19072Y-59346D01*
X-19014Y-59378D01*
X-18959Y-59415D01*
X-18938Y-59418D01*
X-18919Y-59428D01*
X-18853Y-59430D01*
X-18787Y-59439D01*
X-18764Y-59432D01*
X-18746Y-59433D01*
X-18711Y-59416D01*
X-18648Y-59398D01*
X-16339Y-58208D01*
X-10248Y-63175D01*
X-10220Y-63189D01*
X-10196Y-63210D01*
X-10143Y-63226D01*
X-10093Y-63251D01*
X-10061Y-63251D01*
X-10030Y-63260D01*
X-9975Y-63250D01*
G37*
D10*
X132744Y11557D02*
X129016Y11557D01*
X130880Y11557D02*
X130880Y22743D01*
X132744Y22743D02*
X129016Y22743D01*
X124948Y11557D02*
X117491Y11557D01*
X124948Y11557D02*
X117491Y19014D01*
X117491Y20878D01*
X119356Y22743D01*
X123084Y22743D01*
X124948Y20878D01*
X107662Y22743D02*
X105797Y20878D01*
X107662Y22743D02*
X111390Y22743D01*
X113255Y20878D01*
X113255Y13421D01*
X111390Y11557D01*
X107662Y11557D01*
X105797Y13421D01*
X86138Y11557D02*
X86138Y22743D01*
X82410Y22743D02*
X89867Y22743D01*
X78173Y22743D02*
X78173Y11557D01*
X78173Y17150D02*
X76308Y19014D01*
X72580Y19014D01*
X70716Y17150D01*
X70716Y11557D01*
X64614Y11557D02*
X60886Y11557D01*
X64614Y11557D02*
X66479Y13421D01*
X66479Y17150D01*
X64614Y19014D01*
X60886Y19014D01*
X59022Y17150D01*
X59022Y15286D01*
X66479Y15286D01*
X54785Y19014D02*
X54785Y11557D01*
X54785Y19014D02*
X52920Y19014D01*
X51056Y17150D01*
X51056Y11557D01*
X51056Y17150D02*
X49192Y19014D01*
X47328Y17150D01*
X47328Y11557D01*
X41226Y11557D02*
X37498Y11557D01*
X35634Y13421D01*
X35634Y17150D01*
X37498Y19014D01*
X41226Y19014D01*
X43091Y17150D01*
X43091Y13421D01*
X41226Y11557D01*
X29532Y19014D02*
X23940Y19014D01*
X29532Y19014D02*
X31397Y17150D01*
X31397Y13421D01*
X29532Y11557D01*
X23940Y11557D01*
X17839Y11557D02*
X14110Y11557D01*
X12246Y13421D01*
X12246Y17150D01*
X14110Y19014D01*
X17839Y19014D01*
X19703Y17150D01*
X19703Y13421D01*
X17839Y11557D01*
X8009Y13421D02*
X8009Y19014D01*
X8009Y13421D02*
X6145Y11557D01*
X552Y11557D01*
X552Y19014D01*
X-3685Y19014D02*
X-3685Y7829D01*
X-3685Y19014D02*
X-9278Y19014D01*
X-11142Y17150D01*
X-11142Y13421D01*
X-9278Y11557D01*
X-3685Y11557D01*
X-15379Y22743D02*
X-17243Y22743D01*
X-17243Y11557D01*
X-15379Y11557D02*
X-19108Y11557D01*
X-25039Y11557D02*
X-28768Y11557D01*
X-25039Y11557D02*
X-23175Y13421D01*
X-23175Y17150D01*
X-25039Y19014D01*
X-28768Y19014D01*
X-30632Y17150D01*
X-30632Y15286D01*
X-23175Y15286D01*
X-46563Y11557D02*
X-46563Y19014D01*
X-50292Y22743D01*
X-54020Y19014D01*
X-54020Y11557D01*
X-54020Y17150D02*
X-46563Y17150D01*
X-58257Y19014D02*
X-58257Y11557D01*
X-58257Y19014D02*
X-60121Y19014D01*
X-61986Y17150D01*
X-61986Y11557D01*
X-61986Y17150D02*
X-63850Y19014D01*
X-65714Y17150D01*
X-65714Y11557D01*
X-69951Y7829D02*
X-69951Y19014D01*
X-75544Y19014D01*
X-77408Y17150D01*
X-77408Y13421D01*
X-75544Y11557D01*
X-69951Y11557D01*
X-81645Y22743D02*
X-83509Y22743D01*
X-83509Y11557D01*
X-81645Y11557D02*
X-85373Y11557D01*
X-89441Y19014D02*
X-91305Y19014D01*
X-91305Y11557D01*
X-89441Y11557D02*
X-93169Y11557D01*
X-91305Y22743D02*
X-91305Y24607D01*
X-99101Y20878D02*
X-99101Y11557D01*
X-99101Y20878D02*
X-100965Y22743D01*
X-100965Y17150D02*
X-97237Y17150D01*
X-105033Y19014D02*
X-106897Y19014D01*
X-106897Y11557D01*
X-105033Y11557D02*
X-108761Y11557D01*
X-106897Y22743D02*
X-106897Y24607D01*
X-114693Y11557D02*
X-118422Y11557D01*
X-114693Y11557D02*
X-112829Y13421D01*
X-112829Y17150D01*
X-114693Y19014D01*
X-118422Y19014D01*
X-120286Y17150D01*
X-120286Y15286D01*
X-112829Y15286D01*
X-124523Y19014D02*
X-124523Y11557D01*
X-124523Y15286D02*
X-128251Y19014D01*
X-130116Y19014D01*
X96857Y-7493D02*
X100586Y-3765D01*
X100586Y-36D01*
X96857Y3693D01*
X92790Y3693D02*
X92790Y-7493D01*
X89062Y-36D02*
X92790Y3693D01*
X89062Y-36D02*
X85333Y3693D01*
X85333Y-7493D01*
X75503Y3693D02*
X73639Y1828D01*
X75503Y3693D02*
X79232Y3693D01*
X81096Y1828D01*
X81096Y-5629D01*
X79232Y-7493D01*
X75503Y-7493D01*
X73639Y-5629D01*
X69402Y-7493D02*
X69402Y3693D01*
X63809Y3693D01*
X61945Y1828D01*
X61945Y-1900D01*
X63809Y-3765D01*
X69402Y-3765D01*
X57708Y-5629D02*
X55844Y-7493D01*
X52115Y-7493D01*
X50251Y-5629D01*
X50251Y1828D01*
X52115Y3693D01*
X55844Y3693D01*
X57708Y1828D01*
X57708Y-36D01*
X55844Y-1900D01*
X50251Y-1900D01*
X42286Y1828D02*
X38557Y3693D01*
X42286Y1828D02*
X46014Y-1900D01*
X46014Y-5629D01*
X44150Y-7493D01*
X40421Y-7493D01*
X38557Y-5629D01*
X38557Y-3765D01*
X40421Y-1900D01*
X46014Y-1900D01*
X34320Y1828D02*
X34320Y-5629D01*
X34320Y1828D02*
X32456Y3693D01*
X28727Y3693D01*
X26863Y1828D01*
X26863Y-5629D01*
X28727Y-7493D01*
X32456Y-7493D01*
X34320Y-5629D01*
X26863Y1828D01*
X22626Y3693D02*
X15169Y-7493D01*
X22626Y-7493D02*
X15169Y3693D01*
X3475Y3693D02*
X10932Y-7493D01*
X-762Y-7493D02*
X-762Y3693D01*
X-762Y-7493D02*
X-8219Y-7493D01*
X-12456Y-5629D02*
X-12456Y1828D01*
X-14320Y3693D01*
X-18048Y3693D01*
X-19913Y1828D01*
X-19913Y-5629D01*
X-18048Y-7493D01*
X-14320Y-7493D01*
X-12456Y-5629D01*
X-19913Y1828D01*
X-24150Y3693D02*
X-31607Y-7493D01*
X-24150Y-7493D02*
X-31607Y3693D01*
X-43301Y3693D02*
X-35844Y-7493D01*
X-47538Y-7493D02*
X-47538Y3693D01*
X-53130Y3693D01*
X-54995Y1828D01*
X-54995Y-1900D01*
X-53130Y-3765D01*
X-47538Y-3765D01*
X-51266Y-3765D02*
X-54995Y-7493D01*
X-59232Y-7493D02*
X-59232Y3693D01*
X-59232Y-7493D02*
X-66689Y-7493D01*
X-70926Y-5629D02*
X-70926Y1828D01*
X-72790Y3693D01*
X-76518Y3693D01*
X-78383Y1828D01*
X-78383Y-5629D01*
X-76518Y-7493D01*
X-72790Y-7493D01*
X-70926Y-5629D01*
X-78383Y1828D01*
X-82620Y3693D02*
X-90077Y-7493D01*
X-82620Y-7493D02*
X-90077Y3693D01*
X-98042Y-3765D02*
X-94314Y-7493D01*
X-98042Y-3765D02*
X-98042Y-36D01*
X-94314Y3693D01*
D11*
X85450Y76073D02*
X85450Y83954D01*
X88077Y83954D02*
X82823Y83954D01*
X79891Y81327D02*
X79891Y77386D01*
X78578Y76073D01*
X74638Y76073D01*
X74638Y74760D02*
X74638Y81327D01*
X74638Y74760D02*
X75951Y73446D01*
X77264Y73446D01*
X71706Y73446D02*
X71706Y81327D01*
X67765Y81327D01*
X66452Y80013D01*
X66452Y77386D01*
X67765Y76073D01*
X71706Y76073D01*
X62206Y76073D02*
X59579Y76073D01*
X62206Y76073D02*
X63520Y77386D01*
X63520Y80013D01*
X62206Y81327D01*
X59579Y81327D01*
X58266Y80013D01*
X58266Y78700D01*
X63520Y78700D01*
X47148Y78700D02*
X44521Y76073D01*
X47148Y78700D02*
X47148Y81327D01*
X44521Y83954D01*
X41691Y83954D02*
X41691Y76073D01*
X41691Y78700D02*
X36437Y83954D01*
X40378Y80013D02*
X36437Y76073D01*
X25320Y77386D02*
X24006Y76073D01*
X22693Y76073D01*
X21379Y77386D01*
X21379Y83954D01*
X20066Y83954D02*
X22693Y83954D01*
X6321Y83954D02*
X6321Y76073D01*
X8948Y83954D02*
X3694Y83954D01*
X-7424Y83954D02*
X-7424Y76073D01*
X-12677Y76073D02*
X-7424Y83954D01*
X-12677Y83954D02*
X-12677Y76073D01*
X-27736Y83954D02*
X-29049Y82640D01*
X-27736Y83954D02*
X-25109Y83954D01*
X-23795Y82640D01*
X-23795Y81327D01*
X-25109Y80013D01*
X-27736Y80013D01*
X-29049Y78700D01*
X-29049Y77386D01*
X-27736Y76073D01*
X-25109Y76073D01*
X-23795Y77386D01*
X-40167Y83954D02*
X-45421Y83954D01*
X-40167Y83954D02*
X-40167Y76073D01*
X-45421Y76073D01*
X-42794Y80013D02*
X-40167Y80013D01*
X-56538Y76073D02*
X-56538Y83954D01*
X-60479Y83954D01*
X-61792Y82640D01*
X-61792Y81327D01*
X-60479Y80013D01*
X-61792Y78700D01*
X-61792Y77386D01*
X-60479Y76073D01*
X-56538Y76073D01*
X-56538Y80013D02*
X-60479Y80013D01*
X-72910Y76073D02*
X-72910Y83954D01*
X-76850Y83954D01*
X-78164Y82640D01*
X-78164Y80013D01*
X-76850Y78700D01*
X-72910Y78700D01*
X-75537Y78700D02*
X-78164Y76073D01*
X-81096Y76073D02*
X-83723Y78700D01*
X-83723Y81327D01*
X-81096Y83954D01*
D10*
X61480Y115697D02*
X61480Y126883D01*
X65208Y126883D02*
X57751Y126883D01*
X53515Y126883D02*
X53515Y115697D01*
X53515Y121290D02*
X51650Y123154D01*
X47922Y123154D01*
X46057Y121290D01*
X46057Y115697D01*
X39956Y115697D02*
X36228Y115697D01*
X39956Y115697D02*
X41821Y117561D01*
X41821Y121290D01*
X39956Y123154D01*
X36228Y123154D01*
X34364Y121290D01*
X34364Y119426D01*
X41821Y119426D01*
X30127Y123154D02*
X30127Y115697D01*
X30127Y119426D02*
X26398Y123154D01*
X24534Y123154D01*
X20382Y123154D02*
X20382Y115697D01*
X20382Y123154D02*
X18517Y123154D01*
X16653Y121290D01*
X16653Y115697D01*
X16653Y121290D02*
X14789Y123154D01*
X12925Y121290D01*
X12925Y115697D01*
X6823Y115697D02*
X3095Y115697D01*
X1231Y117561D01*
X1231Y121290D01*
X3095Y123154D01*
X6823Y123154D01*
X8688Y121290D01*
X8688Y117561D01*
X6823Y115697D01*
X-4871Y123154D02*
X-10463Y123154D01*
X-4871Y123154D02*
X-3006Y121290D01*
X-3006Y117561D01*
X-4871Y115697D01*
X-10463Y115697D01*
X-16565Y115697D02*
X-20293Y115697D01*
X-22157Y117561D01*
X-22157Y121290D01*
X-20293Y123154D01*
X-16565Y123154D01*
X-14700Y121290D01*
X-14700Y117561D01*
X-16565Y115697D01*
X-26394Y117561D02*
X-26394Y123154D01*
X-26394Y117561D02*
X-28259Y115697D01*
X-33851Y115697D01*
X-33851Y123154D01*
X-38088Y123154D02*
X-38088Y111969D01*
X-38088Y123154D02*
X-43681Y123154D01*
X-45545Y121290D01*
X-45545Y117561D01*
X-43681Y115697D01*
X-38088Y115697D01*
X-49782Y126883D02*
X-51646Y126883D01*
X-51646Y115697D01*
X-49782Y115697D02*
X-53511Y115697D01*
X-59442Y115697D02*
X-63171Y115697D01*
X-59442Y115697D02*
X-57578Y117561D01*
X-57578Y121290D01*
X-59442Y123154D01*
X-63171Y123154D01*
X-65035Y121290D01*
X-65035Y119426D01*
X-57578Y119426D01*
X13730Y96647D02*
X17458Y96647D01*
X15594Y96647D02*
X15594Y107833D01*
X17458Y107833D02*
X13730Y107833D01*
X9662Y104104D02*
X9662Y96647D01*
X9662Y104104D02*
X4069Y104104D01*
X2205Y102240D01*
X2205Y96647D01*
X-2032Y92919D02*
X-2032Y104104D01*
X-7625Y104104D01*
X-9489Y102240D01*
X-9489Y98511D01*
X-7625Y96647D01*
X-2032Y96647D01*
X-13726Y98511D02*
X-13726Y104104D01*
X-13726Y98511D02*
X-15590Y96647D01*
X-21183Y96647D01*
X-21183Y104104D01*
X-27284Y105968D02*
X-27284Y98511D01*
X-29148Y96647D01*
X-29148Y104104D02*
X-25420Y104104D01*
D11*
X-157607Y-277890D02*
X-152353Y-280517D01*
X-152353Y-275263D02*
X-157607Y-277890D01*
X-152353Y-272331D02*
X-149726Y-269704D01*
X-157607Y-269704D01*
X-157607Y-267078D02*
X-157607Y-272331D01*
X-157607Y-264146D02*
X-156294Y-264146D01*
X-156294Y-262832D01*
X-157607Y-262832D01*
X-157607Y-264146D01*
X-156294Y-260053D02*
X-151040Y-260053D01*
X-149726Y-258739D01*
X-149726Y-256112D01*
X-151040Y-254799D01*
X-156294Y-254799D01*
X-157607Y-256112D01*
X-157607Y-258739D01*
X-156294Y-260053D01*
X-151040Y-254799D01*
X69352Y-240377D02*
X69352Y-236479D01*
X69352Y-240377D02*
X67403Y-242326D01*
X59607Y-242326D01*
X57658Y-240377D01*
X57658Y-236479D01*
X59607Y-234530D01*
X67403Y-234530D01*
X69352Y-236479D01*
X69352Y-224785D02*
X67403Y-222836D01*
X69352Y-224785D02*
X69352Y-228683D01*
X67403Y-230632D01*
X59607Y-230632D01*
X57658Y-228683D01*
X57658Y-224785D01*
X59607Y-222836D01*
X43952Y-236479D02*
X42003Y-234530D01*
X43952Y-236479D02*
X43952Y-240377D01*
X42003Y-242326D01*
X40054Y-242326D01*
X38105Y-240377D01*
X38105Y-236479D01*
X36156Y-234530D01*
X34207Y-234530D01*
X32258Y-236479D01*
X32258Y-240377D01*
X34207Y-242326D01*
X43952Y-224785D02*
X42003Y-222836D01*
X43952Y-224785D02*
X43952Y-228683D01*
X42003Y-230632D01*
X34207Y-230632D01*
X32258Y-228683D01*
X32258Y-224785D01*
X34207Y-222836D01*
X16603Y-242326D02*
X8807Y-242326D01*
X16603Y-242326D02*
X18552Y-240377D01*
X18552Y-236479D01*
X16603Y-234530D01*
X8807Y-234530D01*
X6858Y-236479D01*
X6858Y-240377D01*
X8807Y-242326D01*
X16603Y-234530D01*
X14654Y-230632D02*
X18552Y-226734D01*
X6858Y-226734D01*
X6858Y-230632D02*
X6858Y-222836D01*
X-8797Y-242326D02*
X-16593Y-242326D01*
X-8797Y-242326D02*
X-6848Y-240377D01*
X-6848Y-236479D01*
X-8797Y-234530D01*
X-16593Y-234530D01*
X-18542Y-236479D01*
X-18542Y-240377D01*
X-16593Y-242326D01*
X-8797Y-234530D01*
X-18542Y-230632D02*
X-18542Y-222836D01*
X-18542Y-230632D02*
X-10746Y-222836D01*
X-8797Y-222836D01*
X-6848Y-224785D01*
X-6848Y-228683D01*
X-8797Y-230632D01*
X-34197Y-242326D02*
X-41993Y-242326D01*
X-34197Y-242326D02*
X-32248Y-240377D01*
X-32248Y-236479D01*
X-34197Y-234530D01*
X-41993Y-234530D01*
X-43942Y-236479D01*
X-43942Y-240377D01*
X-41993Y-242326D01*
X-34197Y-234530D01*
X-34197Y-230632D02*
X-32248Y-228683D01*
X-32248Y-224785D01*
X-34197Y-222836D01*
X-36146Y-222836D01*
X-38095Y-224785D01*
X-38095Y-226734D01*
X-38095Y-224785D02*
X-40044Y-222836D01*
X-41993Y-222836D01*
X-43942Y-224785D01*
X-43942Y-228683D01*
X-41993Y-230632D01*
X-59597Y-242326D02*
X-67393Y-242326D01*
X-59597Y-242326D02*
X-57648Y-240377D01*
X-57648Y-236479D01*
X-59597Y-234530D01*
X-67393Y-234530D01*
X-69342Y-236479D01*
X-69342Y-240377D01*
X-67393Y-242326D01*
X-59597Y-234530D01*
X-57648Y-224785D02*
X-69342Y-224785D01*
X-63495Y-230632D02*
X-57648Y-224785D01*
X-63495Y-222836D02*
X-63495Y-230632D01*
X67403Y-275937D02*
X69352Y-277886D01*
X69352Y-281784D01*
X67403Y-283733D01*
X65454Y-283733D01*
X63505Y-281784D01*
X63505Y-277886D01*
X61556Y-275937D01*
X59607Y-275937D01*
X57658Y-277886D01*
X57658Y-281784D01*
X59607Y-283733D01*
X57658Y-272039D02*
X69352Y-272039D01*
X57658Y-272039D02*
X57658Y-266192D01*
X59607Y-264243D01*
X67403Y-264243D01*
X69352Y-266192D01*
X69352Y-272039D01*
X65454Y-260345D02*
X57658Y-260345D01*
X65454Y-260345D02*
X69352Y-256447D01*
X65454Y-252549D01*
X57658Y-252549D01*
X63505Y-252549D02*
X63505Y-260345D01*
X43952Y-277886D02*
X42003Y-275937D01*
X43952Y-277886D02*
X43952Y-281784D01*
X42003Y-283733D01*
X40054Y-283733D01*
X38105Y-281784D01*
X38105Y-277886D01*
X36156Y-275937D01*
X34207Y-275937D01*
X32258Y-277886D01*
X32258Y-281784D01*
X34207Y-283733D01*
X43952Y-266192D02*
X42003Y-264243D01*
X43952Y-266192D02*
X43952Y-270090D01*
X42003Y-272039D01*
X34207Y-272039D01*
X32258Y-270090D01*
X32258Y-266192D01*
X34207Y-264243D01*
X32258Y-260345D02*
X43952Y-260345D01*
X32258Y-260345D02*
X32258Y-252549D01*
X6858Y-277886D02*
X6858Y-281784D01*
X6858Y-279835D02*
X18552Y-279835D01*
X18552Y-281784D02*
X18552Y-277886D01*
X18552Y-273988D02*
X6858Y-273988D01*
X6858Y-266192D02*
X18552Y-273988D01*
X18552Y-266192D02*
X6858Y-266192D01*
X6858Y-258396D02*
X18552Y-258396D01*
X18552Y-262294D02*
X18552Y-254498D01*
X-6848Y-281784D02*
X-8797Y-283733D01*
X-6848Y-281784D02*
X-6848Y-277886D01*
X-8797Y-275937D01*
X-10746Y-275937D01*
X-12695Y-277886D01*
X-12695Y-279835D01*
X-12695Y-277886D02*
X-14644Y-275937D01*
X-16593Y-275937D01*
X-18542Y-277886D01*
X-18542Y-281784D01*
X-16593Y-283733D01*
X-14644Y-272039D02*
X-6848Y-272039D01*
X-14644Y-272039D02*
X-18542Y-268141D01*
X-14644Y-264243D01*
X-6848Y-264243D01*
X-8797Y-260345D02*
X-6848Y-258396D01*
X-6848Y-254498D01*
X-8797Y-252549D01*
X-10746Y-252549D01*
X-12695Y-254498D01*
X-12695Y-256447D01*
X-12695Y-254498D02*
X-14644Y-252549D01*
X-16593Y-252549D01*
X-18542Y-254498D01*
X-18542Y-258396D01*
X-16593Y-260345D01*
X-32248Y-270090D02*
X-32248Y-277886D01*
X-38095Y-277886D01*
X-36146Y-273988D01*
X-36146Y-272039D01*
X-38095Y-270090D01*
X-41993Y-270090D01*
X-43942Y-272039D01*
X-43942Y-275937D01*
X-41993Y-277886D01*
X-40044Y-266192D02*
X-32248Y-266192D01*
X-40044Y-266192D02*
X-43942Y-262294D01*
X-40044Y-258396D01*
X-32248Y-258396D01*
X-57648Y-277886D02*
X-59597Y-275937D01*
X-57648Y-277886D02*
X-57648Y-281784D01*
X-59597Y-283733D01*
X-67393Y-283733D01*
X-69342Y-281784D01*
X-69342Y-277886D01*
X-67393Y-275937D01*
X-63495Y-275937D01*
X-63495Y-279835D01*
X-69342Y-272039D02*
X-57648Y-272039D01*
X-69342Y-264243D01*
X-57648Y-264243D01*
X-57648Y-260345D02*
X-69342Y-260345D01*
X-69342Y-254498D01*
X-67393Y-252549D01*
X-59597Y-252549D01*
X-57648Y-254498D01*
X-57648Y-260345D01*
D10*
X-76200Y-247650D02*
X76200Y-247650D01*
X50800Y-215900D02*
X50800Y-288290D01*
X25400Y-288290D02*
X25400Y-215900D01*
X0Y-215900D02*
X0Y-288290D01*
X-25400Y-288290D02*
X-25400Y-215900D01*
X-50800Y-215900D02*
X-50800Y-288290D01*
X-76200Y-288290D02*
X-76200Y-215900D01*
X-76200Y-288290D02*
X76200Y-288290D01*
X76200Y-215900D01*
X-76200Y-215900D01*
D12*
X38100Y-55880D02*
X31750Y-22860D01*
X25908Y-43180D01*
X34290Y-43942D01*
X25146Y-53086D01*
X35306Y-53848D01*
X26416Y-44704D01*
X21590Y-55880D01*
D13*
X-82400Y139700D02*
X-82400Y149869D01*
X-79010Y149869D02*
X-85790Y149869D01*
X-89535Y144784D02*
X-96314Y144784D01*
X95400Y139700D02*
X95400Y149869D01*
X98790Y149869D02*
X92010Y149869D01*
X88265Y144784D02*
X81486Y144784D01*
X84875Y141395D02*
X84875Y148174D01*
D12*
X-57150Y-346710D02*
X-69850Y-346710D01*
M02*
