G04 EAGLE Gerber RS-274X export*
G75*
%MOMM*%
%FSLAX34Y34*%
%LPD*%
%INGBS*%
%IPPOS*%
%AMOC8*
5,1,8,0,0,1.08239X$1,22.5*%
G01*
%ADD10C,2.768600*%
%ADD11C,5.901600*%
%ADD12C,1.209600*%
%ADD13C,1.981200*%
%ADD14C,1.200000*%
%ADD15C,1.101600*%
%ADD16C,2.641600*%


D10*
X68580Y170180D03*
X-68580Y170180D03*
X-78740Y304800D03*
X78740Y304800D03*
D11*
X127000Y317500D03*
D12*
X105000Y317500D03*
X149000Y317500D03*
X127000Y295500D03*
X127000Y339500D03*
X111500Y333000D03*
X142500Y333000D03*
X111500Y302000D03*
X142500Y302000D03*
D11*
X127000Y-317500D03*
D12*
X105000Y-317500D03*
X149000Y-317500D03*
X127000Y-339500D03*
X127000Y-295500D03*
X111500Y-302000D03*
X142500Y-302000D03*
X111500Y-333000D03*
X142500Y-333000D03*
D11*
X-127000Y-317500D03*
D12*
X-149000Y-317500D03*
X-105000Y-317500D03*
X-127000Y-339500D03*
X-127000Y-295500D03*
X-142500Y-302000D03*
X-111500Y-302000D03*
X-142500Y-333000D03*
X-111500Y-333000D03*
D11*
X-127000Y317500D03*
D12*
X-149000Y317500D03*
X-105000Y317500D03*
X-127000Y295500D03*
X-127000Y339500D03*
X-142500Y333000D03*
X-111500Y333000D03*
X-142500Y302000D03*
X-111500Y302000D03*
D13*
X-63500Y-330200D03*
X-63500Y-304800D03*
X-38100Y-330200D03*
X-38100Y-304800D03*
X-12700Y-330200D03*
X-12700Y-304800D03*
X12700Y-330200D03*
X12700Y-304800D03*
X38100Y-330200D03*
X38100Y-304800D03*
X63500Y-330200D03*
X63500Y-304800D03*
D14*
X116000Y-254000D02*
X116003Y-253730D01*
X116013Y-253460D01*
X116030Y-253191D01*
X116053Y-252922D01*
X116083Y-252653D01*
X116119Y-252386D01*
X116162Y-252119D01*
X116211Y-251854D01*
X116267Y-251590D01*
X116330Y-251327D01*
X116398Y-251066D01*
X116474Y-250807D01*
X116555Y-250550D01*
X116643Y-250294D01*
X116737Y-250041D01*
X116837Y-249790D01*
X116944Y-249542D01*
X117056Y-249297D01*
X117175Y-249054D01*
X117299Y-248815D01*
X117429Y-248578D01*
X117565Y-248345D01*
X117707Y-248115D01*
X117854Y-247889D01*
X118007Y-247666D01*
X118165Y-247447D01*
X118328Y-247232D01*
X118497Y-247022D01*
X118671Y-246815D01*
X118850Y-246613D01*
X119033Y-246415D01*
X119222Y-246222D01*
X119415Y-246033D01*
X119613Y-245850D01*
X119815Y-245671D01*
X120022Y-245497D01*
X120232Y-245328D01*
X120447Y-245165D01*
X120666Y-245007D01*
X120889Y-244854D01*
X121115Y-244707D01*
X121345Y-244565D01*
X121578Y-244429D01*
X121815Y-244299D01*
X122054Y-244175D01*
X122297Y-244056D01*
X122542Y-243944D01*
X122790Y-243837D01*
X123041Y-243737D01*
X123294Y-243643D01*
X123550Y-243555D01*
X123807Y-243474D01*
X124066Y-243398D01*
X124327Y-243330D01*
X124590Y-243267D01*
X124854Y-243211D01*
X125119Y-243162D01*
X125386Y-243119D01*
X125653Y-243083D01*
X125922Y-243053D01*
X126191Y-243030D01*
X126460Y-243013D01*
X126730Y-243003D01*
X127000Y-243000D01*
X127270Y-243003D01*
X127540Y-243013D01*
X127809Y-243030D01*
X128078Y-243053D01*
X128347Y-243083D01*
X128614Y-243119D01*
X128881Y-243162D01*
X129146Y-243211D01*
X129410Y-243267D01*
X129673Y-243330D01*
X129934Y-243398D01*
X130193Y-243474D01*
X130450Y-243555D01*
X130706Y-243643D01*
X130959Y-243737D01*
X131210Y-243837D01*
X131458Y-243944D01*
X131703Y-244056D01*
X131946Y-244175D01*
X132185Y-244299D01*
X132422Y-244429D01*
X132655Y-244565D01*
X132885Y-244707D01*
X133111Y-244854D01*
X133334Y-245007D01*
X133553Y-245165D01*
X133768Y-245328D01*
X133978Y-245497D01*
X134185Y-245671D01*
X134387Y-245850D01*
X134585Y-246033D01*
X134778Y-246222D01*
X134967Y-246415D01*
X135150Y-246613D01*
X135329Y-246815D01*
X135503Y-247022D01*
X135672Y-247232D01*
X135835Y-247447D01*
X135993Y-247666D01*
X136146Y-247889D01*
X136293Y-248115D01*
X136435Y-248345D01*
X136571Y-248578D01*
X136701Y-248815D01*
X136825Y-249054D01*
X136944Y-249297D01*
X137056Y-249542D01*
X137163Y-249790D01*
X137263Y-250041D01*
X137357Y-250294D01*
X137445Y-250550D01*
X137526Y-250807D01*
X137602Y-251066D01*
X137670Y-251327D01*
X137733Y-251590D01*
X137789Y-251854D01*
X137838Y-252119D01*
X137881Y-252386D01*
X137917Y-252653D01*
X137947Y-252922D01*
X137970Y-253191D01*
X137987Y-253460D01*
X137997Y-253730D01*
X138000Y-254000D01*
X137997Y-254270D01*
X137987Y-254540D01*
X137970Y-254809D01*
X137947Y-255078D01*
X137917Y-255347D01*
X137881Y-255614D01*
X137838Y-255881D01*
X137789Y-256146D01*
X137733Y-256410D01*
X137670Y-256673D01*
X137602Y-256934D01*
X137526Y-257193D01*
X137445Y-257450D01*
X137357Y-257706D01*
X137263Y-257959D01*
X137163Y-258210D01*
X137056Y-258458D01*
X136944Y-258703D01*
X136825Y-258946D01*
X136701Y-259185D01*
X136571Y-259422D01*
X136435Y-259655D01*
X136293Y-259885D01*
X136146Y-260111D01*
X135993Y-260334D01*
X135835Y-260553D01*
X135672Y-260768D01*
X135503Y-260978D01*
X135329Y-261185D01*
X135150Y-261387D01*
X134967Y-261585D01*
X134778Y-261778D01*
X134585Y-261967D01*
X134387Y-262150D01*
X134185Y-262329D01*
X133978Y-262503D01*
X133768Y-262672D01*
X133553Y-262835D01*
X133334Y-262993D01*
X133111Y-263146D01*
X132885Y-263293D01*
X132655Y-263435D01*
X132422Y-263571D01*
X132185Y-263701D01*
X131946Y-263825D01*
X131703Y-263944D01*
X131458Y-264056D01*
X131210Y-264163D01*
X130959Y-264263D01*
X130706Y-264357D01*
X130450Y-264445D01*
X130193Y-264526D01*
X129934Y-264602D01*
X129673Y-264670D01*
X129410Y-264733D01*
X129146Y-264789D01*
X128881Y-264838D01*
X128614Y-264881D01*
X128347Y-264917D01*
X128078Y-264947D01*
X127809Y-264970D01*
X127540Y-264987D01*
X127270Y-264997D01*
X127000Y-265000D01*
X126730Y-264997D01*
X126460Y-264987D01*
X126191Y-264970D01*
X125922Y-264947D01*
X125653Y-264917D01*
X125386Y-264881D01*
X125119Y-264838D01*
X124854Y-264789D01*
X124590Y-264733D01*
X124327Y-264670D01*
X124066Y-264602D01*
X123807Y-264526D01*
X123550Y-264445D01*
X123294Y-264357D01*
X123041Y-264263D01*
X122790Y-264163D01*
X122542Y-264056D01*
X122297Y-263944D01*
X122054Y-263825D01*
X121815Y-263701D01*
X121578Y-263571D01*
X121345Y-263435D01*
X121115Y-263293D01*
X120889Y-263146D01*
X120666Y-262993D01*
X120447Y-262835D01*
X120232Y-262672D01*
X120022Y-262503D01*
X119815Y-262329D01*
X119613Y-262150D01*
X119415Y-261967D01*
X119222Y-261778D01*
X119033Y-261585D01*
X118850Y-261387D01*
X118671Y-261185D01*
X118497Y-260978D01*
X118328Y-260768D01*
X118165Y-260553D01*
X118007Y-260334D01*
X117854Y-260111D01*
X117707Y-259885D01*
X117565Y-259655D01*
X117429Y-259422D01*
X117299Y-259185D01*
X117175Y-258946D01*
X117056Y-258703D01*
X116944Y-258458D01*
X116837Y-258210D01*
X116737Y-257959D01*
X116643Y-257706D01*
X116555Y-257450D01*
X116474Y-257193D01*
X116398Y-256934D01*
X116330Y-256673D01*
X116267Y-256410D01*
X116211Y-256146D01*
X116162Y-255881D01*
X116119Y-255614D01*
X116083Y-255347D01*
X116053Y-255078D01*
X116030Y-254809D01*
X116013Y-254540D01*
X116003Y-254270D01*
X116000Y-254000D01*
D15*
X127000Y-254000D03*
D14*
X-138000Y203200D02*
X-137997Y203470D01*
X-137987Y203740D01*
X-137970Y204009D01*
X-137947Y204278D01*
X-137917Y204547D01*
X-137881Y204814D01*
X-137838Y205081D01*
X-137789Y205346D01*
X-137733Y205610D01*
X-137670Y205873D01*
X-137602Y206134D01*
X-137526Y206393D01*
X-137445Y206650D01*
X-137357Y206906D01*
X-137263Y207159D01*
X-137163Y207410D01*
X-137056Y207658D01*
X-136944Y207903D01*
X-136825Y208146D01*
X-136701Y208385D01*
X-136571Y208622D01*
X-136435Y208855D01*
X-136293Y209085D01*
X-136146Y209311D01*
X-135993Y209534D01*
X-135835Y209753D01*
X-135672Y209968D01*
X-135503Y210178D01*
X-135329Y210385D01*
X-135150Y210587D01*
X-134967Y210785D01*
X-134778Y210978D01*
X-134585Y211167D01*
X-134387Y211350D01*
X-134185Y211529D01*
X-133978Y211703D01*
X-133768Y211872D01*
X-133553Y212035D01*
X-133334Y212193D01*
X-133111Y212346D01*
X-132885Y212493D01*
X-132655Y212635D01*
X-132422Y212771D01*
X-132185Y212901D01*
X-131946Y213025D01*
X-131703Y213144D01*
X-131458Y213256D01*
X-131210Y213363D01*
X-130959Y213463D01*
X-130706Y213557D01*
X-130450Y213645D01*
X-130193Y213726D01*
X-129934Y213802D01*
X-129673Y213870D01*
X-129410Y213933D01*
X-129146Y213989D01*
X-128881Y214038D01*
X-128614Y214081D01*
X-128347Y214117D01*
X-128078Y214147D01*
X-127809Y214170D01*
X-127540Y214187D01*
X-127270Y214197D01*
X-127000Y214200D01*
X-126730Y214197D01*
X-126460Y214187D01*
X-126191Y214170D01*
X-125922Y214147D01*
X-125653Y214117D01*
X-125386Y214081D01*
X-125119Y214038D01*
X-124854Y213989D01*
X-124590Y213933D01*
X-124327Y213870D01*
X-124066Y213802D01*
X-123807Y213726D01*
X-123550Y213645D01*
X-123294Y213557D01*
X-123041Y213463D01*
X-122790Y213363D01*
X-122542Y213256D01*
X-122297Y213144D01*
X-122054Y213025D01*
X-121815Y212901D01*
X-121578Y212771D01*
X-121345Y212635D01*
X-121115Y212493D01*
X-120889Y212346D01*
X-120666Y212193D01*
X-120447Y212035D01*
X-120232Y211872D01*
X-120022Y211703D01*
X-119815Y211529D01*
X-119613Y211350D01*
X-119415Y211167D01*
X-119222Y210978D01*
X-119033Y210785D01*
X-118850Y210587D01*
X-118671Y210385D01*
X-118497Y210178D01*
X-118328Y209968D01*
X-118165Y209753D01*
X-118007Y209534D01*
X-117854Y209311D01*
X-117707Y209085D01*
X-117565Y208855D01*
X-117429Y208622D01*
X-117299Y208385D01*
X-117175Y208146D01*
X-117056Y207903D01*
X-116944Y207658D01*
X-116837Y207410D01*
X-116737Y207159D01*
X-116643Y206906D01*
X-116555Y206650D01*
X-116474Y206393D01*
X-116398Y206134D01*
X-116330Y205873D01*
X-116267Y205610D01*
X-116211Y205346D01*
X-116162Y205081D01*
X-116119Y204814D01*
X-116083Y204547D01*
X-116053Y204278D01*
X-116030Y204009D01*
X-116013Y203740D01*
X-116003Y203470D01*
X-116000Y203200D01*
X-116003Y202930D01*
X-116013Y202660D01*
X-116030Y202391D01*
X-116053Y202122D01*
X-116083Y201853D01*
X-116119Y201586D01*
X-116162Y201319D01*
X-116211Y201054D01*
X-116267Y200790D01*
X-116330Y200527D01*
X-116398Y200266D01*
X-116474Y200007D01*
X-116555Y199750D01*
X-116643Y199494D01*
X-116737Y199241D01*
X-116837Y198990D01*
X-116944Y198742D01*
X-117056Y198497D01*
X-117175Y198254D01*
X-117299Y198015D01*
X-117429Y197778D01*
X-117565Y197545D01*
X-117707Y197315D01*
X-117854Y197089D01*
X-118007Y196866D01*
X-118165Y196647D01*
X-118328Y196432D01*
X-118497Y196222D01*
X-118671Y196015D01*
X-118850Y195813D01*
X-119033Y195615D01*
X-119222Y195422D01*
X-119415Y195233D01*
X-119613Y195050D01*
X-119815Y194871D01*
X-120022Y194697D01*
X-120232Y194528D01*
X-120447Y194365D01*
X-120666Y194207D01*
X-120889Y194054D01*
X-121115Y193907D01*
X-121345Y193765D01*
X-121578Y193629D01*
X-121815Y193499D01*
X-122054Y193375D01*
X-122297Y193256D01*
X-122542Y193144D01*
X-122790Y193037D01*
X-123041Y192937D01*
X-123294Y192843D01*
X-123550Y192755D01*
X-123807Y192674D01*
X-124066Y192598D01*
X-124327Y192530D01*
X-124590Y192467D01*
X-124854Y192411D01*
X-125119Y192362D01*
X-125386Y192319D01*
X-125653Y192283D01*
X-125922Y192253D01*
X-126191Y192230D01*
X-126460Y192213D01*
X-126730Y192203D01*
X-127000Y192200D01*
X-127270Y192203D01*
X-127540Y192213D01*
X-127809Y192230D01*
X-128078Y192253D01*
X-128347Y192283D01*
X-128614Y192319D01*
X-128881Y192362D01*
X-129146Y192411D01*
X-129410Y192467D01*
X-129673Y192530D01*
X-129934Y192598D01*
X-130193Y192674D01*
X-130450Y192755D01*
X-130706Y192843D01*
X-130959Y192937D01*
X-131210Y193037D01*
X-131458Y193144D01*
X-131703Y193256D01*
X-131946Y193375D01*
X-132185Y193499D01*
X-132422Y193629D01*
X-132655Y193765D01*
X-132885Y193907D01*
X-133111Y194054D01*
X-133334Y194207D01*
X-133553Y194365D01*
X-133768Y194528D01*
X-133978Y194697D01*
X-134185Y194871D01*
X-134387Y195050D01*
X-134585Y195233D01*
X-134778Y195422D01*
X-134967Y195615D01*
X-135150Y195813D01*
X-135329Y196015D01*
X-135503Y196222D01*
X-135672Y196432D01*
X-135835Y196647D01*
X-135993Y196866D01*
X-136146Y197089D01*
X-136293Y197315D01*
X-136435Y197545D01*
X-136571Y197778D01*
X-136701Y198015D01*
X-136825Y198254D01*
X-136944Y198497D01*
X-137056Y198742D01*
X-137163Y198990D01*
X-137263Y199241D01*
X-137357Y199494D01*
X-137445Y199750D01*
X-137526Y200007D01*
X-137602Y200266D01*
X-137670Y200527D01*
X-137733Y200790D01*
X-137789Y201054D01*
X-137838Y201319D01*
X-137881Y201586D01*
X-137917Y201853D01*
X-137947Y202122D01*
X-137970Y202391D01*
X-137987Y202660D01*
X-137997Y202930D01*
X-138000Y203200D01*
D15*
X-127000Y203200D03*
D16*
X25400Y162560D03*
X-25400Y162560D03*
M02*
