G04 EAGLE Gerber RS-274X export*
G75*
%MOMM*%
%FSLAX34Y34*%
%LPD*%
%INGKO*%
%IPPOS*%
%AMOC8*
5,1,8,0,0,1.08239X$1,22.5*%
G01*
%ADD10C,0.254000*%


D10*
X-165100Y-317500D02*
X-164955Y-320821D01*
X-164521Y-324116D01*
X-163802Y-327361D01*
X-162802Y-330531D01*
X-161530Y-333602D01*
X-159996Y-336550D01*
X-158210Y-339353D01*
X-156186Y-341990D01*
X-153941Y-344441D01*
X-151490Y-346686D01*
X-148853Y-348710D01*
X-146050Y-350496D01*
X-143102Y-352030D01*
X-140031Y-353302D01*
X-136861Y-354302D01*
X-133616Y-355021D01*
X-130321Y-355455D01*
X-127000Y-355600D01*
X127000Y-355600D01*
X130321Y-355455D01*
X133616Y-355021D01*
X136861Y-354302D01*
X140031Y-353302D01*
X143102Y-352030D01*
X146050Y-350496D01*
X148853Y-348710D01*
X151490Y-346686D01*
X153941Y-344441D01*
X156186Y-341990D01*
X158210Y-339353D01*
X159996Y-336550D01*
X161530Y-333602D01*
X162802Y-330531D01*
X163802Y-327361D01*
X164521Y-324116D01*
X164955Y-320821D01*
X165100Y-317500D01*
X165100Y317500D01*
X164955Y320821D01*
X164521Y324116D01*
X163802Y327361D01*
X162802Y330531D01*
X161530Y333602D01*
X159996Y336550D01*
X158210Y339353D01*
X156186Y341990D01*
X153941Y344441D01*
X151490Y346686D01*
X148853Y348710D01*
X146050Y350496D01*
X143102Y352030D01*
X140031Y353302D01*
X136861Y354302D01*
X133616Y355021D01*
X130321Y355455D01*
X127000Y355600D01*
X-127000Y355600D01*
X-130321Y355455D01*
X-133616Y355021D01*
X-136861Y354302D01*
X-140031Y353302D01*
X-143102Y352030D01*
X-146050Y350496D01*
X-148853Y348710D01*
X-151490Y346686D01*
X-153941Y344441D01*
X-156186Y341990D01*
X-158210Y339353D01*
X-159996Y336550D01*
X-161530Y333602D01*
X-162802Y330531D01*
X-163802Y327361D01*
X-164521Y324116D01*
X-164955Y320821D01*
X-165100Y317500D01*
X-165100Y-317500D01*
M02*
